<?xml version="1.0" standalone="no"?>
<!DOCTYPE svg PUBLIC "-//W3C//DTD SVG 1.1//EN" "http://www.w3.org/Graphics/SVG/1.1/DTD/svg11.dtd" >
<svg>
<metadata>
Created by FontForge 20090914 at Sat Oct 27 08:51:37 2018
 By www-data
</metadata>
<defs>
<font id="Bello-Script" horiz-adv-x="1798" >
  <font-face 
    font-family="Bello Script"
    font-weight="400"
    font-stretch="normal"
    units-per-em="4096"
    panose-1="2 0 5 5 2 0 0 2 0 3"
    ascent="3072"
    descent="-1024"
    x-height="1851"
    cap-height="2974"
    bbox="-777.999 -1626 4690 4424"
    underline-thickness="82"
    underline-position="-328"
    unicode-range="U+000D-U+FB02"
  />
<missing-glyph horiz-adv-x="1663" 
d="M721 381v217h180v-217h-180zM729 758l-4.00391 53.002c0 60 3.16699 112 9.5 156s16.833 79.333 31.5 106c14.667 28.667 34.334 59.167 59.001 91.5s55.667 66.166 93 101.499c34.667 34 62.5 63.333 83.5 88s37 47.167 48 67.5s18.333 39.833 22 58.5
s5.5 38.667 5.5 60c0 38 -6.66699 73.667 -20 107s-31.166 62.5 -53.499 87.5s-48.333 44.667 -78 59s-61.167 21.5 -94.5 21.5c-34 0 -65.667 -5.66699 -95 -17s-55.666 -29.5 -78.999 -54.5s-43 -57.167 -59 -96.5s-27 -87.333 -33 -144l-164 29
c8 76 24.667 141.667 50 197s57.166 101.166 95.499 137.499s82.5 63.333 132.5 81s103.667 26.5 161 26.5s110.5 -10.167 159.5 -30.5s91.333 -49 127 -86s63.667 -81.667 84 -134s30.5 -110.833 30.5 -175.5c0 -34.667 -3 -67.167 -9 -97.5s-16.667 -60.5 -32 -90.5
s-36.166 -61.167 -62.499 -93.5s-60.166 -68.166 -101.499 -107.499c-41.333 -32.667 -73.333 -63.167 -96 -91.5s-37 -53.833 -43 -76.5c-4 -20.667 -7.66699 -50.334 -11 -89.001s-5 -86.667 -5 -144h-152zM1499 160.002v2003h-1339v-2003h1339zM1663 2331v-2331h-1663
v2331h1663z" />
    <glyph glyph-name=".notdef" horiz-adv-x="1663" 
d="M721 381v217h180v-217h-180zM729 758l-4.00391 53.002c0 60 3.16699 112 9.5 156s16.833 79.333 31.5 106c14.667 28.667 34.334 59.167 59.001 91.5s55.667 66.166 93 101.499c34.667 34 62.5 63.333 83.5 88s37 47.167 48 67.5s18.333 39.833 22 58.5
s5.5 38.667 5.5 60c0 38 -6.66699 73.667 -20 107s-31.166 62.5 -53.499 87.5s-48.333 44.667 -78 59s-61.167 21.5 -94.5 21.5c-34 0 -65.667 -5.66699 -95 -17s-55.666 -29.5 -78.999 -54.5s-43 -57.167 -59 -96.5s-27 -87.333 -33 -144l-164 29
c8 76 24.667 141.667 50 197s57.166 101.166 95.499 137.499s82.5 63.333 132.5 81s103.667 26.5 161 26.5s110.5 -10.167 159.5 -30.5s91.333 -49 127 -86s63.667 -81.667 84 -134s30.5 -110.833 30.5 -175.5c0 -34.667 -3 -67.167 -9 -97.5s-16.667 -60.5 -32 -90.5
s-36.166 -61.167 -62.499 -93.5s-60.166 -68.166 -101.499 -107.499c-41.333 -32.667 -73.333 -63.167 -96 -91.5s-37 -53.833 -43 -76.5c-4 -20.667 -7.66699 -50.334 -11 -89.001s-5 -86.667 -5 -144h-152zM1499 160.002v2003h-1339v-2003h1339zM1663 2331v-2331h-1663
v2331h1663z" />
    <glyph glyph-name="nonmarkingreturn" unicode="&#xd;" horiz-adv-x="606" 
 />
    <glyph glyph-name="space" unicode=" " horiz-adv-x="901" 
 />
    <glyph glyph-name="exclam" unicode="!" horiz-adv-x="2048" 
d="M1327 938c-10 -6 -24.9961 -11.6641 -44.9961 -16.9971s-40.333 -8 -61 -8c-42.667 0 -80.834 10.833 -114.501 32.5s-62.167 50.167 -85.5 85.5s-41 75.666 -53 120.999s-18 91.333 -18 138c0 30 1.33301 66.167 4 108.5s6.83398 89 12.501 140s12.5 105.667 20.5 164
s17.5 118.333 28.5 180s23.333 124.167 37 187.5s28.834 125.666 45.501 187c-16.667 39.333 -29 81.166 -37 125.5c-8 44.333 -12 87.166 -12 128.5c0 35.333 7.66699 71.333 23 108s36.833 72.167 64.5 106.5s60.167 66.666 97.5 97
c37.333 30.333 78.166 56.666 122.499 78.999s91.166 40 140.499 53s99.333 19.5 150 19.5c43.333 0 79.5 -4.16699 108.5 -12.5s52.5 -20.5 70.5 -36.5s30.833 -36 38.5 -60s11.5 -52 11.5 -84c0 -26.667 -4.16699 -59.667 -12.5 -99s-21.333 -84 -39 -134
s-39.834 -104.667 -66.501 -164s-58.334 -122.333 -95.001 -189c-32.667 -94.667 -63.667 -190.167 -93 -286.5s-57.833 -195.833 -85.5 -298.5s-54.334 -209.334 -80.001 -320.001s-51.5 -228 -77.5 -352zM926.004 -48.9971c-44 0 -86 9.33301 -126 28
s-75.333 43.5 -106 74.5s-55 66.167 -73 105.5s-27 79.333 -27 120c0 33.333 7.83301 66.333 23.5 99s36.834 63.834 63.501 93.501s57.5 57.334 92.5 83.001s72.167 47.667 111.5 66s79.333 32.833 120 43.5s79.667 16 117 16s68.333 -3.83301 93 -11.5
s44.334 -19 59.001 -34s25.167 -33.333 31.5 -55s9.5 -46.834 9.5 -75.501c0 -39.333 -4.5 -80.5 -13.5 -123.5s-21.833 -85 -38.5 -126s-36.667 -79.833 -60 -116.5s-49.333 -68.834 -78 -96.501s-59.834 -49.667 -93.501 -66s-68.834 -24.5 -105.501 -24.5z" />
    <glyph glyph-name="quotedbl" unicode="&#x22;" horiz-adv-x="2232" 
d="M639 1532c45.333 158.667 79.1689 312.167 101.502 460.5s33.5 288.5 33.5 420.5c0 38.667 -0.666992 78.5 -2 119.5s-6 84.167 -14 129.5c18.667 54 50 94.833 94 122.5s104 41.5 180 41.5c61.333 0 113.666 -8.16699 156.999 -24.5s78.5 -37.666 105.5 -64
c27 -26.333 46.667 -56 59 -89s18.5 -66.5 18.5 -100.5c0 -38 -4.83301 -82.5 -14.5 -133.5s-23.334 -105.333 -41.001 -163s-39 -117.834 -64 -180.5c-25 -62.667 -52.5 -125.167 -82.5 -187.5s-62.167 -123 -96.5 -182s-69.833 -114.167 -106.5 -165.5
c-22.667 -30.667 -50.667 -54.667 -84 -72s-65.666 -26 -96.999 -26c-46.667 0 -80.834 8.5 -102.501 25.5s-36.5 39.833 -44.5 68.5zM1634 1532c22.667 78.667 44.499 160.833 65.499 246.5s39.667 170.5 56 254.5s29.5 165.5 39.5 244.5s15 151.167 15 216.5
c0 39.333 -0.666992 79.5 -2 120.5s-6 84.167 -14 129.5c18.667 54 50 94.833 94 122.5s104 41.5 180 41.5c61.333 0 111.666 -10.333 151 -31c39.333 -20.667 70.333 -46.667 93 -78s38.334 -65.666 47 -103c8.66699 -37.333 13 -73 13 -107c0 -38 -5 -83.5 -15 -136.5
s-24 -109.833 -42 -170.5s-39.667 -124.167 -65 -190.5s-53.166 -132.166 -83.499 -197.499s-62.833 -128.5 -97.5 -189.5s-70.334 -117.167 -107.001 -168.5c-22.667 -30.667 -50.667 -54.667 -84 -72s-65.333 -26 -96 -26c-23.333 0 -43.5 2.16699 -60.5 6.5
s-31.167 10.666 -42.5 18.999s-20.666 18.333 -27.999 30s-13 24.5 -17 38.5z" />
    <glyph glyph-name="numbersign" unicode="#" horiz-adv-x="2118" 
d="M729 1593l52.5 308c18.333 106 33.5 209.667 45.5 311c14.667 8 31.5 14 50.5 18s37.833 6 56.5 6c34 0 64.833 -6.83301 92.5 -20.5s51.334 -33.334 71.001 -59.001s34.834 -56.5 45.501 -92.5s16 -76.667 16 -122c0 -20.667 -1.66699 -43.834 -5 -69.501
s-7.33301 -52.5 -12 -80.5s-9.83398 -56.167 -15.501 -84.5l-16.5 -81.5l221 21l28 148.5c8.66699 47 16.334 93.333 23.001 139s12 91.834 16 138.501s6.33301 95.667 7 147c16.667 12.667 38.167 22.667 64.5 30s53.833 11 82.5 11c37.333 0 71.5 -5.33301 102.5 -16
s57.667 -26.5 80 -47.5s39.833 -47 52.5 -78s19 -67.167 19 -108.5c0 -19.333 -2 -41.333 -6 -66s-9.16699 -50.5 -15.5 -77.5l-20 -83.5c-7 -28.667 -13.5 -56.667 -19.5 -84c60 12 112.833 25.167 158.5 39.5s87.167 29.833 124.5 46.5
c28.667 -12.667 52.167 -31.667 70.5 -57s27.5 -59.666 27.5 -102.999c0 -71.333 -37.333 -129 -112 -173s-191.667 -72.333 -351 -85l-90 -295l79 9.5c24 3 47 6.83301 69 11.5s43.5 9.83398 64.5 15.501s42.833 12.5 65.5 20.5c25.333 -16 42.666 -35.5 51.999 -58.5
s14 -47.167 14 -72.5c0 -32.667 -7 -63 -21 -91s-38 -52.333 -72 -73s-79 -37 -135 -49s-126 -18.667 -210 -20l-40 -160.5c-11.333 -46.333 -21 -89.833 -29 -130.5s-14.5 -80.5 -19.5 -119.5s-8.5 -81.167 -10.5 -126.5c-10 -12 -22.5 -21.833 -37.5 -29.5
s-33.833 -11.5 -56.5 -11.5c-26.667 0 -51.667 5.5 -75 16.5s-43.666 26.167 -60.999 45.5s-31 42.666 -41 69.999s-15 57.333 -15 90c0 22.667 1 45.5 3 68.5s4.83301 47.667 8.5 74s8.33398 54.833 14.001 85.5l19.5 103l-287 -16l-38.5 -157.5
c-10.333 -43.667 -19 -82.5 -26 -116.5s-12.5 -65.333 -16.5 -94s-7 -59 -9 -91c-10.667 -8 -23.334 -15.5 -38.001 -22.5s-33.334 -10.5 -56.001 -10.5c-24 0 -46.333 4.66699 -67 14s-38.834 23 -54.501 41s-28 40.667 -37 68s-13.5 59 -13.5 95
c0 28.667 3.83301 64.667 11.5 108s18.834 96 33.501 158h-238c-12 8 -21.167 20 -27.5 36s-9.5 31.333 -9.5 46c0 28.667 4.66699 54 14 76s26.5 40.833 51.5 56.5s59.167 28.167 102.5 37.5s99.333 15.333 168 18c7.33301 32.667 13.833 62.834 19.5 90.501l17 80.5
l16.5 79l17 86l-258 -12c-8.66699 8 -16.334 20 -23.001 36s-10 31.333 -10 46c0 21.333 4.83301 42.666 14.5 63.999s27.5 41 53.5 59s61.5 33.833 106.5 47.5s102.833 23.5 173.5 29.5zM1024 1343l-90 -327l270 16l82 320z" />
    <glyph glyph-name="dollar" unicode="$" horiz-adv-x="1692" 
d="M500 778c5.33301 -30.667 14.5 -62.4971 27.5 -95.4971s29 -65.5 48 -97.5s40.5 -62.333 64.5 -91s49.333 -53.834 76 -75.501s54.334 -38.834 83.001 -51.501s57.334 -19 86.001 -19c11.333 0 23.333 1.66699 36 5s24.5 8.66602 35.5 15.999s20.167 17 27.5 29
s11 26.667 11 44c0 35.333 -10 75 -30 119s-45 91.333 -75 142l-97.5 159.5c-35 55.667 -67.5 113 -97.5 172s-55 119 -75 180s-30 121.833 -30 182.5c0 68.667 10.167 136.5 30.5 203.5s52.833 128.5 97.5 184.5s102.167 104.167 172.5 144.5s155.833 67.5 256.5 81.5
c37.333 137.333 64 248.666 80 334c16 85.333 26 147.333 30 186c18.667 10.667 41.667 18.834 69 24.5c27.333 5.66699 52.333 8.5 75 8.5c30.667 0 58.834 -4.66699 84.501 -14s47.667 -22.666 66 -40c18.333 -17.333 32.666 -38 42.999 -62s15.5 -51 15.5 -81
c0 -19.333 -2.16699 -40.666 -6.5 -64c-4.33301 -23.333 -11.166 -49.833 -20.499 -79.5s-21.166 -63 -35.499 -100s-31.833 -78.5 -52.5 -124.5c78.667 -20.667 140 -55.5 184 -104.5s66 -108.5 66 -178.5c0 -45.333 -8.33301 -88 -25 -128s-38.334 -72.333 -65.001 -97
c-19.333 8 -41.833 15.5 -67.5 22.5s-52.5 13 -80.5 18s-56.167 9 -84.5 12s-54.833 4.5 -79.5 4.5c-69.333 0 -119.333 -13.667 -150 -41s-46 -66.666 -46 -117.999c0 -29.333 10.667 -63 32 -101s48.166 -79.167 80.499 -123.5l104.5 -140.5
c37.333 -49.333 72.166 -100 104.499 -152s59.166 -104.833 80.499 -158.5s32 -107.167 32 -160.5c0 -67.333 -8.66699 -129.166 -26 -185.499s-41.166 -107 -71.499 -152s-66.166 -85 -107.499 -120s-86 -65.333 -134 -91s-98.167 -47 -150.5 -64
s-104.833 -29.833 -157.5 -38.5c-6 -39.333 -10.167 -78.833 -12.5 -118.5s-3.5 -78.167 -3.5 -115.5c0 -62 4.16699 -124.833 12.5 -188.5s21.833 -126.5 40.5 -188.5c-12.667 -28.667 -34 -50.834 -64 -66.501s-64.667 -23.5 -104 -23.5c-50 0 -92.5 7.83301 -127.5 23.5
s-63.5 37.5 -85.5 65.5s-37.833 61.333 -47.5 100s-14.5 81 -14.5 127c0 56.667 4.16699 117 12.5 181s20.833 136 37.5 216c-58.667 13.333 -114.334 33.333 -167.001 60s-98.834 60.167 -138.501 100.5s-71.167 87.666 -94.5 141.999s-35 115.833 -35 184.5
c0 53.333 8.83301 103 26.5 149s42.167 85.833 73.5 119.5s69 60.167 113 79.5s92 29 144 29z" />
    <glyph glyph-name="percent" unicode="%" horiz-adv-x="2863" 
d="M1028 528l188.499 204.503l191.5 210l186 210l171 204.5c53.333 66.667 102.5 130.834 147.5 192.501s83.5 119.834 115.5 174.501c-30.667 -6 -70.667 -11.333 -120 -16s-102.333 -8.66699 -159 -12s-114.167 -6 -172.5 -8s-111.5 -3.66699 -159.5 -5
c-2.66699 -89.333 -13.5 -172.833 -32.5 -250.5s-44.167 -148.834 -75.5 -213.501s-67.5 -122.334 -108.5 -173.001s-84.667 -93.334 -131 -128.001s-94.333 -61.167 -144 -79.5s-98.834 -27.5 -147.501 -27.5c-78 0 -144.333 13.833 -199 41.5s-99.5 65.167 -134.5 112.5
s-60.5 102.5 -76.5 165.5s-24 129.833 -24 200.5c0 71.333 7.83301 142.666 23.5 213.999s37 140 64 206s58.667 127.5 95 184.5s75.166 106.5 116.499 148.5s84.5 75.167 129.5 99.5s89.167 36.5 132.5 36.5c14.667 0 29 -1.33301 43 -4s27 -8 39 -16
c14.667 16 32.334 28.833 53.001 38.5s49.334 14.5 86.001 14.5c26 0 51.167 -6.33301 75.5 -19s47.166 -30 68.499 -52s41 -48 59 -78s33.667 -62.333 47 -97c34.667 0 75 0.833008 121 2.5s94 3.83398 144 6.50098s100.5 5.83398 151.5 9.50098
s98.833 7.83398 143.5 12.501s84.667 9.5 120 14.5s62.666 10.167 82 15.5c24.667 90 49.834 164.667 75.5 224c25.667 59.333 51.5 106.333 77.5 141s51.667 59 77 73s49.666 21 73 21c40 0 77 -9 111 -27s63.5 -41.333 88.5 -70s44.5 -60.334 58.5 -95.001s21 -69 21 -103
c0 -88 -29.167 -191.833 -87.5 -311.5s-147.166 -258.667 -266.5 -417c-119.333 -158.333 -269.666 -338 -450.999 -539l-641 -677.5c-55.333 -57.333 -101.166 -107.333 -137.499 -150s-65.333 -81.667 -87 -117s-36.834 -69.333 -45.501 -102s-13 -68 -13 -106
c0 -16.667 0.833008 -34.167 2.5 -52.5s3.5 -33.833 5.5 -46.5c-4.66699 -18 -12.667 -33.667 -24 -47s-24.333 -24.333 -39 -33s-30.667 -15.167 -48 -19.5s-34.666 -6.5 -51.999 -6.5c-36.667 0 -69 6.83301 -97 20.5s-51.167 32.167 -69.5 55.5
s-32.166 50.333 -41.499 81s-14 63 -14 97c0 30.667 2.5 60.167 7.5 88.5s13.667 57.166 26 86.499s28.666 60.166 48.999 92.499s45.833 68.166 76.5 107.499s67 82.833 109 130.5zM2028 -568.997c-147.333 0 -258 37.835 -332 113.502s-111 185.167 -111 328.5
c0 62.667 8 127.167 24 193.5s37.667 130.666 65 192.999s59.166 121.333 95.499 177s75 104.167 116 145.5s83.167 74.166 126.5 98.499s85.333 36.5 126 36.5c10.667 0 24.5 -2.33301 41.5 -7s30.5 -9.33398 40.5 -14.001c18.667 18.667 40.334 33 65.001 43
s53.667 15 87 15c36 0 70.5 -11.333 103.5 -34s62.167 -55.167 87.5 -97.5s45.5 -93.666 60.5 -153.999s22.5 -127.833 22.5 -202.5c0 -88.667 -8.16699 -170.834 -24.5 -246.501s-39 -144.5 -68 -206.5s-63.167 -116.667 -102.5 -164s-82 -87.166 -128 -119.499
s-94 -56.833 -144 -73.5s-100.333 -25 -151 -25zM744.999 1401c0 -28.667 3.5 -53.9971 10.5 -75.9971s16.5 -40.333 28.5 -55s25.667 -25.834 41 -33.501s31 -11.5 47 -11.5c24 0 44.5 9.83301 61.5 29.5s31 45.5 42 77.5s19.167 68.333 24.5 109s8 82 8 124
c0 7.33301 -0.166992 17.833 -0.5 31.5s-1 29 -2 46l-3 52.5c-1 18 -2.16699 34.667 -3.5 50c-6.66699 8 -13.5 18.5 -20.5 31.5s-13.667 27 -20 42s-11.833 30.667 -16.5 47s-8.66699 32.166 -12 47.499c-18.667 -28 -38.667 -61.667 -60 -101s-41.333 -81.833 -60 -127.5
s-34.167 -92.834 -46.5 -141.501s-18.5 -96 -18.5 -142zM1987 -60.9922c0 -24.667 2.83105 -45.167 8.49805 -61.5s12.834 -29.333 21.501 -39s17.667 -16.5 27 -20.5s17.333 -6 24 -6c22.667 0 43.834 7.16699 63.501 21.5s36.667 34.166 51 59.499
s25.5 55.166 33.5 89.499s12 71.5 12 111.5c0 20.667 -1 44.667 -3 72s-5.5 54.833 -10.5 82.5s-11.333 53.334 -19 77.001s-17.167 42.167 -28.5 55.5c-18.667 -17.333 -38.5 -41.666 -59.5 -72.999s-40.5 -66.833 -58.5 -106.5s-32.833 -82 -44.5 -127
s-17.5 -90.167 -17.5 -135.5z" />
    <glyph glyph-name="ampersand" unicode="&#x26;" horiz-adv-x="3215" 
d="M659 1393c-27.333 50 -51.1631 103.163 -71.4961 159.496s-37.333 113.833 -51 172.5s-23.834 117.5 -30.501 176.5s-10 116.167 -10 171.5c0 47.333 4.5 100.666 13.5 160c9 59.333 22.667 120 41 182s41.666 122.5 69.999 181.5s61.833 111.5 100.5 157.5
s82.5 83.167 131.5 111.5s103.5 42.5 163.5 42.5c22.667 0 44.667 -5.66699 66 -17s36 -27.333 44 -48c31.333 51.333 73.5 92.833 126.5 124.5s117.5 47.5 193.5 47.5c61.333 0 117.5 -11.833 168.5 -35.5s94.667 -55.167 131 -94.5s64.5 -84.666 84.5 -136
c20 -51.333 30 -104.666 30 -159.999c0 -50 -4.16699 -99.333 -12.5 -148s-22 -99 -41 -151s-43.667 -106.5 -74 -163.5s-67.333 -118.667 -111 -185s-94.667 -138.166 -153 -215.499l-198.5 -256c26.667 -46 55.5 -93.167 86.5 -141.5l95.5 -142.5l99 -135.5l96 -120.5
c47.333 55.333 92 113.5 134 174.5s80.5 122.333 115.5 184s66 122.334 93 182.001s49.167 115.5 66.5 167.5l-30.5 -2.5l-38 -3c-13 -1 -26.167 -1.66699 -39.5 -2s-25 -0.5 -35 -0.5c-21.333 0 -39.5 4 -54.5 12s-27.333 18 -37 30s-16.667 25.167 -21 39.5
s-6.5 28.166 -6.5 41.499c0 37.333 6 72 18 104s29 61.167 51 87.5s48 50 78 71s63 38.5 99 52.5c32 13.333 70.667 26.5 116 39.5s94.833 25.5 148.5 37.5s110.5 23.333 170.5 34s120.833 20 182.5 28s122.834 14.167 183.5 18.5c60.667 4.33301 118.667 6.5 174 6.5
c60 0 111.5 -3.83301 154.5 -11.5s78.333 -20.334 106 -38c27.667 -17.667 47.834 -40.834 60.5 -69.501c12.667 -28.667 19 -64 19 -106c0 -32 -5.5 -68 -16.5 -108s-25.667 -80.667 -44 -122s-39.333 -81.5 -63 -120.5s-48.5 -73.833 -74.5 -104.5
s-52 -55.334 -78 -74.001s-50.333 -28 -73 -28c-14 0 -27.667 2.33301 -41 7s-25.666 12.834 -37 24.501c-11.333 11.667 -21.833 27.167 -31.5 46.5s-18.167 44 -25.5 74c-20.667 6 -46 11.333 -76 16s-61 8.5 -93 11.5s-63.5 5.66699 -94.5 8s-57.833 3.83301 -80.5 4.5
c-36.667 -96 -79.5 -191.833 -128.5 -287.5s-101.333 -188.167 -157 -277.5s-113.667 -174.666 -174 -255.999s-120.166 -155.666 -179.499 -222.999c87.333 -114 165.833 -212.5 235.499 -295.5c69.667 -83 133.167 -153.5 190.5 -211.5s109.833 -104.833 157.5 -140.5
s93.5 -63.5 137.5 -83.5s87.5 -33.5 130.5 -40.5s88.167 -10.5 135.5 -10.5c37.333 0 78.166 4.5 122.5 13.5c44.333 9 88.166 20.833 131.5 35.5c24.667 -8.66699 43.167 -24.5 55.5 -47.5s18.5 -46.833 18.5 -71.5c0 -46.667 -9 -90.5 -27 -131.5s-42.667 -79 -74 -114
s-67.833 -66.5 -109.5 -94.5s-86.167 -51.667 -133.5 -71s-96.166 -34.166 -146.5 -44.499c-50.333 -10.333 -99.833 -15.5 -148.5 -15.5c-65.333 0 -125.666 3.33301 -181 10c-55.333 6.66699 -109.333 20.167 -162 40.5s-106 49.666 -160 87.999s-112.333 89 -175 152
s-131.5 140.5 -206.5 232.5s-159.833 201.667 -254.5 329c-62 -50 -125.667 -93.833 -191 -131.5s-130.333 -68.834 -195 -93.501s-128.334 -43.167 -191.001 -55.5s-122.667 -18.5 -180 -18.5c-94 0 -178.5 13.333 -253.5 40s-138.667 64.334 -191 113.001
s-92.5 107.667 -120.5 177s-42 146.333 -42 231c0 76.667 10.667 152.334 32 227.001s55.666 152 102.999 232s109 164.5 185 253.5s168.667 186.167 278 291.5zM897.003 421.996c21.333 0 45.1709 2.83105 71.5039 8.49805s52.666 13.334 78.999 23.001
s52.166 21 77.499 34s47.666 26.5 66.999 40.5l-86 112.5l-79.5 112c-25.667 37.667 -50.834 76.5 -75.501 116.5l-74 126c-52 -74 -92.333 -145 -121 -213s-43 -132 -43 -192c0 -22.667 2.83301 -44.167 8.5 -64.5s15.5 -38.166 29.5 -53.499s32.833 -27.5 56.5 -36.5
s53.5 -13.5 89.5 -13.5zM1073.01 2641.99c-15.333 -23.333 -28.8311 -50.166 -40.498 -80.5c-11.667 -30.333 -21.5 -61.666 -29.5 -93.999s-14 -64.5 -18 -96.5s-6 -62 -6 -90c0 -36.667 2.5 -75.5 7.5 -116.5s12.667 -82.333 23 -124s23.166 -82.834 38.499 -123.501
s33.333 -79 54 -115c94 129.333 163.833 239.5 209.5 330.5s68.5 163.833 68.5 218.5c0 20.667 -3.33301 38.667 -10 54s-17.667 29.333 -33 42s-35.5 24.334 -60.5 35c-25 10.667 -55.833 21.667 -92.5 33c-40.667 14.667 -69.334 31.334 -86.001 50
c-16.667 18.667 -25 44.334 -25 77z" />
    <glyph glyph-name="quotesingle" unicode="'" horiz-adv-x="1208" 
d="M639 1573c45.333 158.667 79.166 312.167 101.499 460.5s33.5 288.5 33.5 420.5c0 38.667 -0.666992 78.5 -2 119.5s-6 84.167 -14 129.5c18.667 54 50 94.833 94 122.5s104 41.5 180 41.5c61.333 0 114.166 -10.333 158.499 -31s80.833 -46.667 109.5 -78
s49.834 -65.666 63.501 -103c13.667 -37.333 20.5 -73 20.5 -107c0 -55.333 -8.66699 -120.666 -26 -196c-17.333 -75.333 -43.333 -156 -78 -242s-78.167 -174.5 -130.5 -265.5s-113.166 -180.167 -182.499 -267.5c-24.667 -30.667 -53.167 -54.667 -85.5 -72
s-64.166 -26 -95.499 -26c-46.667 0 -80.834 8.5 -102.501 25.5s-36.5 39.833 -44.5 68.5z" />
    <glyph glyph-name="parenleft" unicode="(" horiz-adv-x="1946" 
d="M1257 385c0 -218 25.5 -407.665 76.5 -568.998s128.167 -288.333 231.5 -381c-0.666992 -32 -8.5 -61.667 -23.5 -89s-35.833 -51.166 -62.5 -71.499s-58.834 -36.333 -96.501 -48s-79.5 -17.5 -125.5 -17.5c-47.333 0 -95.166 7.66699 -143.499 23
s-94.833 40.166 -139.5 74.499s-86.334 79.166 -125.001 134.499s-72.5 122.833 -101.5 202.5s-51.667 172.667 -68 279s-24.5 227.833 -24.5 364.5c0 152 12.5 303.5 37.5 454.5s59.833 298.333 104.5 442s97.834 281.834 159.501 414.501s129 256.5 202 371.5
s150.5 219.833 232.5 314.5s165.667 175.834 251 243.501s171 120 257 157s169.667 55.5 251 55.5c63.333 0 108.666 -11.333 136 -34c27.333 -22.667 41 -53.667 41 -93c0 -14 -1.5 -26.667 -4.5 -38s-8.5 -23 -16.5 -35c-116.667 -60 -223.667 -136 -321 -228
s-184.833 -195 -262.5 -309s-145.5 -236.833 -203.5 -368.5s-106.5 -267.334 -145.5 -407.001s-68.167 -280.834 -87.5 -423.501s-29 -282.334 -29 -419.001z" />
    <glyph glyph-name="parenright" unicode=")" horiz-adv-x="1905" 
d="M1077 1573c0 108.667 -6.33984 210.665 -19.0068 305.998s-31.834 183 -57.501 263s-57.667 152 -96 216s-83.166 119 -134.499 165c1.33301 32 9.33301 61.667 24 89s35.334 51 62.001 71s58.667 35.833 96 47.5s79 17.5 125 17.5c48 0 96.167 -7.66699 144.5 -23
s94.833 -40.166 139.5 -74.499s86.334 -79 125.001 -134s72.334 -122.333 101.001 -202s51.167 -172.667 67.5 -279s24.5 -227.833 24.5 -364.5c0 -152 -12.5 -303.5 -37.5 -454.5s-59.833 -298.333 -104.5 -442s-97.667 -281.834 -159 -414.501
s-128.666 -256.5 -201.999 -371.5s-150.833 -219.833 -232.5 -314.5s-165.167 -175.834 -250.5 -243.501s-171.166 -120 -257.499 -157s-170.166 -55.5 -251.499 -55.5c-63.333 0 -108.5 11.333 -135.5 34s-40.5 53.667 -40.5 93c0 14 1.33301 26.667 4 38
s8.33398 23 17.001 35c116.667 60 223.5 136 320.5 228s184.333 195 262 309s145.667 236.833 204 368.5s106.833 267.334 145.5 407.001s67.667 280.834 87 423.501s29 282.334 29 419.001z" />
    <glyph glyph-name="asterisk" unicode="*" horiz-adv-x="2093" 
d="M1888 2707c0 -52.667 -11.9971 -119.828 -35.9971 -201.494c-24 -81.667 -59.667 -180.834 -107 -297.501c32.667 12 68.334 26 107.001 42s77 33 115 51s73.833 36.5 107.5 55.5s61.834 37.833 84.5 56.5c51.333 -18.667 90.666 -48 118 -88c27.333 -40 41 -86 41 -138
c0 -42 -10.833 -79.833 -32.5 -113.5s-55.167 -64 -100.5 -91s-103 -50.833 -173 -71.5s-153.667 -39.334 -251 -56.001c22.667 -42 44.667 -79.833 66 -113.5s43.5 -64.334 66.5 -92.001s47 -52.834 72 -75.501s52.5 -43.667 82.5 -63c6 -16 10.167 -32.5 12.5 -49.5
s3.5 -31.833 3.5 -44.5c0 -38 -9.5 -73.5 -28.5 -106.5s-43.833 -62 -74.5 -87s-65.334 -44.667 -104.001 -59s-77.334 -21.5 -116.001 -21.5c-46 0 -87.667 10 -125 30s-72 50.833 -104 92.5s-62.333 94.667 -91 159s-57.334 141.166 -86.001 230.499l-92 -108.5
c-24.667 -30.333 -45.5 -59 -62.5 -86s-31.167 -54.667 -42.5 -83s-22 -61.5 -32 -99.5c-20.667 -14.667 -44.334 -25.834 -71.001 -33.501s-53.667 -11.5 -81 -11.5c-38 0 -71.833 6 -101.5 18s-54.834 28.5 -75.501 49.5s-36.5 45.667 -47.5 74s-16.5 58.833 -16.5 91.5
c0 36 6.66699 70.167 20 102.5s34 65.5 62 99.5s64 70.333 108 109s96.667 82.667 158 132c-74 59.333 -141.333 105.333 -202 138s-117.667 56.334 -171 71c-16.667 22.667 -29.667 48.667 -39 78s-14 64.666 -14 106c0 41.333 7.66699 79.833 23 115.5
s35.666 66.834 60.999 93.5c25.333 26.667 54.833 47.667 88.5 63s68.834 23 105.501 23c28.667 0 57 -5.83301 85 -17.5s58 -30.334 90 -56c32 -25.667 67.333 -58.834 106 -99.5l133 -147c4 28 7.16699 59.5 9.5 94.5s4 70.667 5 107s1.5 71.333 1.5 105v87.5
c0 30.667 -1 66.5 -3 107.5s-5 80.167 -9 117.5c20.667 35.333 51 63.333 91 84s89 31 147 31c52 0 98 -8.5 138 -25.5s73.333 -39.667 100 -68s46.834 -60.666 60.501 -97c13.667 -36.333 20.5 -74.166 20.5 -113.5z" />
    <glyph glyph-name="plus" unicode="+" horiz-adv-x="2138" 
d="M758 1044c47.333 2.66699 92.334 5.66992 135.001 9.00293s83.667 6 123 8c10 52 19.5 108.167 28.5 168.5s16.833 120 23.5 179s12 115.333 16 169s6 99.834 6 138.501c16 20.667 39.167 36.167 69.5 46.5s62.833 15.5 97.5 15.5c37.333 0 72.5 -7 105.5 -21
s62.167 -34.833 87.5 -62.5s45.333 -62.167 60 -103.5s22 -89.666 22 -144.999c0 -12 -1.5 -30.667 -4.5 -56s-7.33301 -54.166 -13 -86.499s-12.667 -67 -21 -104s-17.5 -73.5 -27.5 -109.5c99.333 8 192.333 19 279 33s163 35.667 229 65c19.333 -6 36.333 -15.333 51 -28
s26.667 -27.334 36 -44.001s16.333 -34.334 21 -53.001s7 -37 7 -55c0 -49.333 -12.167 -93.333 -36.5 -132s-64.333 -72 -120 -100s-129 -51 -220 -69s-203.167 -31 -336.5 -39c-6.66699 -29.333 -14.667 -61.5 -24 -96.5l-29.5 -107.5l-31 -111l-30 -106.5l-26 -94
c-7.66699 -29 -13.834 -53.833 -18.501 -74.5c-10.667 -10.667 -28 -19.5 -52 -26.5s-50.667 -10.5 -80 -10.5c-59.333 0 -106.833 24.667 -142.5 74s-53.5 121.666 -53.5 216.999c0 19.333 1.16699 42.666 3.5 69.999s5.33301 56.166 9 86.499s8 60.666 13 90.999
s10.167 58.5 15.5 84.5c-46 0 -94 0.5 -144 1.5s-98.5 2.16699 -145.5 3.5s-91.167 3 -132.5 5s-77 4 -107 6c-14 12.667 -24.333 29.5 -31 50.5s-10 39.5 -10 55.5c0 30.667 7.16699 60.5 21.5 89.5s37.166 55.167 68.499 78.5s72.333 43 123 59s112.334 26.333 185.001 31
z" />
    <glyph glyph-name="comma" unicode="," horiz-adv-x="1593" 
d="M406 -422c49.333 26 96.833 55.666 142.5 88.999s86 67.5 121 102.5s63.167 69.333 84.5 103s32 63.834 32 90.501c0 22.667 -3.33301 45.167 -10 67.5s-18 44 -34 65s-37 41 -63 60s-58.333 36.833 -97 53.5c-12.667 22.667 -21.334 45.834 -26.001 69.501
s-7 46.834 -7 69.501c0 50 8.33301 96.833 25 140.5s40.5 81.5 71.5 113.5s68.5 57.167 112.5 75.5s93 27.5 147 27.5c64.667 0 123 -12.667 175 -38s96.333 -59.333 133 -102s64.834 -92.334 84.501 -149.001s29.5 -116 29.5 -178c0 -76 -11.5 -151 -34.5 -225
s-54 -144.667 -93 -212s-83.667 -129.5 -134 -186.5s-103 -106.5 -158 -148.5s-110.167 -74.833 -165.5 -98.5s-107.333 -35.5 -156 -35.5c-64 0 -112.167 15.167 -144.5 45.5s-48.5 71.166 -48.5 122.499c0 24 4.33301 50 13 78z" />
    <glyph glyph-name="hyphen" unicode="-" horiz-adv-x="1892" 
d="M881 1040l139.997 49.999c42.667 16 82.834 32 120.501 48s73.667 32.833 108 50.5s68.5 36.5 102.5 56.5s68.667 41.833 104 65.5l113 78.5c27.333 -1.33301 54 -9.16602 80 -23.499s49.167 -33.166 69.5 -56.499s36.666 -50 48.999 -80s18.5 -61.333 18.5 -94
c0 -68.667 -20.833 -129.334 -62.5 -182.001s-105.667 -99 -192 -139s-195.666 -74.5 -327.999 -103.5s-289.166 -54.167 -470.499 -75.5c-15.333 5.33301 -29.5 13.166 -42.5 23.499s-24.167 22.5 -33.5 36.5s-16.666 29.5 -21.999 46.5s-8 34.833 -8 53.5
c0 28.667 4 54.334 12 77.001s21.667 43.5 41 62.5s45.333 37 78 54s73.667 34.167 123 51.5z" />
    <glyph glyph-name="period" unicode="." horiz-adv-x="1520" 
d="M885 -70c-49.333 0 -94.3301 11.167 -134.997 33.5s-75.667 52.333 -105 90s-52 81.334 -68 131.001s-24 101.5 -24 155.5c0 50 12 95.833 36 137.5s56.167 77.5 96.5 107.5s86.666 53.333 138.999 70s106.5 25 162.5 25c47.333 0 88.833 -4.33301 124.5 -13
s65.5 -20.834 89.5 -36.501s42.167 -34.334 54.5 -56.001s18.5 -45.167 18.5 -70.5c0 -39.333 -4.5 -81 -13.5 -125s-21.833 -87.167 -38.5 -129.5s-36.667 -82.833 -60 -121.5s-49.333 -72.667 -78 -102s-59.834 -52.666 -93.501 -69.999s-68.834 -26 -105.501 -26z" />
    <glyph glyph-name="slash" unicode="/" horiz-adv-x="2212" 
d="M2101 2540c4 2 9.50098 3.16699 16.501 3.5s12.5 0.5 16.5 0.5c23.333 0 47 -6.33301 71 -19s45.667 -30.667 65 -54s35 -52 47 -86s18 -72.667 18 -116c0 -34 -2.66699 -67.833 -8 -101.5s-15 -70.167 -29 -109.5s-33.167 -82.5 -57.5 -129.5s-55.5 -100.667 -93.5 -161
s-83.667 -128.666 -137 -204.999l-188.5 -261l-247 -328.5l-312.5 -408l-167 -224c-48 -67.333 -89.333 -129.5 -124 -186.5s-63.834 -110 -87.501 -159s-42.834 -95.833 -57.501 -140.5s-25.667 -88.167 -33 -130.5s-12.333 -85.833 -15 -130.5
c-10 -16 -25.167 -28.833 -45.5 -38.5s-46.166 -14.5 -77.499 -14.5c-38 0 -71.167 7.5 -99.5 22.5s-52.166 35.167 -71.499 60.5s-33.833 54.166 -43.5 86.499s-14.5 66.166 -14.5 101.499c0 32.667 1.83301 64 5.5 94s11.167 61.667 22.5 95s27 69.833 47 109.5
s46.5 85.834 79.5 138.501s73 113.167 120 181.5l167.5 237.5l208.5 288.5l220 313l222.5 326l214.5 328.5l197 319c62.333 104 119.166 203 170.499 297z" />
    <glyph glyph-name="zero" unicode="0" horiz-adv-x="1679" 
d="M778 -29c-106.667 0 -200.338 14.3311 -281.005 42.998s-148.167 70.834 -202.5 126.501s-95.166 124.334 -122.499 206.001s-41 175.167 -41 280.5c0 93.333 11.5 188 34.5 284s54.167 188.5 93.5 277.5s85.333 172.5 138 250.5s108.834 146.167 168.501 204.5
s121 104.166 184 137.499s124.5 50 184.5 50c24.667 0 47.334 -3.5 68.001 -10.5s40.334 -19.833 59.001 -38.5c24.667 30.667 55.834 55.334 93.501 74.001s84.167 28 139.5 28c51.333 0 101.333 -13.667 150 -41s92 -68.333 130 -123s68.5 -123.167 91.5 -205.5
s34.5 -178.833 34.5 -289.5c0 -132.667 -12.167 -255.667 -36.5 -369s-58 -216.5 -101 -309.5s-93.833 -175.167 -152.5 -246.5s-122.167 -131.5 -190.5 -180.5s-140 -86 -215 -111s-150.5 -37.5 -226.5 -37.5zM679.996 744.998c0 -46.667 5.33398 -85.5 16.001 -116.5
s24 -55.833 40 -74.5s33.667 -31.667 53 -39s37.666 -11 54.999 -11c40 0 77.833 12.833 113.5 38.5s67 60.667 94 105s48.333 96 64 155s23.5 121.833 23.5 188.5c0 38 -3.5 78.833 -10.5 122.5s-17 86.334 -30 128.001s-28.5 80.5 -46.5 116.5s-38.333 65.333 -61 88
c-30.667 -24.667 -64.167 -59.834 -100.5 -105.501s-70 -99.167 -101 -160.5s-57 -128.833 -78 -202.5s-31.5 -151.167 -31.5 -232.5z" />
    <glyph glyph-name="one" unicode="1" horiz-adv-x="1196" 
d="M311 287c0 24.667 2.16504 50.832 6.49805 78.499s11.333 58.834 21 93.501s22.667 73.667 39 117s36.5 93 60.5 149l85 189l112 237c-16.667 -18.667 -37.667 -36.5 -63 -53.5s-51.166 -32.167 -77.499 -45.5s-51.666 -24 -75.999 -32s-43.833 -12 -58.5 -12
c-64 0 -112 18.5 -144 55.5s-48 94.833 -48 173.5c116 74 221 146.333 315 217s178.833 140.834 254.5 210.501s143.167 139.667 202.5 210s112 141.833 158 214.5c8 2 16.667 3.16699 26 3.5s17 0.5 23 0.5c39.333 0 73.5 -8.16699 102.5 -24.5
s53.167 -37.166 72.5 -62.499s33.833 -53.833 43.5 -85.5s14.5 -62.834 14.5 -93.501c0 -20 -1 -40 -3 -60s-5.33301 -42 -10 -66s-11.167 -50.833 -19.5 -80.5s-19 -64.167 -32 -103.5s-28.667 -84.166 -47 -134.499l-64.5 -174.5c-48 -130 -88.333 -251.667 -121 -365
s-59.167 -218.5 -79.5 -315.5s-35.5 -186 -45.5 -267s-16.667 -154.167 -20 -219.5c-14.667 -24.667 -37.667 -43.834 -69 -57.501s-76.666 -20.5 -135.999 -20.5c-60 0 -115.833 9.16699 -167.5 27.5s-96.334 42.666 -134.001 72.999s-67.167 65 -88.5 104
s-32 78.833 -32 119.5z" />
    <glyph glyph-name="two" unicode="2" horiz-adv-x="1585" 
d="M1622 1393c0 -50 -5.16113 -98.3291 -15.4941 -144.996s-28.5 -93.167 -54.5 -139.5s-60.833 -93.166 -104.5 -140.499s-98.834 -96.833 -165.501 -148.5s-146.167 -105.834 -238.5 -162.501s-199.833 -117.334 -322.5 -182.001c49.333 -30 92 -55 128 -75
s68.333 -36 97 -48s55 -20.5 79 -25.5s48.333 -7.5 73 -7.5c30.667 0 72.5 11.167 125.5 33.5s117.5 55.166 193.5 98.499c29.333 -14.667 53.166 -39.5 71.499 -74.5s27.5 -73.167 27.5 -114.5c0 -40.667 -9.66699 -81.334 -29 -122.001s-45 -79.334 -77 -116.001
s-69 -70.667 -111 -102s-86 -58.5 -132 -81.5s-92.333 -41 -139 -54s-90.334 -19.5 -131.001 -19.5c-34.667 0 -69.5 2.66699 -104.5 8s-71.5 14.333 -109.5 27s-78.5 29.334 -121.5 50.001s-90 46.667 -141 78s-106.667 68.166 -167 110.499l-200.5 147.5
c0 49.333 4.16699 93.666 12.5 132.999s24.333 77 48 113s56.5 71.667 98.5 107s97 73.333 165 114c125.333 74.667 229.666 142.5 312.999 203.5s150 117.833 200 170.5s85.5 102.834 106.5 150.501s31.5 95.5 31.5 143.5c0 58 -13.667 103.833 -41 137.5
s-62.666 50.5 -105.999 50.5c-20.667 0 -40.167 -7.33301 -58.5 -22s-35 -39.167 -50 -73.5s-28.167 -80 -39.5 -137s-20.666 -128.167 -27.999 -213.5c-8.66699 -6 -22.5 -11.667 -41.5 -17s-40.833 -8 -65.5 -8c-38 0 -72.667 6.16699 -104 18.5s-58 31.166 -80 56.499
s-39.167 57 -51.5 95s-18.5 82.333 -18.5 133c0 76 14.167 149.5 42.5 220.5s71.666 133.833 129.999 188.5s131.666 98.5 219.999 131.5s192.5 49.5 312.5 49.5c101.333 0 188.166 -14.667 260.499 -44s131.666 -68.833 177.999 -118.5s80.333 -107.167 102 -172.5
s32.5 -133.666 32.5 -204.999z" />
    <glyph glyph-name="three" unicode="3" horiz-adv-x="1589" 
d="M287 57c8 -54 23.4971 -103.333 46.4971 -148s50.833 -83 83.5 -115s68.5 -56.833 107.5 -74.5s78.5 -26.5 118.5 -26.5c56 0 100.667 13.5 134 40.5s50 65.167 50 114.5c0 38.667 -9.83301 78.834 -29.5 120.501s-52.667 85 -99 130s-107.666 91.667 -183.999 140
s-171.5 98.5 -285.5 150.5c0 55.333 9.66699 106.666 29 153.999s46 88.5 80 123.5s74.333 62.333 121 82s97 29.5 151 29.5c33.333 0 66.333 -4 99 -12c56 46 102.667 93.167 140 141.5s67.166 95.5 89.499 141.5s38 89.333 47 130s13.5 76.334 13.5 107.001
c0 28.667 -3.33301 54.834 -10 78.501s-16.334 44 -29.001 61s-27.834 30.167 -45.501 39.5s-37.167 14 -58.5 14c-20.667 0 -40 -7.33301 -58 -22s-34.5 -39.334 -49.5 -74.001s-28.333 -80.5 -40 -137.5s-21.167 -128.167 -28.5 -213.5c-8 -6 -21.5 -11.5 -40.5 -16.5
s-41.167 -7.5 -66.5 -7.5c-38 0 -72.5 6.16699 -103.5 18.5s-57.667 31 -80 56s-39.666 56.5 -51.999 94.5s-18.5 82.667 -18.5 134c0 76 15.333 150 46 222s76.334 136.167 137.001 192.5s136.167 101.666 226.5 135.999s195.5 51.5 315.5 51.5
c101.333 0 188.833 -15.333 262.5 -46s134.5 -71.667 182.5 -123s83.5 -110.166 106.5 -176.499s34.5 -135.5 34.5 -207.5c0 -63.333 -9.83301 -126 -29.5 -188s-51.667 -123.5 -96 -184.5s-102.166 -122.167 -173.499 -183.5s-158.666 -123.333 -261.999 -186
c70.667 -44 128.334 -89.333 173.001 -136s79.667 -93.667 105 -141s42.666 -95 51.999 -143s14 -95 14 -141c0 -114.667 -20.333 -219.834 -61 -315.501s-98.167 -178 -172.5 -247s-163.5 -122.833 -267.5 -161.5s-219.667 -58 -347 -58c-102 0 -193.833 13 -275.5 39
s-150.834 60.833 -207.501 104.5s-100.167 94.167 -130.5 151.5s-45.5 117.333 -45.5 180c0 55.333 8 104 24 146s37 77 63 105s55.667 49.167 89 63.5s67.333 21.5 102 21.5c18.667 0 36.334 -2.16699 53.001 -6.5s33.334 -11.833 50.001 -22.5z" />
    <glyph glyph-name="four" unicode="4" horiz-adv-x="1761" 
d="M1614 471c28.667 -14.667 52.834 -37.334 72.501 -68.001s29.5 -66.667 29.5 -108c0 -42 -8.5 -82.667 -25.5 -122s-42 -75.5 -75 -108.5s-73.667 -62.167 -122 -87.5s-103.833 -45 -166.5 -59c-7.33301 -65.333 -14 -127.666 -20 -186.999s-11.167 -114 -15.5 -164
s-7.66602 -95 -9.99902 -135s-3.5 -73.333 -3.5 -100c-14.667 -34.667 -38.167 -60.334 -70.5 -77.001s-78.5 -25 -138.5 -25c-58 0 -114.333 8.5 -169 25.5s-103.167 40.333 -145.5 70s-76.333 64.167 -102 103.5s-38.5 81 -38.5 125c0 20 1.5 41.333 4.5 64
s8 49.334 15 80.001s16.333 67 28 109l43.5 152c-107.333 30.667 -217.5 74 -330.5 130s-220.167 123.333 -321.5 202c-4 22.667 -7 45.667 -9 69s-3 45.333 -3 66c0 34.667 3.66699 68.167 11 100.5s19.666 64 36.999 95s40.5 61.667 69.5 92s64.833 61.5 107.5 93.5
c142.667 104.667 275.667 212.5 399 323.5s235 218.667 335 323s187.5 201.5 262.5 291.5s134.833 166.333 179.5 229c8 2 15.167 3.16699 21.5 3.5s12.833 0.5 19.5 0.5c36.667 0 70.5 -6.33301 101.5 -19s57.833 -30.667 80.5 -54s40.334 -51.333 53.001 -84
s19 -69 19 -109c0 -30 -1.5 -60.833 -4.5 -92.5s-8.83301 -67 -17.5 -106s-20.5 -83.333 -35.5 -133s-34.167 -107.167 -57.5 -172.5c-26.667 -76 -50.834 -149.333 -72.501 -220s-41.667 -140 -60 -208s-35 -135.333 -50 -202s-29.167 -133.667 -42.5 -201
c36.667 8 72.167 19.5 106.5 34.5s71.166 34.833 110.499 59.5zM541 614l72.5 -39.5c23.667 -12.333 47.667 -24 72 -35s49.166 -21.5 74.499 -31.5s52 -19.667 80 -29c22.667 95.333 49.334 193.833 80.001 295.5s66.667 209.5 108 323.5l-107.5 -122
c-35 -38.667 -71.5 -77 -109.5 -115l-123 -117.5z" />
    <glyph glyph-name="five" unicode="5" horiz-adv-x="1520" 
d="M1417 61c0 -114.667 -20.5029 -220 -61.5029 -316s-99 -178.833 -174 -248.5s-164.667 -124 -269 -163s-220.166 -58.5 -347.499 -58.5c-102 0 -193.833 13 -275.5 39s-150.834 60.833 -207.501 104.5s-100.167 94.167 -130.5 151.5s-45.5 117.333 -45.5 180
c0 55.333 8 104 24 146s37 77 63 105s55.667 49.167 89 63.5s67.333 21.5 102 21.5c18.667 0 36.334 -2.16699 53.001 -6.5s33.334 -11.833 50.001 -22.5c8 -54 23.5 -103.333 46.5 -148s50.833 -83 83.5 -115s68.5 -56.833 107.5 -74.5s78.5 -26.5 118.5 -26.5
c56 0 100.667 13.5 134 40.5s50 65.167 50 114.5c0 38.667 -8.33301 76.667 -25 114s-41.167 75 -73.5 113s-72.166 77.5 -119.499 118.5s-101.666 84.5 -162.999 130.5c-46 4 -84.667 9.5 -116 16.5s-56.5 15.333 -75.5 25s-32.667 20.667 -41 33s-12.5 25.5 -12.5 39.5
c0 6.66699 0.833008 13.167 2.5 19.5l5.5 21.5c34 97.333 66 199.333 96 306s57.5 211.5 82.5 314.5s46.833 200.667 65.5 293s33 172.833 43 241.5c7.33301 49.333 14.833 89 22.5 119s16.667 53.333 27 70s22.666 27.667 36.999 33s31.833 8 52.5 8
c13.333 0 30.166 -3.16699 50.499 -9.5s43.166 -14.166 68.499 -23.499l81.5 -30.5c29 -11 58.833 -21.167 89.5 -30.5s61.334 -17.166 92.001 -23.499s60.334 -9.5 89.001 -9.5c32.667 0 68.834 1.16699 108.501 3.5s80 5.66602 121 9.99902s81.333 9.5 121 15.5
s75.834 12.667 108.501 20c15.333 -8 29.166 -19 41.499 -33s23 -29.5 32 -46.5s16 -34.833 21 -53.5s7.5 -37.334 7.5 -56.001c0 -57.333 -13.333 -112.833 -40 -166.5s-62.5 -101.167 -107.5 -142.5s-97.167 -74.5 -156.5 -99.5s-121.666 -37.5 -186.999 -37.5
c-24.667 0 -48.834 1.66699 -72.501 5s-48.667 8.83301 -75 16.5s-55 17.834 -86 30.501s-66.5 28 -106.5 46c-7.33301 -32 -16.5 -66.333 -27.5 -103s-22.667 -73.334 -35 -110.001s-25.333 -72.334 -39 -107.001s-26.5 -65.667 -38.5 -93
c135.333 -55.333 249 -113.166 341 -173.499s166.167 -123 222.5 -188s96.666 -132 120.999 -201s36.5 -139.833 36.5 -212.5z" />
    <glyph glyph-name="six" unicode="6" horiz-adv-x="1638" 
d="M799 729c0 -46.667 3.49902 -85.167 10.499 -115.5s16.5 -54.166 28.5 -71.499s26 -29.333 42 -36s32.667 -10 50 -10c20.667 0 39.834 5.5 57.501 16.5s33.167 27.667 46.5 50s23.833 50.833 31.5 85.5s11.5 75.334 11.5 122.001c0 44 -3.5 89 -10.5 135
s-17.167 91.667 -30.5 137s-30 89.666 -50 132.999s-42.667 84.333 -68 123c-35.333 -88.667 -64 -179.834 -86 -273.501s-33 -192.167 -33 -295.5zM1987 2200c0 -23.333 -4.33691 -44.166 -13.0039 -62.5c-8.66699 -18.333 -18 -31.833 -28 -40.5
c-88.667 0 -169.167 -7 -241.5 -21s-138.333 -34 -198 -60s-113.834 -57.333 -162.501 -94s-93.5 -77.834 -134.5 -123.501s-79.333 -95 -115 -148s-70.167 -108.833 -103.5 -167.5c24.667 28.667 56.5 50.834 95.5 66.501s86.5 23.5 142.5 23.5
c30 0 61.333 -4.33301 94 -13s64.834 -22.5 96.501 -41.5s61.667 -43.833 90 -74.5s53.333 -67.834 75 -111.501s38.834 -94.5 51.501 -152.5s19 -123.667 19 -197c0 -93.333 -11.333 -183.166 -34 -269.499s-54.167 -167 -94.5 -242s-87.833 -143.333 -142.5 -205
s-114 -114.334 -178 -158.001s-131.333 -77.5 -202 -101.5s-141.667 -36 -213 -36c-198.667 0 -348 63.833 -448 191.5s-150 324.834 -150 591.501c0 95.333 9.83301 192.5 29.5 291.5s47.834 197 84.501 294s80.834 191.667 132.501 284s109.334 179.5 173.001 261.5
s132.667 157.333 207 226s152.333 127.667 234 177s166.167 87.833 253.5 115.5s176 41.5 266 41.5c72 0 134 -5.83301 186 -17.5s94.833 -28.334 128.5 -50c33.667 -21.667 58.667 -47.5 75 -77.5s24.5 -63.333 24.5 -100z" />
    <glyph glyph-name="seven" unicode="7" horiz-adv-x="1528" 
d="M811 1872c60.667 0 123.332 -6.99707 187.999 -20.9971s131.334 -29.5 200.001 -46.5s139 -32.5 211 -46.5s145.333 -21 220 -21c15.333 -8 29.333 -19 42 -33s23.5 -29.5 32.5 -46.5s16 -34.833 21 -53.5s7.5 -37.334 7.5 -56.001c0 -42.667 -10.333 -89.5 -31 -140.5
s-48.5 -106.167 -83.5 -165.5s-75.5 -123 -121.5 -191l-146 -219.5l-157 -250c-53.333 -88.333 -104.666 -182.5 -153.999 -282.5c-53.333 -108.667 -97.333 -209.667 -132 -303s-62.334 -181.333 -83.001 -264s-35 -160.5 -43 -233.5s-12 -143.5 -12 -211.5
c-14.667 -34.667 -38.167 -60.334 -70.5 -77.001s-78.5 -25 -138.5 -25c-55.333 0 -108.333 13 -159 39s-95.5 60.167 -134.5 102.5s-70.167 90.166 -93.5 143.499s-35 107 -35 161c0 27.333 3.16699 56.166 9.5 86.499s17 64.166 32 101.499s35.167 79.333 60.5 126
s57.166 99.834 95.499 159.501l136 202l183 253.5l236.5 314l296 383c-42 7.33301 -84.167 14.166 -126.5 20.499s-83 12 -122 17s-75.167 9 -108.5 12s-62 4.5 -86 4.5c-24.667 0 -46.834 -5.66699 -66.501 -17s-38.167 -29 -55.5 -53s-33.666 -54.833 -48.999 -92.5
s-30.666 -83.167 -45.999 -136.5c-4 -2 -11.833 -3.83301 -23.5 -5.5s-22.834 -2.5 -33.501 -2.5c-25.333 0 -50.666 6 -75.999 18s-48.166 29.833 -68.499 53.5s-36.833 52.834 -49.5 87.501s-19 74.334 -19 119.001c0 76 13.833 149.333 41.5 220
s66.167 133.5 115.5 188.5s107.666 99 174.999 132s141 49.5 221 49.5z" />
    <glyph glyph-name="eight" unicode="8" horiz-adv-x="1597" 
d="M397 1663c0 59.333 7.66797 119.498 23.001 180.498s38 120 68 177s67 110.667 111 161s94.833 94 152.5 131s122 66.333 193 88s148.167 32.5 231.5 32.5c71.333 0 139 -12.5 203 -37.5s120 -60.833 168 -107.5s86.167 -103.667 114.5 -171s42.5 -143.666 42.5 -228.999
c0 -78 -14.5 -151.167 -43.5 -219.5s-66.333 -128.166 -112 -179.499s-96.334 -91.833 -152.001 -121.5s-110.167 -44.5 -163.5 -44.5c-6 0 -13.833 0.166992 -23.5 0.5s-19.5 1.5 -29.5 3.5c71.333 -90 129.833 -170 175.5 -240s81.5 -133.333 107.5 -190
s44 -107.667 54 -153s15 -88.666 15 -129.999c0 -102 -19 -196.5 -57 -283.5s-92.167 -162.333 -162.5 -226s-155.5 -113.334 -255.5 -149.001s-212 -53.5 -336 -53.5c-104.667 0 -198 14.333 -280 43s-151.5 67.334 -208.5 116.001s-100.5 105.5 -130.5 170.5
s-45 133.833 -45 206.5c0 61.333 9.66699 121.333 29 180s49.333 118 90 178s92.167 122.167 154.5 186.5s136.5 132.833 222.5 205.5c-21.333 32.667 -41.5 67 -60.5 103s-35.5 73.667 -49.5 113s-25.167 80.666 -33.5 123.999s-12.5 88.333 -12.5 135zM598.001 626.998
c0 -53.333 6.49805 -97.167 19.498 -131.5s29.167 -61.5 48.5 -81.5s40.5 -34 63.5 -42s44.833 -12 65.5 -12c15.333 0 29.833 2.66699 43.5 8s25.834 13.5 36.501 24.5s19 25 25 42s9 37.5 9 61.5c0 26.667 -2.5 53 -7.5 79s-15 55.5 -30 88.5s-36.5 71.833 -64.5 116.5
s-65 98.667 -111 162c-17.333 -32 -32.166 -63.833 -44.499 -95.5s-22.5 -61.5 -30.5 -89.5s-13.833 -53.333 -17.5 -76s-5.5 -40.667 -5.5 -54zM1073 1450c18.667 32 34.168 62.4971 46.501 91.4971s22.333 57.667 30 86s13.167 56.833 16.5 85.5s5 58.334 5 89.001
c0 28.667 -3 55.834 -9 81.501s-14.5 48.334 -25.5 68.001s-24.333 35.167 -40 46.5s-33.167 17 -52.5 17c-32.667 0 -59.334 -17.667 -80.001 -53s-32 -87.333 -34 -156c0 -42.667 10.667 -93.667 32 -153s58.333 -127 111 -203z" />
    <glyph glyph-name="nine" unicode="9" horiz-adv-x="1602" 
d="M1024 1151c0 42 -3.16504 79.832 -9.49805 113.499s-15 62.5 -26 86.5s-24 42.333 -39 55s-31.167 19 -48.5 19c-20.667 0 -40.5 -8.5 -59.5 -25.5s-36 -40.167 -51 -69.5s-27 -64.166 -36 -104.499s-13.5 -84.166 -13.5 -131.499c0 -38.667 3.33301 -76.667 10 -114
s17.834 -73.833 33.501 -109.5s36 -71 61 -106s55.833 -70.167 92.5 -105.5c17.333 49.333 31.666 97.666 42.999 144.999s20.166 92.333 26.499 135s10.666 82 12.999 118s3.5 67.333 3.5 94zM-171.998 -406.001c0 25.333 4.49902 52.6641 13.499 81.9971
s24.833 55.333 47.5 78c100.667 4.66699 189.334 14.5 266.001 29.5s144.167 34.167 202.5 57.5s109.333 51 153 83s82.5 67.5 116.5 106.5s65 81.333 93 127s55.667 94.167 83 145.5c-101.333 0 -191.666 14.167 -270.999 42.5s-146.166 67.666 -200.499 117.999
s-95.833 110.333 -124.5 180s-43 145.834 -43 228.501c0 94 11.333 184.167 34 270.5s54.167 167 94.5 242s87.833 143.167 142.5 204.5s114 113.833 178 157.5s131.333 77.5 202 101.5s141.667 36 213 36c89.333 0 169.333 -16.333 240 -49s130.834 -81.667 180.501 -147
s87.667 -146.833 114 -244.5s39.5 -211.5 39.5 -341.5c0 -133.333 -12 -261.833 -36 -385.5s-57.333 -241 -100 -352s-93 -215.167 -151 -312.5s-120.833 -186.666 -188.5 -267.999s-139 -154 -214 -218s-150.667 -118.167 -227 -162.5s-151.833 -78.166 -226.5 -101.499
s-145.667 -35 -213 -35c-66.667 0 -125.834 7.83301 -177.501 23.5s-95.334 37.834 -131.001 66.501s-62.834 63 -81.501 103s-28 84.667 -28 134z" />
    <glyph glyph-name="colon" unicode=":" horiz-adv-x="1815" 
d="M938 -70c-49.333 0 -94.3301 11.1621 -134.997 33.4951s-75.667 52.333 -105 90s-52 81.334 -68 131.001s-24 101.5 -24 155.5c0 50 5.83301 95.833 17.5 137.5s29 77.5 52 107.5s51.667 53.333 86 70s74.166 25 119.499 25c40 0 78.667 -6.5 116 -19.5
s72.166 -30 104.499 -51s61.833 -44.667 88.5 -71s49.667 -53.166 69 -80.499s34.166 -53.833 44.499 -79.5s15.5 -48.167 15.5 -67.5c0 -27.333 -4.33301 -55.666 -13 -84.999s-21 -58.166 -37 -86.499s-35.333 -55.166 -58 -80.499s-48 -47.5 -76 -66.5
s-58.667 -34.167 -92 -45.5s-68.333 -17 -105 -17zM1274 933.995c-32.667 0 -63.668 7 -93.001 21s-56.333 33 -81 57s-46.667 52 -66 84s-35.833 66 -49.5 102s-24.167 73.167 -31.5 111.5s-11 75.5 -11 111.5c0 42 5.5 80.333 16.5 115s28.667 64.5 53 89.5
s56 44.333 95 58s86.5 20.5 142.5 20.5c55.333 0 104.166 -7.66699 146.499 -23s77.833 -35.833 106.5 -61.5s50.334 -55.667 65.001 -90s22 -70.5 22 -108.5c0 -74.667 -8.66699 -142 -26 -202s-40.666 -111.167 -69.999 -153.5s-62.833 -74.833 -100.5 -97.5
s-77.167 -34 -118.5 -34z" />
    <glyph glyph-name="semicolon" unicode=";" horiz-adv-x="1815" 
d="M1233 954c-32.667 0 -62.502 7 -89.502 21s-51.167 32.833 -72.5 56.5s-39.833 51.334 -55.5 83.001s-28.667 65.5 -39 101.5s-18 73 -23 111s-7.5 75 -7.5 111c0 42 4.5 79.667 13.5 113s24 61.666 45 84.999s48.833 41.166 83.5 53.499s77.667 18.5 129 18.5
c36.667 0 71.334 -5.16699 104.001 -15.5s62.834 -24.166 90.501 -41.499s52.5 -37.5 74.5 -60.5s40.667 -47.333 56 -73s27 -52 35 -79s12 -53.167 12 -78.5c0 -54 -9.16699 -105.667 -27.5 -155s-43.5 -92.5 -75.5 -129.5s-69.667 -66.5 -113 -88.5s-90 -33 -140 -33z
M433.998 -365l137 76.499c44 25 82.833 50.167 116.5 75.5s60.667 50.5 81 75.5s30.5 50.5 30.5 76.5c0 40.667 -20.167 83.667 -60.5 129s-99.5 85.333 -177.5 120c-8 18.667 -14 37.834 -18 57.501s-6 38.834 -6 57.501c0 39.333 8 77.333 24 114
s39.167 69.334 69.5 98.001s67.666 51.667 111.999 69s94.5 26 150.5 26s109.833 -9.33301 161.5 -28s97 -44.834 136 -78.501s70.167 -73.5 93.5 -119.5s35 -96.333 35 -151c0 -82.667 -11.5 -160.5 -34.5 -233.5s-53.667 -140.333 -92 -202
s-82.166 -116.834 -131.499 -165.501s-100.5 -90.167 -153.5 -124.5s-105.5 -60.5 -157.5 -78.5s-100 -27 -144 -27c-62 0 -108.167 14 -138.5 42s-45.5 66 -45.5 114c0 23.333 4 49 12 77z" />
    <glyph glyph-name="semicolon" unicode="&#x37e;" horiz-adv-x="1815" 
d="M1233 954c-32.667 0 -62.502 7 -89.502 21s-51.167 32.833 -72.5 56.5s-39.833 51.334 -55.5 83.001s-28.667 65.5 -39 101.5s-18 73 -23 111s-7.5 75 -7.5 111c0 42 4.5 79.667 13.5 113s24 61.666 45 84.999s48.833 41.166 83.5 53.499s77.667 18.5 129 18.5
c36.667 0 71.334 -5.16699 104.001 -15.5s62.834 -24.166 90.501 -41.499s52.5 -37.5 74.5 -60.5s40.667 -47.333 56 -73s27 -52 35 -79s12 -53.167 12 -78.5c0 -54 -9.16699 -105.667 -27.5 -155s-43.5 -92.5 -75.5 -129.5s-69.667 -66.5 -113 -88.5s-90 -33 -140 -33z
M433.998 -365l137 76.499c44 25 82.833 50.167 116.5 75.5s60.667 50.5 81 75.5s30.5 50.5 30.5 76.5c0 40.667 -20.167 83.667 -60.5 129s-99.5 85.333 -177.5 120c-8 18.667 -14 37.834 -18 57.501s-6 38.834 -6 57.501c0 39.333 8 77.333 24 114
s39.167 69.334 69.5 98.001s67.666 51.667 111.999 69s94.5 26 150.5 26s109.833 -9.33301 161.5 -28s97 -44.834 136 -78.501s70.167 -73.5 93.5 -119.5s35 -96.333 35 -151c0 -82.667 -11.5 -160.5 -34.5 -233.5s-53.667 -140.333 -92 -202
s-82.166 -116.834 -131.499 -165.501s-100.5 -90.167 -153.5 -124.5s-105.5 -60.5 -157.5 -78.5s-100 -27 -144 -27c-62 0 -108.167 14 -138.5 42s-45.5 66 -45.5 114c0 23.333 4 49 12 77z" />
    <glyph glyph-name="less" unicode="&#x3c;" horiz-adv-x="1905" 
d="M635 688c-31.333 -6 -62.167 -10.8311 -92.5 -14.498s-60.833 -5.5 -91.5 -5.5c-37.333 0 -65.833 8 -85.5 24s-29.5 40.667 -29.5 74c0 39.333 10 77.166 30 113.499s48.833 70.5 86.5 102.5s83.5 61.333 137.5 88s115.333 49.667 184 69
c152.667 98.667 304 212.167 454 340.5s300.333 272.833 451 433.5c24.667 -2.66699 46.5 -10.167 65.5 -22.5s34.833 -27.333 47.5 -45s22.334 -37.334 29.001 -59.001s10 -43.834 10 -66.501c0 -44 -9.83301 -92.833 -29.5 -146.5s-53.834 -112.667 -102.501 -177
s-114 -134.5 -196 -210.5s-185.667 -158.667 -311 -248c76 -63.333 139.5 -123 190.5 -179s92.167 -109.167 123.5 -159.5s53.666 -98.666 66.999 -144.999s20 -91.5 20 -135.5c0 -46.667 -7.66699 -91.834 -23 -135.501s-35.833 -82 -61.5 -115s-55.5 -59.5 -89.5 -79.5
s-70 -30 -108 -30c-22.667 0 -44.667 4 -66 12c-11.333 28 -24.166 55.833 -38.499 83.5s-32 57 -53 88s-46 64.333 -75 100s-64.333 75.334 -106 119.001l-145.5 146z" />
    <glyph glyph-name="equal" unicode="=" horiz-adv-x="2138" 
d="M684 647c104 7.33301 195.832 13.5 275.499 18.5s150.667 9.66699 213 14s117.833 9 166.5 14s93.834 11.5 135.501 19.5s81.5 17.833 119.5 29.5s77.333 26.167 118 43.5c41.333 -10 72.833 -30.5 94.5 -61.5s32.5 -69.167 32.5 -114.5
c0 -63.333 -16.667 -117.833 -50 -163.5s-83 -83 -149 -112s-148 -50.333 -246 -64s-211.667 -20.5 -341 -20.5c-28 0 -60.167 0.666992 -96.5 2s-74.833 3.33301 -115.5 6l-125.5 8c-43 2.66699 -84.667 5.66699 -125 9s-78.5 6.33301 -114.5 9l-95 7
c-7.33301 6 -13.5 13.333 -18.5 22s-9.16699 18 -12.5 28s-5.83301 19.833 -7.5 29.5s-2.5 18.5 -2.5 26.5c0 30.667 6 60.167 18 88.5s31.5 53.833 58.5 76.5s62.5 41.5 106.5 56.5s97.667 24.5 161 28.5zM806.999 1462c104 7.33301 196.832 13.502 278.499 18.502l221 14
c65.667 4.33301 124.5 9 176.5 14s100.333 11.5 145 19.5s86.834 17.833 126.501 29.5s80.167 26.5 121.5 44.5c41.333 -10.667 72.833 -31.334 94.5 -62.001s32.5 -69 32.5 -115c0 -63.333 -18.833 -117.833 -56.5 -163.5s-92.167 -83 -163.5 -112s-158 -50.333 -260 -64
s-217.667 -20.5 -347 -20.5c-28 0 -61.333 0.666992 -100 2s-79.834 3.33301 -123.501 6l-134.5 8c-46 2.66699 -90.833 5.66699 -134.5 9l-122.5 9l-98 7c-7.33301 6 -13.5 13.333 -18.5 22s-9.16699 18 -12.5 28s-5.83301 19.833 -7.5 29.5s-2.5 18.5 -2.5 26.5
c0 30.667 7 60 21 88s36.333 53.167 67 75.5s70.334 41.166 119.001 56.499s108 25.333 178 30z" />
    <glyph glyph-name="greater" unicode="&#x3e;" horiz-adv-x="1905" 
d="M1483 1122c30.667 6.66699 61.333 11.835 92 15.502s61.334 5.5 92.001 5.5c37.333 0 65.833 -8.16699 85.5 -24.5s29.5 -41.166 29.5 -74.499c0 -38.667 -10 -76.167 -30 -112.5s-48.833 -70.5 -86.5 -102.5s-83.667 -61.333 -138 -88s-115.833 -49.667 -184.5 -69
c-152.667 -99.333 -304 -213 -454 -341s-300.333 -272.333 -451 -433c-24.667 2.66699 -46.334 10 -65.001 22s-34.334 26.833 -47.001 44.5s-22.334 37.334 -29.001 59.001s-10 43.834 -10 66.501c0 44 9.83301 92.833 29.5 146.5s53.834 112.667 102.501 177
s114.167 134.666 196.5 210.999s185.833 158.833 310.5 247.5c-76 63.333 -139.667 123 -191 179s-92.666 109.333 -123.999 160s-53.666 99 -66.999 145s-20 91 -20 135c0 47.333 7.66699 92.666 23 135.999s35.833 81.5 61.5 114.5s55.667 59.5 90 79.5s70.5 30 108.5 30
c10 0 20.833 -1 32.5 -3s22.5 -5 32.5 -9c12 -28 25.167 -55.833 39.5 -83.5s31.833 -56.834 52.5 -87.501s45.667 -63.834 75 -99.501s64.666 -75.334 105.999 -119.001l145 -146.5z" />
    <glyph glyph-name="question" unicode="?" horiz-adv-x="2048" 
d="M1012 -53c-49.333 0 -98.6689 8.5 -148.002 25.5s-93.666 41.333 -132.999 73s-71.333 69.667 -96 114s-37 93.5 -37 147.5c0 44 11.667 88.167 35 132.5s54.833 84.333 94.5 120s85.834 64.667 138.501 87s108 33.5 166 33.5c47.333 0 87.5 -5.33301 120.5 -16
s60 -26 81 -46s36.333 -44.167 46 -72.5s14.5 -59.833 14.5 -94.5c0 -72 -6.16699 -138.667 -18.5 -200s-30.5 -114.5 -54.5 -159.5s-53.5 -80.333 -88.5 -106s-75.167 -38.5 -120.5 -38.5zM1438 1315c-10.667 -33.333 -18.165 -67.501 -22.498 -102.501
s-6.5 -73.167 -6.5 -114.5c0 -40.667 4 -85.667 12 -135c-6.66699 -11.333 -15.667 -22 -27 -32s-25 -18.667 -41 -26s-34.833 -13.166 -56.5 -17.499s-46.834 -6.5 -75.501 -6.5c-42.667 0 -83 9 -121 27s-71.167 42.833 -99.5 74.5s-50.666 68.667 -66.999 111
s-24.5 87.5 -24.5 135.5c0 32.667 4.83301 64 14.5 94s27.5 61 53.5 93s61.5 66.167 106.5 102.5s102.833 77.5 173.5 123.5l174 118.5c48.667 34.333 90.167 65.333 124.5 93s62.166 52.5 83.499 74.5s38 42.833 50 62.5s20.167 39 24.5 58s6.5 39.167 6.5 60.5
c0 16.667 -3.33301 33.667 -10 51s-19.5 33.166 -38.5 47.5c-19 14.333 -45.5 26.166 -79.5 35.5c-34 9.33301 -78.667 14 -134 14c-18.667 0 -40.167 -0.5 -64.5 -1.5s-50.166 -2.5 -77.499 -4.5s-55.5 -4.66699 -84.5 -8s-57.167 -7 -84.5 -11
c-20.667 10 -38.5 23.167 -53.5 39.5s-27.333 34.5 -37 54.5s-16.834 41.333 -21.501 64s-7 45.334 -7 68c0 64.667 12.833 126.334 38.5 185c25.667 58.667 62.667 110.334 111 155c48.333 44.667 107.833 80.334 178.5 107c70.667 26.667 151 40 241 40
c68.667 0 134.5 -8.5 197.5 -25.5s122 -40.833 177 -71.5s105 -67.334 150 -110c45 -42.667 83.667 -89.667 116 -141s57.333 -106.5 75 -165.5s26.5 -119.833 26.5 -182.5c0 -45.333 -4 -87 -12 -125s-23.667 -76.167 -47 -114.5s-55.666 -78.833 -97 -121.5
c-41.333 -42.667 -95.333 -91 -162 -145s-147.834 -115.833 -243.501 -185.5z" />
    <glyph glyph-name="at" unicode="@" horiz-adv-x="3858" 
d="M2294 1421c-46 -29.333 -88.833 -69.333 -128.5 -120s-74 -107.5 -103 -170.5s-51.667 -130 -68 -201s-24.5 -141.833 -24.5 -212.5c0 -26 1.83301 -47.333 5.5 -64s9 -30 16 -40s15.5 -17 25.5 -21s21.667 -6 35 -6c24.667 0 47.167 6.5 67.5 19.5
s38.833 30.833 55.5 53.5zM3256 1532c0 118.667 -18.3369 227.329 -55.0039 325.996s-89.834 183.334 -159.5 254.001c-69.667 70.667 -155.334 125.5 -257 164.5c-101.667 39 -217.5 58.5 -347.5 58.5c-103.333 0 -203.166 -14.167 -299.5 -42.5
c-96.333 -28.333 -188 -67.833 -275 -118.5s-168.833 -111 -245.5 -181s-147.167 -146.5 -211.5 -229.5s-121.833 -171.333 -172.5 -265s-93.667 -189.334 -129 -287.001s-62.333 -196 -81 -295s-28 -195.5 -28 -289.5c0 -173.333 20.333 -327 61 -461
s99.667 -246.667 177 -338s172.166 -160.666 284.499 -207.999s240.166 -71 383.499 -71c60 0 119.5 5.66699 178.5 17s118 29.833 177 55.5s118.667 59.167 179 100.5s122.166 91.666 185.5 150.999c41.333 -8 72.833 -24.667 94.5 -50s32.5 -56.333 32.5 -93
c0 -44 -13.167 -91.667 -39.5 -143s-63.166 -102.833 -110.5 -154.5c-47.333 -51.667 -103.5 -101.5 -168.5 -149.5s-136 -90.5 -213 -127.5s-158.667 -66.667 -245 -89s-174.166 -33.5 -263.499 -33.5c-128.667 0 -248.167 15.167 -358.5 45.5s-210.5 74 -300.5 131
s-169.667 126.667 -239 209s-127.5 175.333 -174.5 279s-82.667 217.334 -107 341.001s-36.5 255.5 -36.5 395.5c0 148 14.5 294.833 43.5 440.5s70.333 287.334 124 425.001s118.334 269.667 194.001 396s160.334 244.333 254.001 354s195 209.167 304 298.5
s223.333 165.833 343 229.5s243.834 112.834 372.501 147.5c128.667 34.667 259.334 52 392 52c191.333 0 361.666 -26 511 -78c149.333 -52 275.333 -127.167 378 -225.5s180.834 -218.5 234.5 -360.5c53.667 -142 80.5 -303 80.5 -483c0 -85.333 -9.83301 -174 -29.5 -266
s-47.5 -184 -83.5 -276s-79 -182.5 -129 -271.5s-105.5 -173.5 -166.5 -253.5s-126.333 -154 -196 -222s-142.167 -126.667 -217.5 -176s-152.5 -87.833 -231.5 -115.5s-157.833 -41.5 -236.5 -41.5c-40.667 0 -78.167 5.16699 -112.5 15.5s-63.833 28 -88.5 53
s-43.834 58.167 -57.5 99.5c-13.667 41.333 -20.5 93.333 -20.5 156c0 18.667 1 39.167 3 61.5s4 42.833 6 61.5c-28.667 -84 -60.834 -153.833 -96.5 -209.5c-35.667 -55.667 -72.334 -100.334 -110.001 -134.001s-75 -57.334 -112 -71.001s-71.5 -20.5 -103.5 -20.5
c-52 0 -100.833 12.5 -146.5 37.5s-85.167 60.667 -118.5 107s-59.666 103 -78.999 170s-29 142.5 -29 226.5c0 58 6.16699 118.5 18.5 181.5s29.666 126.333 51.999 190s49.333 126.5 81 188.5s66.834 121 105.501 177s80.334 107.833 125.001 155.5
s91.334 88.834 140.001 123.501s98.667 61.834 150 81.501s103 29.5 155 29.5c27.333 0 51.333 -2.33301 72 -7s35 -12 43 -22l25 274c7.33301 8 17.666 15.167 31 21.5c13.333 6.33301 27.833 11.5 43.5 15.5s30.834 7 45.5 9c14.667 2 26.334 3 35 3
c39.333 0 77.666 -4.5 115 -13.5c37.333 -9 73 -21 107 -36s65.167 -32.5 93.5 -52.5s52.833 -41 73.5 -63s36.834 -44.5 48.5 -67.5c11.667 -23 17.5 -45.167 17.5 -66.5c0 -24.667 -3.33301 -54.667 -10 -90s-18.334 -79 -35 -131
c-36.667 -114.667 -67.5 -217.167 -92.5 -307.5s-45.333 -169.166 -61 -236.499s-26.834 -123.5 -33.5 -168.5c-6.66699 -45 -10 -79.167 -10 -102.5c0 -18.667 2.83301 -33.667 8.5 -45s12.5 -20 20.5 -26s16.5 -10 25.5 -12s16.833 -3 23.5 -3c27.333 0 58 11.833 92 35.5
s68.667 56.667 104 99s69.666 93.333 103 153c33.333 59.667 63 125.334 89 197.001s47 148.667 63 231s24 167.5 24 255.5z" />
    <glyph glyph-name="A" unicode="A" horiz-adv-x="3482" 
d="M799 877c57.333 1.33301 115.667 2.83691 175 4.50391s120.5 4 183.5 7l195.5 9.5l212 11l134 181.5l161 225.5l181.5 259.5l196 283l205 296.5l207.5 299c19.333 78.667 46.5 153 81.5 223s78.167 131.167 129.5 183.5s111 93.833 179 124.5s144.333 46 229 46
c55.333 0 104 -8.16699 146 -24.5s77.333 -37.5 106 -63.5s51 -55.333 67 -88s25.667 -65.334 29 -98.001c0 -20.667 -5.16699 -41 -15.5 -61s-29.666 -43.333 -58 -70c-28.333 -26.667 -67.833 -58 -118.5 -94s-116.334 -80 -197 -132
c-14.667 -74.667 -27.667 -157 -39 -247s-21.5 -183 -30.5 -279s-16.833 -192.667 -23.5 -290s-12.667 -191 -18 -281c49.333 -8.66699 88.333 -28.667 117 -60s43 -77 43 -137c0 -28.667 -4.33301 -57.834 -13 -87.501s-20.834 -58.834 -36.5 -87.501
c-15.667 -28.667 -34.334 -56 -56 -82c-21.667 -26 -45.167 -49.667 -70.5 -71c0 -44 0.333008 -82.833 1 -116.5s2.83398 -61.834 6.5 -84.501c3.66699 -22.667 9.66699 -39.834 18 -51.501s20.166 -17.5 35.5 -17.5c14 0 38.667 8.33301 74 25s78.5 45.167 129.5 85.5
s108.667 94.5 173 162.5s132.833 153 205.5 255h16c19.333 0 38.333 -3.33301 57 -10s35.334 -16 50 -28c14.667 -12 26.5 -26.333 35.5 -43s13.5 -34.667 13.5 -54c0 -34 -10.667 -74.5 -32 -121.5s-50.666 -97.167 -88 -150.5
c-37.333 -53.333 -81.166 -108.5 -131.5 -165.5c-50.333 -57 -104.5 -112.5 -162.5 -166.5s-118.5 -105.167 -181.5 -153.5s-125.5 -90.666 -187.5 -126.999s-122.333 -65.166 -181 -86.499s-113 -32 -163 -32c-63.333 0 -117.833 7.16699 -163.5 21.5s-83 36 -112 65
s-50.333 65.167 -64 108.5s-20.5 94.333 -20.5 153v87.5c0 25.667 0.5 52.5 1.5 80.5s2.33301 59.333 4 94s3.83398 77 6.50098 127c-44 -4 -93 -8.16699 -147 -12.5s-110 -8.16602 -168 -11.499s-116.167 -6.5 -174.5 -9.5s-113.5 -5.5 -165.5 -7.5
c-76.667 -110.667 -148.667 -208.834 -216 -294.501s-132 -160.334 -194 -224.001s-121.833 -117.167 -179.5 -160.5s-114.834 -78.5 -171.501 -105.5s-113.667 -46.333 -171 -58s-116.666 -17.5 -177.999 -17.5c-99.333 0 -188.333 14.667 -267 44
s-145.167 72.166 -199.5 128.499s-96 125.333 -125 207s-43.5 174.834 -43.5 279.501c0 55.333 6.16699 109.166 18.5 161.499s30 101.5 53 147.5s50.833 88.333 83.5 127s69 71.834 109 99.501s83.333 49.167 130 64.5s95.667 23 147 23
c57.333 0 104.166 -11.333 140.499 -34s61.833 -57.667 76.5 -105zM836.001 274.004c34 0 66.833 4.83594 98.5 14.5029s64.667 25.667 99 48s71 52.166 110 89.499s82.5 83.666 130.5 138.999c-58.667 -2 -114 -3.5 -166 -4.5s-101.833 -1.83301 -149.5 -2.5
s-93.5 -1 -137.5 -1h-129c-4 -14.667 -7 -30.834 -9 -48.501s-3 -31.5 -3 -41.5c0 -32.667 3.83301 -61.167 11.5 -85.5s18.5 -44.5 32.5 -60.5s30.5 -27.833 49.5 -35.5s39.833 -11.5 62.5 -11.5zM2048 942.007c34 2 69.999 4.33301 107.999 7l113.5 8
c37.667 2.66699 73.834 5.66699 108.5 9l92 9l12 124.5l15.5 153c5.66699 54.333 11.834 110.333 18.5 168c6.66699 57.667 13.834 114.334 21.5 170.001c7.66699 55.667 15.334 108.667 23 159c7.66699 50.333 15.834 95.166 24.501 134.499l-77.5 -142l-92 -165
l-99.5 -175l-99 -172.5l-91.5 -157.5z" />
    <glyph glyph-name="B" unicode="B" horiz-adv-x="2826" 
d="M1720 2392c-17.333 -103.333 -34.333 -199.833 -51 -289.5s-33.334 -173.334 -50.001 -251.001l-48.5 -216c-15.667 -66.333 -31.167 -128.166 -46.5 -185.499c45.333 8 102.666 12 171.999 12c30.667 0 62.834 -1 96.501 -3s66.834 -5 99.501 -9
c34 54 63.333 108.167 88 162.5s45.167 106.833 61.5 157.5s28.333 98.667 36 144s11.5 86 11.5 122c0 45.333 -6.16699 87 -18.5 125s-32.833 72 -61.5 102s-66.5 56 -113.5 78s-105.5 39 -175.5 51zM1249 2388c-88.667 -11.333 -176.166 -27.668 -262.499 -49.002
c-86.333 -21.333 -167 -50 -242 -86s-142.833 -80.667 -203.5 -134s-110 -118 -148 -194c-12 -6 -26.5 -10.833 -43.5 -14.5s-33.833 -5.5 -50.5 -5.5c-28 0 -52.833 5.66699 -74.5 17s-40 27.5 -55 48.5s-26.5 46.333 -34.5 76s-12 62.834 -12 99.5
c0 76.667 16.167 151.834 48.5 225.5c32.333 73.667 79 143.667 140 210s135.167 127.5 222.5 183.5s186 104.167 296 144.5s230.167 72 360.5 95s268.833 34.5 415.5 34.5c200.667 0 372.834 -19.5 516.501 -58.5s261.5 -93.5 353.5 -163.5s159.667 -153.667 203 -251
s65 -204.333 65 -321c0 -66 -11 -136 -33 -210s-54 -150 -96 -228s-93.333 -156.5 -154 -235.5s-130 -156.5 -208 -232.5c67.333 -35.333 126.5 -73 177.5 -113s95 -80.667 132 -122s67.833 -83 92.5 -125s44.167 -82.833 58.5 -122.5s24.5 -77.667 30.5 -114
s9 -69.5 9 -99.5c0 -108.667 -18 -208.667 -54 -300s-90.5 -170.333 -163.5 -237s-164.667 -118.667 -275 -156s-239.833 -56 -388.5 -56c-72 0 -142.667 5.33301 -212 16s-141.5 29.167 -216.5 55.5s-154.667 61.666 -239 105.999s-177.166 99.833 -278.499 166.5
l-114 -89.5c-33.333 -25 -63.833 -45.5 -91.5 -61.5s-53.667 -27.667 -78 -35s-48.833 -11 -73.5 -11c-25.333 0 -53.5 9.66699 -84.5 29s-60 47 -87 83s-49.5 79.5 -67.5 130.5s-27 108.167 -27 171.5c0 38.667 9.16699 70.834 27.5 96.501s46.333 46.834 84 63.501
s85.667 29.834 144 39.501s127.5 18.167 207.5 25.5c34 72.667 67.667 152.5 101 239.5s65.666 178.5 96.999 274.5s61.166 195 89.499 297s54.666 204.167 78.999 306.5s46.333 203.5 66 303.5s36.5 195.667 50.5 287zM1970 376.998c26 0 50.168 4.00195 72.501 12.002
s41.666 19.333 57.999 34s29.333 32.667 39 54s14.5 45.333 14.5 72c0 53.333 -12.167 104.5 -36.5 153.5s-64.5 98.167 -120.5 147.5s-129.667 99.5 -221 150.5s-204 105.167 -338 162.5c-29.333 -100.667 -65.833 -198.667 -109.5 -294s-97.5 -188.333 -161.5 -279
l240.5 -80.5c79 -25.667 153.833 -48.334 224.5 -68.001s135 -35.334 193 -47.001s106.333 -17.5 145 -17.5z" />
    <glyph glyph-name="C" unicode="C" horiz-adv-x="2089" 
d="M1040 -188c-136.667 0 -258.833 21.5 -366.5 64.5s-198.667 106.667 -273 191s-131 188.666 -170 312.999s-58.5 267.833 -58.5 430.5c0 128 12.5 257 37.5 387s59.833 257.833 104.5 383.5s98 247.334 160 365.001s130.333 228.334 205 332
c74.667 103.667 154.167 198.334 238.5 284c84.333 85.667 171.166 159.334 260.499 221c89.333 61.667 179.833 109.5 271.5 143.5s181.834 51 270.501 51c101.333 0 188 -12.5 260 -37.5s131 -61.167 177 -108.5s79.667 -105.166 101 -173.5
c21.333 -68.333 32 -146.166 32 -233.5c0 -63.333 -6.5 -127 -19.5 -191s-31 -125.167 -54 -183.5s-50.833 -112.833 -83.5 -163.5s-68.834 -94.834 -108.5 -132.501c-39.667 -37.667 -82 -67.167 -127 -88.5s-91.833 -32 -140.5 -32c-25.333 0 -47.5 1.5 -66.5 4.5
s-35.167 7.66699 -48.5 14s-24.666 14.166 -33.999 23.499s-17 20 -23 32c11.333 26 21.666 54.833 30.999 86.5s17.666 64.5 24.999 98.5s14 68 20 102s11 66 15 96s7 57.333 9 82s3 44.334 3 59c0 47.333 -3.5 87.333 -10.5 120s-16.667 59.334 -29 80
c-12.333 20.667 -27 35.5 -44 44.5s-35.833 13.5 -56.5 13.5c-28 0 -59 -11.833 -93 -35.5s-69.167 -56.667 -105.5 -99s-73 -93.166 -110 -152.499s-72.667 -124.833 -107 -196.5s-66.666 -148.167 -96.999 -229.5s-56.5 -165.5 -78.5 -252.5s-39.5 -175.5 -52.5 -265.5
s-19.5 -179.333 -19.5 -268c0 -97.333 7.66699 -182.333 23 -255s41 -133.167 77 -181.5s83.833 -84.5 143.5 -108.5s134.167 -36 223.5 -36c85.333 0 174.333 15.833 267 47.5s184 75.834 274 132.501s175.5 124.5 256.5 203.5s152.167 165.5 213.5 259.5
c21.333 0 41.5 -2.16699 60.5 -6.5s35.5 -11.666 49.5 -21.999s25.167 -23.833 33.5 -40.5s12.5 -37.334 12.5 -62.001c0 -38.667 -11.333 -84.334 -34 -137.001s-54.667 -108.667 -96 -168s-91 -120.5 -149 -183.5s-122 -124.167 -192 -183.5s-145 -115.666 -225 -168.999
s-163.167 -99.833 -249.5 -139.5s-174.5 -71.167 -264.5 -94.5s-179.667 -35 -269 -35z" />
    <glyph glyph-name="D" unicode="D" horiz-adv-x="2982" 
d="M295 623c25.333 0 50.165 -0.503906 74.498 -1.50391s49.833 -2.66699 76.5 -5s55.334 -5 86.001 -8l103 -10.5c23.333 45.333 47.833 98.833 73.5 160.5s51.667 129 78 202s52.666 150.333 78.999 232l77.5 249.5l73.5 254.5l66.5 246.5l56.5 226
c17 71.333 31.833 136 44.5 194c-15.333 2 -28.833 3.66699 -40.5 5s-23.5 2.33301 -35.5 3s-24.833 1 -38.5 1h-49.5c-70 0 -135.333 -4.33301 -196 -13s-119.667 -23 -177 -43s-114.333 -46.167 -171 -78.5s-115.667 -72.166 -177 -119.5c-32 0 -60.333 6.33301 -85 19
s-45.667 30 -63 52s-30.5 47.667 -39.5 77s-13.5 60.333 -13.5 93c0 44.667 9.66699 92.167 29 142.5s48.833 100.166 88.5 149.5c39.667 49.333 89.5 96.666 149.5 142c60 45.333 130.833 85.333 212.5 120s174.334 62.334 278.001 83c103.667 20.667 218.5 31 344.5 31
c188 0 360.833 -20.333 518.5 -61s299.834 -98 426.501 -172s237.834 -162.833 333.5 -266.5c95.667 -103.667 175.667 -218.834 240 -345.501s112.666 -262.834 145 -408.501c32.333 -145.667 48.5 -297.167 48.5 -454.5c0 -123.333 -12.5 -243.666 -37.5 -360.999
s-61.667 -228.166 -110 -332.499s-108.166 -200 -179.5 -287c-71.333 -87 -153.333 -162 -246 -225s-195.834 -112 -309.501 -147s-237.167 -52.5 -370.5 -52.5c-62.667 0 -127 5 -193 15s-135.333 25.167 -208 45.5s-149 46.333 -229 78s-165 68.834 -255 111.501
c-40.667 -32.667 -78.5 -60.167 -113.5 -82.5s-67.833 -40.5 -98.5 -54.5s-59.834 -24 -87.501 -30s-54.834 -9 -81.501 -9c-30.667 0 -59 6.83301 -85 20.5s-49.667 32 -71 55s-40.166 49.333 -56.499 79s-30 60.834 -41 93.501s-19.333 65.334 -25 98.001
s-8.5 63.334 -8.5 92.001c0 25.333 3.66699 49.833 11 73.5s18.833 44.667 34.5 63s35.334 33 59.001 44s51.834 16.5 84.501 16.5zM2265 1188c0 101.333 -12.334 201.498 -37.001 300.498s-62 193.333 -112 283s-112.667 172.834 -188 249.501s-163.666 143 -264.999 199
c-25.333 -125.333 -52.833 -248.333 -82.5 -369s-60.834 -236.5 -93.501 -347.5s-65.834 -216.833 -99.501 -317.5s-67.5 -193.834 -101.5 -279.501s-67.167 -163.167 -99.5 -232.5s-63.166 -128.666 -92.499 -177.999l180 -49.5c54.667 -14.333 105.5 -26.333 152.5 -36
s91.167 -17 132.5 -22s81.333 -7.5 120 -7.5c69.333 0 131.833 10 187.5 30s105.167 48 148.5 84s80.666 78.833 112 128.5c31.333 49.667 57.333 104.334 78 164.001s35.834 123.5 45.501 191.5s14.5 137.667 14.5 209z" />
    <glyph glyph-name="E" unicode="E" horiz-adv-x="2105" 
d="M967 -221c-128 0 -243.174 17.3203 -345.507 51.9873s-189.166 83.334 -260.499 146.001s-126.166 137.834 -164.499 225.501s-57.5 184.167 -57.5 289.5c0 72.667 13 147.667 39 225s65.333 153 118 227s119 144.667 199 212s174.333 127 283 179
c-30 32 -57.5 68.333 -82.5 109s-46.5 85 -64.5 133s-32.167 99.5 -42.5 154.5s-15.5 112.833 -15.5 173.5c0 86.667 12.5 173.334 37.5 260.001s60.167 169.834 105.5 249.5c45.333 79.667 99.666 153.667 162.999 222s133.5 127.833 210.5 178.5s159.333 90.5 247 119.5
s178.834 43.5 273.501 43.5c95.333 0 177.5 -11 246.5 -33s126 -53.833 171 -95.5s78.167 -92.667 99.5 -153s32 -129.166 32 -206.499c0 -101.333 -14.167 -189.5 -42.5 -264.5s-65.333 -137.167 -111 -186.5s-97.167 -86.166 -154.5 -110.499
s-114.666 -36.5 -171.999 -36.5c-45.333 0 -79.166 7.16699 -101.499 21.5s-37.5 31.833 -45.5 52.5c26.667 56 47 111.167 61 165.5s21 108.5 21 162.5c0 38.667 -3.16699 71.334 -9.5 98c-6.33301 26.667 -14.833 48.167 -25.5 64.5s-23.167 28.166 -37.5 35.5
c-14.333 7.33301 -29.833 11 -46.5 11c-24.667 0 -49.5 -7.66699 -74.5 -23s-49.167 -36.666 -72.5 -64c-23.333 -27.333 -45.166 -60 -65.499 -98s-38.166 -79.5 -53.499 -124.5s-27.333 -92.667 -36 -143s-13 -101.833 -13 -154.5c0 -36 1.83301 -72.5 5.5 -109.5
s8.83398 -73.333 15.501 -109s14.5 -69.667 23.5 -102s18.5 -61.833 28.5 -88.5c22.667 5.33301 47.5 10 74.5 14s54.333 7.33301 82 10s54.167 4.83398 79.5 6.50098s47.666 2.5 66.999 2.5c39.333 0 71.666 -2.66699 96.999 -8s45.333 -12.666 60 -21.999
s25 -20.166 31 -32.499s9 -25.833 9 -40.5c0 -58 -11 -114.833 -33 -170.5s-51.333 -105.167 -88 -148.5s-78.667 -78.166 -126 -104.499s-96 -39.5 -146 -39.5c-19.333 0 -40.5 2.66699 -63.5 8s-46.667 12.833 -71 22.5s-48.5 21.334 -72.5 35.001
s-46.667 28.834 -68 45.501c-27.333 -28.667 -52.333 -60.5 -75 -95.5s-42 -70.833 -58 -107.5s-28.5 -72.5 -37.5 -107.5s-13.5 -66.833 -13.5 -95.5c0 -50.667 7 -96.667 21 -138s35.5 -76.666 64.5 -105.999s65.667 -51.833 110 -67.5s96.5 -23.5 156.5 -23.5
c64 0 131 9.66699 201 29s140.5 46 211.5 80s141 74.167 210 120.5s135 96.5 198 150.5s121.333 110.667 175 170s100.167 119 139.5 179c21.333 0 41.5 -2.16699 60.5 -6.5s35.5 -11.666 49.5 -21.999s25.167 -23.833 33.5 -40.5s12.5 -37.334 12.5 -62.001
c0 -32.667 -10.833 -74.167 -32.5 -124.5s-52.667 -105.333 -93 -165s-89.166 -122.167 -146.499 -187.5s-122 -129.666 -194 -192.999s-150.167 -123.5 -234.5 -180.5s-173.5 -107.167 -267.5 -150.5s-192.167 -77.833 -294.5 -103.5s-207.166 -38.5 -314.499 -38.5z" />
    <glyph glyph-name="F" unicode="F" horiz-adv-x="2683" 
d="M520 2232c0 -40.667 6.33496 -81.502 19.002 -122.502s33.834 -82 63.501 -123s68.5 -81.833 116.5 -122.5s107.333 -81.667 178 -123c0 -36.667 -7 -72 -21 -106s-34.833 -63.667 -62.5 -89s-62.167 -45.666 -103.5 -60.999s-89.666 -23 -144.999 -23
c-41.333 0 -82.666 8 -123.999 24s-80.833 38.667 -118.5 68s-72.667 64.5 -105 105.5s-60.333 86.333 -84 136s-42.334 103.167 -56.001 160.5s-20.5 116.666 -20.5 177.999c0 76.667 8.5 151.667 25.5 225s42.333 142.833 76 208.5s75.5 126 125.5 181
s108.167 102.667 174.5 143s140.5 71.666 222.5 94c82 22.333 171.667 33.5 269 33.5c50 0 97.167 -0.666992 141.5 -2s90.833 -4.33301 139.5 -9s102.167 -11.334 160.5 -20c58.333 -8.66699 126.833 -20.334 205.5 -35l460 -79.5c134.667 -22.333 255.5 -41.5 362.5 -57.5
s202.5 -29 286.5 -39s161.833 -18 233.5 -24s139.5 -10.167 203.5 -12.5s129 -3.83301 195 -4.5c7.33301 -7.33301 14 -17.166 20 -29.5c6 -12.333 11.167 -25.833 15.5 -40.5s7.66602 -29.5 10 -44.5c2.33301 -15 3.5 -28.833 3.5 -41.5
c0 -64.667 -14.5 -123.334 -43.5 -176c-29 -52.667 -68.833 -97.834 -119.5 -135.5c-50.667 -37.667 -109.667 -66.834 -177 -87.5c-67.333 -20.667 -139.666 -31 -217 -31c-34.667 0 -73.5 1.33301 -116.5 4s-87.833 7 -134.5 13s-94.334 13.667 -143 23
c-48.667 9.33301 -96 20.666 -142 34c-15.333 -46 -29.166 -91.167 -41.5 -135.5c-12.333 -44.333 -23.833 -90.333 -34.5 -138s-21.167 -98.167 -31.5 -151.5s-21.166 -112.333 -32.5 -177c33.333 -4 64.333 -8.33301 93 -13s56.667 -7 84 -7
c50 1.33301 95.5 3.66602 136.5 6.99902s78.833 7.66602 113.5 12.999s66.667 11.5 96 18.5s57.333 14.5 84 22.5c9.33301 -7.33301 18.333 -17 27 -29s16.5 -25.333 23.5 -40s12.5 -29.834 16.5 -45.501s6 -30.834 6 -45.501c0 -67.333 -12 -126.166 -36 -176.499
s-57.5 -92.166 -100.5 -125.499s-94 -58.166 -153 -74.499s-123.5 -24.5 -193.5 -24.5c-28 0 -58 2 -90 6s-62 8.33301 -90 13c-32.667 5.33301 -65.334 11.333 -98.001 18c-2 -11.333 -6 -30.166 -12 -56.499l-21 -89.5l-25 -104.5l-24.5 -103.5l-20.5 -86.5
c-6 -25 -10 -42.167 -12 -51.5c-27.333 -121.333 -60.166 -236.833 -98.499 -346.5s-82.5 -211.167 -132.5 -304.5s-105.667 -177.666 -167 -252.999s-128.666 -139.333 -201.999 -192s-152.333 -93.334 -237 -122.001s-175.667 -43 -273 -43
c-102.667 0 -193 13.833 -271 41.5s-143.333 66.834 -196 117.501s-92.5 112 -119.5 184s-40.5 152.667 -40.5 242c0 51.333 6.33301 104 19 158s35 111.167 67 171.5s75.833 124.5 131.5 192.5s126.667 141.667 213 221s189.666 164.833 309.999 256.5
s261.166 191.5 422.499 299.5c-34.667 28.667 -61.667 63 -81 103s-29 80.667 -29 122c0 35.333 8.66699 69 26 101s45.333 58.333 84 79c18.667 10.667 40 18.334 64 23.001s50.667 8 80 10c14 58.667 29.5 113.667 46.5 165s36.167 102.333 57.5 153
s45.166 102 71.499 154s56.5 107.667 90.5 167c-108.667 34.667 -208.834 63.834 -300.501 87.5c-91.667 23.667 -176.5 42.667 -254.5 57s-149.5 24.5 -214.5 30.5s-125.167 9 -180.5 9c-110.667 0 -192.334 -25.667 -245.001 -77s-79 -125.333 -79 -222zM1331 835.998
c-118 -110 -214.999 -206.667 -290.999 -290s-136.167 -157 -180.5 -221s-75.166 -119.833 -92.499 -167.5s-26 -90.5 -26 -128.5c0 -42 3.66699 -77.667 11 -107s17.666 -53 30.999 -71s29.333 -31.167 48 -39.5s39.334 -12.5 62.001 -12.5c38 0 76.167 21.167 114.5 63.5
s76.166 106.333 113.499 192s73.666 193.5 108.999 323.5s69 282.667 101 458z" />
    <glyph glyph-name="G" unicode="G" horiz-adv-x="2359" 
d="M2154 545c-2 -79.333 -7 -160.67 -15 -244.003s-20.167 -166.333 -36.5 -249s-37.333 -163.5 -63 -242.5s-57.167 -153.667 -94.5 -224s-80.833 -135 -130.5 -194s-107 -109.833 -172 -152.5s-137.833 -76 -218.5 -100s-170.334 -36 -269.001 -36
c-93.333 0 -182.166 8.33301 -266.499 25s-162.5 40.667 -234.5 72s-137 69.333 -195 114s-107.333 94.834 -148 150.501s-72 116.5 -94 182.5s-33 136 -33 210c0 46 5.66699 89.5 17 130.5s28.166 78.667 50.499 113s50.5 64.833 84.5 91.5s73.667 48.667 119 66
c-70.667 72 -123.167 161.667 -157.5 269s-51.5 228 -51.5 362c0 132 13.5 263.333 40.5 394s64.833 257.667 113.5 381s106.5 241.833 173.5 355.5s140.333 219.834 220 318.5c79.667 98.667 164.334 188.334 254.001 269c89.667 80.667 181.334 149.667 275.001 207
s188 101.666 283 133c95 31.333 187.833 47 278.5 47c91.333 0 168.666 -12.333 231.999 -37s114.833 -59 154.5 -103s68.5 -96.333 86.5 -157s27 -126.667 27 -198c0 -60.667 -5.66699 -119.834 -17 -177.5c-11.333 -57.667 -27.5 -111.834 -48.5 -162.5
c-21 -50.667 -46 -97 -75 -139s-60.833 -78.167 -95.5 -108.5s-71.834 -54 -111.5 -71c-39.667 -17 -80.834 -25.5 -123.501 -25.5c-39.333 0 -74.833 6 -106.5 18s-53.5 30.333 -65.5 55c8 23.333 16.667 52.333 26 87s17.833 71 25.5 109s14 75.667 19 113s7.5 71 7.5 101
c0 39.333 -2.16699 72 -6.5 98s-10.833 47 -19.5 63s-19.667 27.333 -33 34s-29.333 10 -48 10c-38.667 0 -80.167 -11.833 -124.5 -35.5s-89.666 -56.834 -135.999 -99.5c-46.333 -42.667 -92.333 -93.5 -138 -152.5s-89.5 -124 -131.5 -195s-81.167 -146.667 -117.5 -227
s-67.666 -163 -93.999 -248s-47.166 -171.167 -62.499 -258.5s-23 -173.666 -23 -258.999c0 -67.333 8.16699 -126.166 24.5 -176.499s39.5 -92.166 69.5 -125.499s66.167 -58.166 108.5 -74.499s89.5 -24.5 141.5 -24.5c53.333 0 111.166 7.66699 173.499 23
s124.5 37.666 186.5 66.999c5.33301 87.333 9.5 165.666 12.5 234.999s7.33301 130.5 13 183.5s13.667 98.5 24 136.5s25.666 69 45.999 93s46.833 41.5 79.5 52.5s74 16.5 124 16.5c56.667 0 112 -4.5 166 -13.5s102.167 -22.333 144.5 -40s76.333 -39.167 102 -64.5
s38.5 -54.333 38.5 -87s-4 -66 -12 -100s-19.333 -70 -34 -108s-32.334 -79 -53 -123l-69 -144zM958 69.9961c-92.667 0 -175.668 12 -249.001 36c34.667 -73.333 74.167 -140.5 118.5 -201.5s92.5 -113.167 144.5 -156.5s107.167 -77 165.5 -101s118.833 -36 181.5 -36
c50.667 0 91.834 8.33301 123.501 25s56.5 40.167 74.5 70.5s30.833 66.5 38.5 108.5s12.667 88.5 15 139.5s3.33301 105.667 3 164s0.833984 118.5 3.50098 180.5c-46 -34.667 -94.333 -66.167 -145 -94.5s-102.334 -52.5 -155.001 -72.5s-106 -35.333 -160 -46
s-107 -16 -159 -16z" />
    <glyph glyph-name="H" unicode="H" horiz-adv-x="3572" 
d="M2142 3187c50 0 95.665 -12.3311 136.998 -36.998s76.833 -64.667 106.5 -120s52.5 -127.5 68.5 -216.5s24 -198.167 24 -327.5c0 -56.667 -2.33301 -119.834 -7 -189.5c-4.66699 -69.667 -11.167 -142.334 -19.5 -218c-8.33301 -75.667 -18.166 -152.834 -29.5 -231.501
c-11.333 -78.667 -23.5 -155.334 -36.5 -230.001s-26.5 -145.834 -40.5 -213.501s-28.333 -128.5 -43 -182.5l89 19c31.333 6.66699 63 13.834 95 21.501s63.333 16 94 25s59.334 18.5 86 28.5c38 216 76.167 406.833 114.5 572.5s78.5 310 120.5 433
s86.333 226.167 133 309.5s96.667 150.5 150 201.5s110.666 87.5 172 109.5c61.333 22 127.666 33 199 33c57.333 0 110.333 -8 159 -24s90.667 -39 126 -69s63 -66.5 83 -109.5s30 -91.5 30 -145.5c0 -17.333 -2.16699 -35.333 -6.5 -54s-10.166 -36.667 -17.5 -54
c-7.33301 -17.333 -16 -33.666 -26 -49c-10 -15.333 -20.667 -28.666 -32 -39.999c-56.667 -5.33301 -106 -12.333 -148 -21s-79.167 -22.5 -111.5 -41.5s-60.833 -45 -85.5 -78s-48.334 -76.5 -71 -130.5c-22.667 -54 -45.5 -120.333 -68.5 -199
s-48.5 -173.334 -76.5 -284.001c24.667 -11.333 45.667 -25.5 63 -42.5s31.666 -35.5 43 -55.5c11.333 -20 19.666 -40.667 25 -62c5.33301 -21.333 8 -41.666 8 -60.999c0 -46 -7.66699 -89.833 -23 -131.5s-35 -80.334 -59 -116.001s-50.833 -67.834 -80.5 -96.501
s-58.834 -53.334 -87.5 -74.001l-32 -177c-10 -56.667 -18.667 -108.5 -26 -155.5s-13.166 -88.167 -17.5 -123.5c-4.33301 -35.333 -6.5 -62 -6.5 -80c0 -21.333 1 -39 3 -53s5.33301 -25 10 -33s10.667 -13.5 18 -16.5s16 -4.5 26 -4.5c16.667 0 45.667 11.833 87 35.5
s91.666 61 151 112c59.333 51 126 117 200 198s152 178.833 234 293.5c20.667 0 40.5 -3 59.5 -9s36 -14.667 51 -26s27 -25.5 36 -42.5s13.5 -36.167 13.5 -57.5c0 -34 -10.667 -75.167 -32 -123.5s-51 -100.666 -89 -156.999s-83 -114.833 -135 -175.5
s-108.667 -120 -170 -178s-125.833 -113 -193.5 -165s-136.5 -97.833 -206.5 -137.5s-139.5 -71 -208.5 -94s-135.167 -34.5 -198.5 -34.5c-46.667 0 -88.167 5.83301 -124.5 17.5s-66.833 30.167 -91.5 55.5s-43.334 58 -56 98c-12.667 40 -19 88 -19 144
c0 28.667 2.5 68 7.5 118s12.167 107.5 21.5 172.5s20.5 135.667 33.5 212s27.833 154.833 44.5 235.5c-21.333 -6 -47.833 -12.333 -79.5 -19s-66.334 -13.334 -104 -20.001c-37.667 -6.66699 -77.167 -12.834 -118.5 -18.501l-124 -16.5
c-43.333 -105.333 -91.833 -206.666 -145.5 -303.999s-112 -188.333 -175 -273s-130.667 -161.667 -203 -231s-148.833 -128.833 -229.5 -178.5s-165.5 -88.167 -254.5 -115.5s-181.833 -41 -278.5 -41c-72 0 -140.667 9 -206 27s-126.333 43.5 -183 76.5
s-107.834 72.833 -153.501 119.5s-84.834 98.667 -117.501 156s-57.834 119.333 -75.501 186s-26.5 136.334 -26.5 209.001c0 94 14.667 177.833 44 251.5s77.5 137 144.5 190s155 95.833 264 128.5s243.5 55.667 403.5 69c64.667 5.33301 126.334 10.166 185.001 14.499
s116.5 8.33301 173.5 12l171.5 11l178 11.5c10 47.333 20 102.333 30 165s19.833 128.834 29.5 198.501s18.834 140.834 27.501 213.501s16.334 142.5 23.001 209.5s11.834 129 15.501 186s5.5 104.5 5.5 142.5c0 44 -7.66699 87 -23 129s-32.166 84.167 -50.499 126.5
s-35.166 85.666 -50.499 130c-15.333 44.333 -23 90.5 -23 138.5c0 49.333 6.66699 93.833 20 133.5s31.5 75 54.5 106s50 57.667 81 80s64.167 40.833 99.5 55.5s72.166 25.5 110.499 32.5s76.166 10.5 113.5 10.5zM1036 676.002
c-55.333 -2.66699 -101.831 -8.16992 -139.498 -16.5029s-68 -19 -91 -32s-39.5 -28.167 -49.5 -45.5s-15 -36.666 -15 -57.999c0 -27.333 5 -54.5 15 -81.5s23.5 -52.667 40.5 -77s37 -47.166 60 -68.499s47.667 -39.666 74 -54.999s53.833 -27.333 82.5 -36s57 -13 85 -13
c48 0 94.167 13.5 138.5 40.5s86.166 64 125.499 111s76 102.333 110 166s65 132.5 93 206.5c-52 -5.33301 -99.667 -9.83301 -143 -13.5s-85.333 -7 -126 -10s-81.834 -5.83301 -123.501 -8.5z" />
    <glyph glyph-name="I" unicode="I" horiz-adv-x="2060" 
d="M655 2617c0 42 8.49902 80.334 25.499 115.001s44 64.5 81 89.5s84.5 44.333 142.5 58s128 20.5 210 20.5c76 0 146 -0.333008 210 -1s124.167 -1.5 180.5 -2.5s109.833 -2 160.5 -3s100.667 -1.5 150 -1.5c47.333 0 92.166 1.5 134.499 4.5s84 7.83301 125 14.5
s81.833 15.167 122.5 25.5s82.334 22.833 125.001 37.5c22.667 -11.333 43.5 -25.833 62.5 -43.5s35.5 -37.667 49.5 -60s24.833 -46.5 32.5 -72.5s11.5 -53.333 11.5 -82c0 -68 -13.667 -128 -41 -180s-65.833 -95.667 -115.5 -131s-109.167 -62 -178.5 -80
s-146 -27 -230 -27l-148.5 -639.5l-123.5 -503c-37.333 -146.333 -71 -273 -101 -380s-57.333 -197.5 -82 -271.5c82.667 0 161.5 -1 236.5 -3s151.833 -5 230.5 -9c18.667 -25.333 32.834 -55.333 42.501 -90s14.5 -67.667 14.5 -99c0 -65.333 -14.333 -119.833 -43 -163.5
s-71 -78.5 -127 -104.5s-125.333 -44.5 -208 -55.5s-177.667 -16.5 -285 -16.5c-56.667 0 -111.334 0.666992 -164.001 2s-106.5 3.16602 -161.5 5.49902l-172.5 7.5c-60 2.66699 -125.667 5.16699 -197 7.5s-149.666 4.5 -234.999 6.5s-181 3.33301 -287 4
c-12 12 -21.833 28.833 -29.5 50.5s-11.5 45.834 -11.5 72.501c0 54 12.333 101.167 37 141.5s65.5 74.666 122.5 102.999s132.5 51.833 226.5 70.5s210 33.667 348 45c38 134 76.5 278.833 115.5 434.5l116 482.5l114 505l108.5 503l-280 50
c-94 16.667 -186.333 30 -277 40c-12 16.667 -21.167 35.667 -27.5 57s-9.5 43.333 -9.5 66z" />
    <glyph glyph-name="J" unicode="J" horiz-adv-x="2941" 
d="M1327 -291c88 0 166.835 28.167 236.502 84.5s130.167 134.833 181.5 235.5c-42.667 1.33301 -90.5 4.83301 -143.5 10.5s-108.167 13.167 -165.5 22.5s-115.833 20.333 -175.5 33s-118 26.5 -175 41.5s-111.333 31 -163 48s-98.5 34.833 -140.5 53.5
c19.333 -78.667 46.666 -150.5 81.999 -215.5s76.833 -120.833 124.5 -167.5s100.167 -82.667 157.5 -108s117.666 -38 180.999 -38zM2208 2322c-41.333 0 -83 -17.6641 -125 -52.9971s-82.667 -81.833 -122 -139.5s-76.5 -123.5 -111.5 -197.5s-66.667 -149.667 -95 -227
s-52.5 -153.166 -72.5 -227.499s-34.667 -140.833 -44 -199.5c-26.667 -10.667 -52.167 -18.167 -76.5 -22.5s-47.833 -6.5 -70.5 -6.5c-46.667 0 -88.834 9.66699 -126.501 29s-69.5 46.5 -95.5 81.5s-46 77.167 -60 126.5s-21 104.333 -21 165
c0 59.333 8.33301 123.5 25 192.5s40.667 139.667 72 212s69.333 144.833 114 217.5s95.167 142.334 151.5 209c56.333 66.667 117.833 129 184.5 187s137.667 108.333 213 151s154.333 76.167 236.999 100.5c82.667 24.333 168 36.5 256 36.5
c96 0 179.333 -13.167 250 -39.5s129 -66.333 175 -120s80.167 -121.334 102.5 -203c22.333 -81.667 33.5 -177.834 33.5 -288.5c0 -56 -3.33301 -118.667 -10 -188s-15.834 -143.333 -27.5 -222c-11.667 -78.667 -25.667 -160.5 -42 -245.5s-34.5 -170.833 -54.5 -257.5
s-41 -173.167 -63 -259.5s-44.833 -169.666 -68.5 -249.999s-47.667 -156.833 -72 -229.5s-48.166 -139 -71.5 -199c56 27.333 110.667 59 164 95s105.5 77.333 156.5 124s101 99.5 150 158.5s96.833 125.5 143.5 199.5c19.333 0 38 -3 56 -9s33.833 -14.667 47.5 -26
s24.5 -25 32.5 -41s12 -34.333 12 -55c0 -38 -9.66699 -80.833 -29 -128.5s-47.666 -97.834 -84.999 -150.501s-83 -106.5 -137 -161.5s-115.5 -109 -184.5 -162s-145.333 -103.667 -229 -152s-173.5 -91.833 -269.5 -130.5c-72.667 -141.333 -151.5 -263.833 -236.5 -367.5
s-177 -189.5 -276 -257.5s-205.5 -118.667 -319.5 -152s-236.667 -50 -368 -50c-112.667 0 -219 12.667 -319 38s-192.167 60.666 -276.5 105.999s-160.166 99.833 -227.499 163.5s-124.333 133.834 -171 210.501s-82.5 158.834 -107.5 246.501s-37.5 178.167 -37.5 271.5
c0 116 14.5 215.167 43.5 297.5s67.333 149.666 115 201.999s102 90.833 163 115.5s123.167 37 186.5 37c32 0 59.5 -6 82.5 -18s42 -28.5 57 -49.5s26.167 -45.833 33.5 -74.5s11 -59.334 11 -92.001c49.333 -22 104.833 -43.833 166.5 -65.5s126 -42.5 193 -62.5
s135.333 -38.833 205 -56.5s136.834 -33.334 201.501 -47.001s125.667 -25 183 -34s107 -14.833 149 -17.5c25.333 67.333 50.666 140.666 75.999 219.999s49.833 161.833 73.5 247.5s46.5 173.167 68.5 262.5s42.5 177.666 61.5 264.999s36.167 172.333 51.5 255
s28.5 160.167 39.5 232.5s19.5 137.833 25.5 196.5s9 108 9 148c0 41.333 -4.83301 74.166 -14.5 98.5c-9.66699 24.333 -27.834 36.5 -54.5 36.5z" />
    <glyph glyph-name="K" unicode="K" horiz-adv-x="2843" 
d="M938 1651c30.667 105.333 58.001 203.996 82.001 295.996s44.167 174.667 60.5 248s28.666 136.333 36.999 189s12.5 92.334 12.5 119.001c0 36.667 -6 63.5 -18 80.5s-30.333 25.5 -55 25.5c-19.333 0 -44.333 -9 -75 -27s-63.667 -42.167 -99 -72.5
s-70.833 -66 -106.5 -107s-68 -84.5 -97 -130.5s-52.5 -93.5 -70.5 -142.5s-27 -96.5 -27 -142.5c0 -42.667 7 -80.667 21 -114s35.5 -63.166 64.5 -89.499s66 -50.166 111 -71.499s98.167 -41.666 159.5 -60.999zM1642 1270c47.333 58 96.499 127.506 147.499 208.506
s102 168.167 153 261.5s100.833 190.5 149.5 291.5s94 200.833 136 299.5c39.333 90.667 75.333 168.667 108 234s63.667 120.333 93 165s57.833 80.667 85.5 108s55.834 48.333 84.5 63c28.667 14.667 58.5 24.334 89.5 29c31 4.66699 64.5 7 100.5 7
c64.667 0 122 -12.167 172 -36.5s92 -56.333 126 -96s59.833 -84.834 77.5 -135.5c17.667 -50.667 26.5 -102 26.5 -154c0 -33.333 -5.66699 -68.666 -17 -106c-11.333 -37.333 -30.333 -70.333 -57 -99c-26.667 -2 -50.834 -5.33301 -72.5 -10
c-21.667 -4.66699 -42.667 -12.334 -63 -23c-20.333 -10.667 -41.166 -25.334 -62.499 -44.001s-44.833 -43.167 -70.5 -73.5s-54.667 -67.333 -87 -111l-111.5 -156.5l-179.5 -248.5c-57 -75.667 -112.167 -145.167 -165.5 -208.5s-105 -120.833 -155 -172.5
s-99 -98.5 -147 -140.5c36.667 -24.667 73.167 -60.167 109.501 -106.5c36.333 -46.333 72.666 -99.833 109 -160.5c36.333 -60.667 72.333 -126 108 -196l107.5 -213c12 -24.667 23.833 -44.834 35.5 -60.501s23.5 -28 35.5 -37s24.667 -15.333 38 -19s27.666 -5.5 43 -5.5
c9.33301 0 21 0.666992 35 2s28.667 3.16602 44 5.49902s30.833 5 46.5 8s29.834 5.83301 42.5 8.5c16 -18.667 28.167 -41.667 36.5 -69s12.5 -53.333 12.5 -78c0 -37.333 -8.16699 -74 -24.5 -110s-38.666 -70 -67 -102c-28.333 -32 -61.833 -61.333 -100.5 -88
s-80.334 -49.667 -125.001 -69s-91.167 -34.333 -139.5 -45s-96.833 -16 -145.5 -16c-38.667 0 -73 4.33301 -103 13s-57.667 23.667 -83 45s-49.666 50.166 -72.999 86.499s-47.666 82.166 -72.999 137.499l-116 251c-34.667 74 -66.667 139.5 -96 196.5
s-56.833 106.167 -82.5 147.5s-51.167 76.666 -76.5 105.999s-51.5 53.166 -78.5 71.499s-56.167 32.5 -87.5 42.5l-188 -868c-18.667 -18.667 -42.667 -32.167 -72 -40.5s-62.666 -12.5 -99.999 -12.5c-36.667 0 -73.5 5.5 -110.5 16.5s-72.5 26.333 -106.5 46
s-65.833 43 -95.5 70s-55.334 56.667 -77.001 89s-38.667 66.5 -51 102.5s-18.5 72.667 -18.5 110c0 38 6 81.5 18 130.5s29.5 101.5 52.5 157.5s51.333 114.5 85 175.5s71.834 122.167 114.501 183.5l54 250c-18.667 -2 -39.834 -3.83301 -63.501 -5.5
s-44.834 -2.5 -63.501 -2.5c-89.333 0 -173.666 13 -252.999 39s-148.833 63.333 -208.5 112s-107 108.334 -142 179.001s-52.5 150.334 -52.5 239.001c0 73.333 11.5 148.166 34.5 224.499s54.667 151.833 95 226.5s88.166 147.667 143.499 219
s115.166 138.5 179.499 201.5s132 121 203 174s142.333 98.5 214 136.5s142.667 67.667 213 89s136.833 32 199.5 32c72 0 134.167 -9.33301 186.5 -28s95.666 -44.5 129.999 -77.5s59.833 -72.333 76.5 -118s25 -95.5 25 -149.5c0 -32 -7.5 -90.667 -22.5 -176
s-36.167 -193.166 -63.5 -323.5c-27.333 -130.333 -60.666 -281 -99.999 -452l-133 -560.5c28.667 4.66699 60.167 8 94.5 10s70.833 3 109.5 3z" />
    <glyph glyph-name="L" unicode="L" horiz-adv-x="2568" 
d="M905 1217c-58 8 -111.832 21.8311 -161.499 41.498s-92.5 43.834 -128.5 72.501s-64.167 61.167 -84.5 97.5s-30.5 74.833 -30.5 115.5c0 62 15.167 116.333 45.5 163s72.5 86.667 126.5 120c60 -45.333 124.5 -84.333 193.5 -117s135.5 -55.334 199.5 -68.001l89 241.5
l89 231.5l86 214l81 188l72.5 154.5c22.333 45.667 42.833 83.5 61.5 113.5c36 57.333 74.667 106.166 116 146.5c41.333 40.333 84.666 73 129.999 98s92.333 43.167 141 54.5s98.667 17 150 17c80 0 155.167 -8.66699 225.5 -26s135 -41.333 194 -72s112 -67.334 159 -110
c47 -42.667 86.667 -89.167 119 -139.5s57.166 -103.666 74.5 -160c17.333 -56.333 26 -113.833 26 -172.5c0 -102.667 -26.5 -208.834 -79.5 -318.501s-134.167 -217 -243.5 -322s-247.5 -204.5 -414.5 -298.5s-364.833 -177 -593.5 -249c-12 -36 -29.5 -77.333 -52.5 -124
s-48.667 -95.167 -77 -145.5s-58.166 -100.666 -89.499 -150.999s-62 -97.166 -92 -140.499c183.333 -30.667 343.333 -65.167 480 -103.5s254.334 -79.333 353.001 -123s180.167 -89.334 244.5 -137.001s115.166 -96 152.5 -145c37.333 -49 63.5 -98.333 78.5 -148
s22.5 -98.5 22.5 -146.5c0 -51.333 -7.16699 -99.666 -21.5 -144.999s-33.833 -85.833 -58.5 -121.5s-53.334 -66 -86 -91c-32.667 -25 -67.334 -42.5 -104.001 -52.5c-50 42.667 -102.833 84.334 -158.5 125.001s-116.5 80.167 -182.5 118.5
s-138.167 75.666 -216.5 111.999s-164.666 71.5 -258.999 105.5s-197.833 67.333 -310.5 100s-236.667 64.334 -372 95.001c-74 -70 -143 -125.167 -207 -165.5s-127.667 -60.5 -191 -60.5c-34 0 -67.333 8.33301 -100 25s-63.5 39.167 -92.5 67.5s-55.833 61 -80.5 98
s-45.834 75.833 -63.501 116.5s-31.5 81.834 -41.5 123.501s-15 81.167 -15 118.5c0 48 7.33301 89.833 22 125.5s38.5 65.167 71.5 88.5s76.167 40.666 129.5 51.999s118.333 17 195 17c35.333 0 72.333 -1 111 -3s81 -5 127 -9c47.333 90 90.666 176.167 129.999 258.5
s76.333 165.5 111 249.5zM1667 1651c107.333 43.333 204.169 91.5 290.502 144.5s159.833 108.667 220.499 167c60.667 58.333 107.334 118 140 179c32.667 61 49 121.167 49 180.5c0 32 -8.33301 61.833 -25 89.5s-39 52 -67 73s-60.5 37.5 -97.5 49.5
s-76.167 18 -117.5 18c-13.333 0 -26.833 -2.83301 -40.5 -8.5s-27.334 -16.5 -41.001 -32.5s-27.5 -38 -41.5 -66s-27.667 -64.667 -41 -110z" />
    <glyph glyph-name="M" unicode="M" horiz-adv-x="4260" 
d="M791 238c32 0 68.3301 11.5 108.997 34.5s86.834 62 138.501 117s109.834 128.167 174.501 219.5s136.667 205.5 216 342.5s166.833 299.167 262.5 486.5s200.834 404.333 315.501 651c-10 38 -18.667 73 -26 105s-13.333 63.667 -18 95s-8 63.333 -10 96s-3 69 -3 109
c0 56 8.66699 112.833 26 170.5s41.5 113.667 72.5 168s68.167 105.166 111.5 152.5c43.333 47.333 91 88.833 143 124.5s107.333 63.667 166 84s119 30.5 181 30.5c55.333 0 102.833 -6.5 142.5 -19.5s72.334 -29.667 98 -50c25.667 -20.333 44.667 -43.166 57 -68.5
c12.333 -25.333 18.5 -50.333 18.5 -75c0 -26 -5.33301 -55.167 -16 -87.5s-27.167 -70 -49.5 -113s-51.166 -91.667 -86.5 -146l-127 -186.5l30 -164l35.5 -190l38 -206.5l37.5 -213c12 -71 23.167 -141 33.5 -210s19.166 -134.5 26.5 -196.5l680 820
c61.333 254 151.5 443.667 270.5 569s263.5 188 433.5 188c37.334 0 73.334 -5.33301 108 -16s65.666 -26.5 93 -47.5s49.167 -47 65.5 -78c16.334 -31 24.5 -66.833 24.5 -107.5c0 -32 -13 -66.833 -39 -104.5s-60.666 -78.834 -104 -123.5
c-43.334 -44.667 -93.5 -93.334 -150.5 -146l-177.5 -171c-24.667 -103.333 -47 -208.833 -67 -316.5s-37.667 -213.5 -53 -317.5s-28.666 -204.167 -40 -300.5c-11.333 -96.333 -20.666 -184.666 -28 -264.999c-7.33301 -80.333 -12.666 -150.666 -16 -210.999
c-3.33301 -60.333 -5 -106.5 -5 -138.5c0 -24.667 5.66699 -41.667 17 -51s26 -14 44 -14c14.667 0 40.167 10.5 76.5 31.5s80.5 54.167 132.5 99.5s110.166 103.666 174.5 174.999s131.834 157.666 202.5 258.999c20.666 0 40.5 -3 59.5 -9s36 -14.667 51 -26
s27 -25.5 36 -42.5s13.5 -36.167 13.5 -57.5c0 -34 -10.5 -74.167 -31.5 -120.5s-49.834 -95.833 -86.5 -148.5s-79.833 -107 -129.5 -163c-49.666 -56 -103 -110.833 -160 -164.5s-116.5 -104.334 -178.5 -152.001s-123.667 -89.5 -185 -125.5s-120.833 -64.5 -178.5 -85.5
s-111.167 -31.5 -160.5 -31.5c-62.667 0 -115.334 7 -158 21c-42.667 14 -77.167 35.333 -103.5 64s-45.333 64.834 -57 108.501s-17.5 95.167 -17.5 154.5c0 53.333 1 105.333 3 156s5.66699 102.834 11 156.501s12.5 110 21.5 169s20.333 123.667 34 194
s29.834 147.5 48.5 231.5c18.667 84 40.667 177.667 66 281l-499 -615c0 -62.667 -8.5 -127.5 -25.5 -194.5s-40.833 -132.5 -71.5 -196.5s-67 -124.667 -109 -182s-88 -107.5 -138 -150.5s-103.167 -77.167 -159.5 -102.5s-113.833 -38 -172.5 -38
c-48 0 -92.5 7.16699 -133.5 21.5s-76.5 35.333 -106.5 63s-53.5 61.834 -70.5 102.501s-25.5 87.667 -25.5 141c0 25.333 4.5 51 13.5 77s25.167 55.5 48.5 88.5s55 70.667 95 113s91.333 92.833 154 151.5c-4 56 -8.5 113.167 -13.5 171.5s-10.167 115.666 -15.5 171.999
s-10.833 110.666 -16.5 162.999l-16 145c-5 44.333 -9.66699 83.333 -14 117l-10.5 79.5c-96 -236.667 -188.667 -447.667 -278 -633s-176.833 -347.833 -262.5 -487.5s-169.834 -258 -252.501 -355s-165.5 -175.667 -248.5 -236s-166.667 -104.166 -251 -131.499
s-170.833 -41 -259.5 -41c-100.667 0 -188.834 13.833 -264.501 41.5s-138.834 68 -189.501 121s-88.667 118 -114 195s-38 165.167 -38 264.5c0 110.667 13.833 211.167 41.5 301.5s65.334 167.5 113.001 231.5s103.167 113.333 166.5 148s131 52 203 52
c58 0 105.833 -11.167 143.5 -33.5s64.834 -51.833 81.501 -88.5c-19.333 -43.333 -36.5 -86.333 -51.5 -129s-27.5 -83.334 -37.5 -122.001s-17.5 -74.5 -22.5 -107.5s-7.5 -61.167 -7.5 -84.5c0 -44.667 3 -81.667 9 -111s16 -52.833 30 -70.5s32.333 -30.5 55 -38.5
s50.334 -13.667 83.001 -17z" />
    <glyph glyph-name="N" unicode="N" horiz-adv-x="3531" 
d="M2966 1315l100.498 483.004c31 144 60.833 272.833 89.5 386.5s56.667 213.5 84 299.5s55.333 160.333 84 223s58.5 114.834 89.5 156.5c31 41.667 64.333 74.834 100 99.5c35.667 24.667 74.5 42.167 116.5 52.5s88 15.5 138 15.5c55.333 0 105.166 -8.33301 149.5 -25
c44.333 -16.667 81.833 -40 112.5 -70s54.167 -66.167 70.5 -108.5c16.334 -42.333 24.5 -89.166 24.5 -140.5c0 -17.333 -2.16602 -35.333 -6.5 -54s-10.167 -36.667 -17.5 -54s-16 -33.666 -26 -49c-10 -15.333 -20.667 -28.666 -32 -40
c-44.667 -4.66699 -84.834 -10.834 -120.5 -18.5c-35.667 -7.66699 -68.667 -20.834 -99 -39.5c-30.333 -18.667 -58.833 -44.334 -85.5 -77c-26.667 -32.667 -53.334 -75.834 -80 -129.5c-26.667 -53.667 -54 -120 -82 -199s-58.5 -173.833 -91.5 -284.5l-109.5 -386
l-135 -504c5.33301 -28.667 10.333 -61.834 15 -99.501s9 -76.834 13 -117.501s7.16699 -81.5 9.5 -122.5s3.5 -79.5 3.5 -115.5c0 -78.667 -12.667 -149.667 -38 -213s-59.666 -117.166 -103 -161.499c-43.333 -44.333 -94.166 -78.333 -152.5 -102
c-58.333 -23.667 -120.166 -35.5 -185.5 -35.5c-107.333 0 -188.833 17.833 -244.5 53.5s-83.5 83.5 -83.5 143.5c0 23.333 2.5 49.333 7.5 78s12.833 62.334 23.5 101.001s24.5 83 41.5 133s37.833 108.333 62.5 175c-12.667 34 -29.834 74.5 -51.5 121.5l-73 153
l-88 173.5l-98 182.5l-102 180.5l-99.5 168c-89.333 -234.667 -175.5 -443.667 -258.5 -627s-164.167 -344 -243.5 -482s-157.166 -255 -233.499 -351s-152.333 -173.833 -228 -233.5s-151.667 -102.834 -228 -129.501s-154.166 -40 -233.499 -40
c-100.667 0 -187 12.667 -259 38s-131 62.5 -177 111.5s-79.833 109.667 -101.5 182s-32.5 155.5 -32.5 249.5c0 110.667 13.833 211.167 41.5 301.5s65.334 167.5 113.001 231.5s103.334 113.333 167.001 148s131.5 52 203.5 52c57.333 0 105 -11.167 143 -33.5
s65.333 -51.833 82 -88.5c-19.333 -42.667 -36.5 -85.5 -51.5 -128.5s-27.5 -83.833 -37.5 -122.5s-17.5 -74.5 -22.5 -107.5s-7.5 -61.167 -7.5 -84.5c0 -36.667 1.83301 -67.5 5.5 -92.5s9.66699 -45.167 18 -60.5s19.666 -26.333 33.999 -33s32.166 -10 53.499 -10
c25.333 0 53.5 10.167 84.5 30.5s66.833 55.666 107.5 105.999s86.5 117.666 137.5 201.999s109 190.5 174 318.5s137.833 280.167 218.5 456.5l269 614.5c-14 45.333 -26.167 87.333 -36.5 125.999c-10.333 38.667 -18.833 76.334 -25.5 113
c-6.66699 36.667 -11.667 73.167 -15 109.5s-5 74.5 -5 114.5c0 84 15.167 164.667 45.5 242s73 145.833 128 205.5s121 107.167 198 142.5s162.167 53 255.5 53c55.333 0 102.833 -6.5 142.5 -19.5s72.334 -29.667 98 -50c25.667 -20.333 44.5 -43.166 56.5 -68.5
c12 -25.333 18 -50.333 18 -75c0 -28 -4.66699 -58.833 -14 -92.5s-24.5 -73.167 -45.5 -118.5s-48.333 -98.166 -82 -158.5l-124.5 -212.5c20.667 -42.667 45.834 -90.667 75.5 -144l95.5 -166.5l105 -176.5l103.5 -175.5l90.5 -162.5c27.333 -51.333 49.666 -97 67 -137z
" />
    <glyph glyph-name="O" unicode="O" horiz-adv-x="2683" 
d="M2114 385c-57.333 -76.667 -122.004 -146.666 -194.004 -209.999s-150.167 -117.666 -234.5 -162.999s-174.666 -80.5 -270.999 -105.5s-197.833 -37.5 -304.5 -37.5c-148.667 0 -280 22.167 -394 66.5s-209.667 111.166 -287 200.499s-136 201.333 -176 336
s-60 292.667 -60 474c0 120.667 12.667 242.334 38 365.001s60.333 243.167 105 361.5s97.834 233 159.501 344s129 215.167 202 312.5s150.333 186.166 232 266.5c81.667 80.333 164.834 149.5 249.501 207.5s169.334 103 254.001 135s166.667 48 246 48c34 0 65 -6 93 -18
s52 -28.667 72 -50s36 -46.5 48 -75.5s19 -60.5 21 -94.5c41.333 27.333 88 49.333 140 66s109 25 171 25c60 0 115.167 -8.5 165.5 -25.5s95.666 -40.333 136 -70c40.333 -29.667 75.666 -65.167 106 -106.5c30.333 -41.333 55.666 -86.166 76 -134.5
c20.333 -48.333 35.666 -99.666 46 -153.999c10.333 -54.333 15.5 -109.5 15.5 -165.5s-3.66699 -119.167 -11 -189.5s-18.5 -145.333 -33.5 -225s-34 -162.5 -57 -248.5s-50.167 -172.667 -81.5 -260s-66.833 -174.166 -106.5 -260.499s-83.834 -169.5 -132.5 -249.5
c10 -8 22.167 -15.333 36.5 -22s29.833 -12.334 46.5 -17.001s33.667 -8.33398 51 -11.001s34 -4 50 -4c32 0 65.667 7.5 101 22.5s71.333 37.167 108 66.5s73.667 66 111 110s74 95.333 110 154c18.667 -1.33301 37.5 -5.5 56.5 -12.5s36.167 -16.833 51.5 -29.5
s27.833 -27.834 37.5 -45.501s14.5 -37.834 14.5 -60.501c0 -30.667 -8.33301 -67 -25 -109s-40.167 -85.667 -70.5 -131s-66.5 -90 -108.5 -134s-88.5 -83.5 -139.5 -118.5s-105.667 -63.333 -164 -85s-118.5 -32.5 -180.5 -32.5c-28.667 0 -57.667 2 -87 6
s-57.833 10 -85.5 18s-54 17.833 -79 29.5s-47.5 25.167 -67.5 40.5zM925.996 1090c0 -92 8.66309 -176 25.9961 -252s43 -141.167 77 -195.5s76.167 -96.5 126.5 -126.5s108.833 -45 175.5 -45c40 0 79.667 4.33301 119 13s77 21.834 113 39.501
s69.833 39.834 101.5 66.501s59.834 58 84.501 94c-42.667 52 -81.334 109.167 -116.001 171.5s-64 129.666 -88 201.999s-42.5 150 -55.5 233s-19.5 171.5 -19.5 265.5c0 97.333 5.16699 189.5 15.5 276.5s25.5 170.667 45.5 251s44.833 158 74.5 233
s63.834 149.5 102.501 223.5c-65.333 -43.333 -130.166 -94.166 -194.499 -152.5c-64.333 -58.333 -125.333 -123 -183 -194s-111.167 -148.167 -160.5 -231.5s-92.166 -171.5 -128.499 -264.5s-64.666 -190.333 -84.999 -292s-30.5 -206.834 -30.5 -315.501zM2031.99 1110
c23.333 46.667 44.666 96.499 64 149.499c19.333 53 36.666 106.5 52 160.5c15.333 54 28.833 107.5 40.5 160.5s21.334 102.333 29 148c7.66699 45.667 13.5 86.5 17.5 122.5s6 64.667 6 86c0 46 -3 87.5 -9 124.5s-17.5 68.667 -34.5 95s-40.667 47.666 -71 64
c-30.333 16.333 -70.166 27.166 -119.499 32.5c-16.667 -88.667 -31.667 -184.334 -45 -287c-13.333 -102.667 -20 -207.667 -20 -315c0 -97.333 6.66699 -191.666 20 -282.999s36.666 -177.333 69.999 -258z" />
    <glyph glyph-name="P" unicode="P" horiz-adv-x="2699" 
d="M1802 3195c28.667 0 51.168 -2.66895 67.501 -8.00195s28.666 -16 36.999 -32s13.5 -38.333 15.5 -67s3 -66.667 3 -114c122 -8.66699 231.333 -26.834 328 -54.5c96.667 -27.667 181.834 -62.834 255.501 -105.5c73.667 -42.667 136.5 -92.334 188.5 -149.001
s94.5 -118.5 127.5 -185.5s57.167 -138.5 72.5 -214.5s23 -155 23 -237c0 -104 -11.667 -205 -35 -303s-55.833 -192 -97.5 -282s-91.5 -175.167 -149.5 -255.5s-121.833 -154.666 -191.5 -222.999s-143.667 -130.166 -222 -185.499s-159 -102.666 -242 -141.999
s-167 -70.5 -252 -93.5s-168.833 -36.167 -251.5 -39.5c-50 -142.667 -108.5 -269.167 -175.5 -379.5s-141.833 -203.333 -224.5 -279s-173 -133 -271 -172s-203.333 -58.5 -316 -58.5c-70.667 0 -134.334 9.83301 -191.001 29.5s-104.834 47.5 -144.501 83.5
s-70.167 79.167 -91.5 129.5s-32 106.166 -32 167.499c0 40.667 8 80 24 118s37.333 71.833 64 101.5s57.167 53.834 91.5 72.501s69.833 29 106.5 31c44 -47.333 87 -84.333 129 -111s82.333 -40 121 -40c65.333 0 125.166 48.667 179.499 146s107.833 242.333 160.5 435
l67 253.5l67.5 273.5l67 281.5l64.5 277l60.5 260.5l54.5 231c-58 -10 -115.667 -23.833 -173 -41.5s-111.5 -37.834 -162.5 -60.5c-51 -22.667 -97.5 -47 -139.5 -73s-77.333 -52.333 -106 -79c-22.667 0 -45.334 4.66699 -68.001 14s-43 23 -61 41s-32.5 40.5 -43.5 67.5
s-16.5 58.5 -16.5 94.5c0 66.667 22.667 133.667 68 201s109 130 191 188s180 109 294 153s239.667 76.333 377 97c8 34 24.833 65.5 50.5 94.5s55.334 54.167 89.001 75.5s69.334 38 107.001 50s72.834 18 105.501 18zM2277 1847c0 57.333 -6.83398 112.667 -20.501 166
s-38 102 -73 146s-82.667 82.667 -143 116s-137.166 58.666 -230.499 76c-10 -86 -22.167 -182.333 -36.5 -289s-30.166 -218.5 -47.499 -335.5s-36 -236.333 -56 -358s-41.333 -240.5 -64 -356.5c10 -2 20.5 -3.16699 31.5 -3.5s19.5 -0.5 25.5 -0.5
c59.333 0 115.666 10.5 168.999 31.5s102.833 50.333 148.5 88s86.667 82.5 123 134.5s67.333 109 93 171s45.5 128 59.5 198s21 142 21 216z" />
    <glyph glyph-name="Q" unicode="Q" horiz-adv-x="2585" 
d="M-82 66c0 38.667 5.66992 73.1562 17.0029 103.489s31.833 56 61.5 77s70.167 37 121.5 48s117 16.5 197 16.5c39.333 0 84.833 -2.83301 136.5 -8.5s107 -14 166 -25s120 -24.667 183 -41s125.167 -35.166 186.5 -56.499c112.667 117.333 218 234.5 316 351.5
s187.667 232 269 345s153.833 223.333 217.5 331s117.334 210.834 161.001 309.501s77 192.334 100 281.001s34.5 170.667 34.5 246c0 27.333 -3.5 53 -10.5 77s-19.5 47.833 -37.5 71.5s-42.333 48.334 -73 74c-30.667 25.667 -69.667 53.834 -117 84.5
c-20.667 13.333 -38.834 26.833 -54.501 40.5s-28.834 28.834 -39.501 45.5c-10.667 16.667 -18.834 35 -24.501 55s-8.5 42.667 -8.5 68c0 14.667 1.16699 29.667 3.5 45s6.83301 30.333 13.5 45c-90 -62.667 -170.5 -128.834 -241.5 -198.5
c-71 -69.667 -133.5 -140.834 -187.5 -213.501s-100 -145.5 -138 -218.5s-69 -144.167 -93 -213.5s-41.5 -135.833 -52.5 -199.5s-16.5 -122.5 -16.5 -176.5c0 -72 4.33301 -136.5 13 -193.5s23.5 -110 44.5 -159s49.5 -95.5 85.5 -139.5s81 -89 135 -135
c-2 -40 -11.5 -74.167 -28.5 -102.5s-38 -51.666 -63 -69.999s-52.333 -31.666 -82 -39.999s-57.834 -12.5 -84.501 -12.5c-80.667 0 -154.667 10.167 -222 30.5s-128 48.333 -182 84s-101.333 78 -142 127s-74.5 101.833 -101.5 158.5s-47.333 116 -61 178
s-20.5 124.333 -20.5 187c0 77.333 8 159.666 24 246.999s39.667 176.5 71 267.5s70.166 182 116.499 273s99.833 178.5 160.5 262.5s128.334 163 203.001 237s156 139.333 244 196c90.667 58 179.5 99.833 266.5 125.5s171.5 38.5 253.5 38.5c58 0 104.333 -12.333 139 -37
s54 -58.667 58 -102c20.667 32 45.334 57.833 74.001 77.5s58.167 35 88.5 46s60.166 18.333 89.499 22s54.666 5.5 76 5.5c105.333 0 199.333 -20.333 282 -61s152.5 -95.167 209.5 -163.5s100.5 -147.166 130.5 -236.5c30 -89.333 45 -182.666 45 -279.999
c0 -188.667 -32.333 -376.667 -97 -564s-157.5 -375 -278.5 -563s-267.5 -377 -439.5 -567s-365.667 -381.667 -581 -575l291 -116l303 -123.5c102.667 -41 206.667 -80.333 312 -118s211.333 -71 318 -100s213.667 -52.167 321 -69.5s214.666 -26 322 -26
c60 0 116.667 2.33301 170 7s108.666 13.334 166 26.001c21.333 64.667 40.833 117.667 58.5 159s34.167 73.833 49.5 97.5s30.5 40 45.5 49s30.833 13.5 47.5 13.5c40 0 75.5 -9.83301 106.5 -29.5s57.167 -44 78.5 -73s37.5 -59.833 48.5 -92.5s16.5 -62 16.5 -88
c0 -43.333 -6.66699 -83.166 -20 -119.499s-35.666 -71 -67 -104c-31.333 -33 -72.666 -64.833 -124 -95.5c-51.333 -30.667 -115 -62 -191 -94c-67.333 -94.667 -155.833 -165.5 -265.5 -212.5s-246.167 -70.5 -409.5 -70.5c-84 0 -172.167 7.5 -264.5 22.5
s-186.666 35.667 -283 62c-96.333 26.333 -193.666 57.333 -291.999 93s-195.333 74.334 -291 116.001s-188.834 85.334 -279.501 131.001s-177 91.334 -259 137.001s-158.167 90.834 -228.5 135.501s-132.833 86.667 -187.5 126
c-80.667 -43.333 -166.334 -76.666 -257.001 -99.999s-182.667 -35 -276 -35c-39.333 0 -78.5 7.5 -117.5 22.5s-76 35.667 -111 62s-67.5 57.5 -97.5 93.5s-56.167 75 -78.5 117s-39.666 86 -51.999 132s-18.5 92.333 -18.5 139z" />
    <glyph glyph-name="R" unicode="R" horiz-adv-x="2785" 
d="M1761 1184c65.333 88 119.833 167.498 163.5 238.498s78.5 137.833 104.5 200.5s44.5 122.834 55.5 180.501s16.5 117.167 16.5 178.5c0 54.667 -8.5 106 -25.5 154s-44.333 90.5 -82 127.5s-87 67.5 -148 91.5s-135.5 39 -223.5 45c-4 -130 -23.833 -296.667 -59.5 -500
s-85.5 -436.666 -149.5 -699.999c41.333 8 86.333 12 135 12c39.333 0 77.5 -2.66699 114.5 -8s69.833 -12 98.5 -20zM2769 323.998c16.667 -18.667 29.0039 -41.8262 37.0039 -69.4932s12 -53.834 12 -78.501c0 -37.333 -7.66699 -74.833 -23 -112.5
s-36.666 -73.834 -64 -108.501c-27.333 -34.667 -60.166 -67 -98.5 -97c-38.333 -30 -80.5 -56 -126.5 -78s-95.333 -39.333 -148 -52s-107 -19 -163 -19c-38.667 0 -72.834 4.33301 -102.501 13s-57.167 23.834 -82.5 45.501s-49.666 50.667 -72.999 87
s-47.666 82.166 -72.999 137.499l-117 251c-35.333 74 -68.333 139.667 -99 197s-59.5 107 -86.5 149s-53.833 77.667 -80.5 107s-53.834 53.333 -81.501 72s-57.167 33 -88.5 43c-18.667 -74.667 -36 -151.167 -52 -229.5s-30.167 -152.833 -42.5 -223.5
s-22.5 -135.167 -30.5 -193.5s-13 -104.833 -15 -139.5c-16 -22.667 -41.167 -40.667 -75.5 -54s-77.166 -20 -128.499 -20c-38.667 0 -75.334 6.16699 -110.001 18.5s-66.334 29 -95.001 50s-54.334 45.167 -77.001 72.5s-42 55.833 -58 85.5s-28.167 59.5 -36.5 89.5
s-12.5 58.333 -12.5 85c0 18.667 1 39.167 3 61.5s5.66699 48.5 11 78.5s12.666 64.667 21.999 104s21.666 85.166 36.999 137.499l55 179.5l76 230l192 571.5l214 669.5c-56.667 -6.66699 -112.167 -20.167 -166.5 -40.5s-106.833 -45.666 -157.5 -76
c-50.667 -30.333 -98.834 -64.833 -144.501 -103.5s-88.167 -79.5 -127.5 -122.5s-75.166 -87.667 -107.499 -134s-60.166 -92.5 -83.499 -138.5c-12 -6 -26.5 -10.833 -43.5 -14.5s-33.833 -5.5 -50.5 -5.5c-27.333 0 -52 5.66699 -74 17s-40.5 27.5 -55.5 48.5
s-26.5 46.5 -34.5 76.5s-12 63.333 -12 100c0 69.333 18.667 143.166 56 221.5c37.333 78.333 90 155.833 158 232.5s149.667 150.167 245 220.5s201.333 132.166 318 185.499s242.167 96 376.5 128s274.166 48 419.499 48c176 0 330 -20.5 462 -61.5
s242.167 -98 330.5 -171s154.5 -160.167 198.5 -261.5s66 -212.333 66 -333c0 -101.333 -15 -200.5 -45 -297.5s-74.667 -194.167 -134 -291.5s-132.833 -196 -220.5 -296s-189.5 -203.667 -305.5 -311c21.333 -20.667 47.166 -49.167 77.5 -85.5
c30.333 -36.333 62.833 -79.333 97.5 -129s70.667 -105.334 108 -167.001s74 -128.5 110 -200.5c12.667 -24.667 24.834 -44.834 36.5 -60.501c11.667 -15.667 23.5 -28.167 35.5 -37.5s24.5 -15.833 37.5 -19.5s27.167 -5.5 42.5 -5.5c9.33301 0 21 0.666992 35 2
s28.833 3.16602 44.5 5.49902s31.334 5 47 8c15.667 3 29.5 6.16699 41.5 9.5z" />
    <glyph glyph-name="S" unicode="S" horiz-adv-x="2204" 
d="M61 512c0 50 4.33691 100.668 13.0039 152.001s21.667 101 39 149s38.666 93 63.999 135s54.5 78.667 87.5 110s69.833 56 110.5 74s85 27 133 27c35.333 0 67.5 -5.16699 96.5 -15.5s52.833 -26.833 71.5 -49.5v-78c0 -139.333 14.667 -259.5 44 -360.5
s68.5 -184.333 117.5 -250s105.167 -114.167 168.5 -145.5s129.333 -47 198 -47c39.333 0 75.833 8.5 109.5 25.5s63.167 41 88.5 72s45.166 68.167 59.499 111.5s21.5 91 21.5 143c0 22.667 -1.16699 45.167 -3.5 67.5s-8 47 -17 74s-22.167 57.833 -39.5 92.5
s-41.166 75.167 -71.499 121.5s-67.833 100 -112.5 161l-162 212.5c-54 70 -99.333 137 -136 201s-66.167 127 -88.5 189s-38.166 123.667 -47.499 185s-14 123.666 -14 186.999c0 76 9.5 152 28.5 228s46.333 148.833 82 218.5s79 134.667 130 195
s108.667 112.833 173 157.5s134.666 79.667 210.999 105s157.5 38 243.5 38c110.667 0 205 -14.5 283 -43.5s141.833 -67 191.5 -114s86 -100.333 109 -160s34.5 -120.167 34.5 -181.5c0 -40 -5 -77.833 -15 -113.5s-23.167 -68.167 -39.5 -97.5s-35 -54.666 -56 -76
c-21 -21.333 -42.833 -37.666 -65.5 -49c-54 45.333 -104.333 84.333 -151 117s-91 59.834 -133 81.5c-42 21.667 -82.333 37.667 -121 48s-77 15.5 -115 15.5c-22.667 0 -43.834 -4.66699 -63.501 -14s-37 -22.666 -52 -39.999s-26.833 -38 -35.5 -62s-13 -51 -13 -81
c0 -32.667 4.83301 -68 14.5 -106s26.334 -81.333 50.001 -130s55.167 -104.5 94.5 -167.5s88.666 -135.833 147.999 -218.5c57.333 -81.333 107 -154.5 149 -219.5s78 -124.167 108 -177.5s54.333 -102 73 -146s33.334 -85.833 44 -125.5
c10.667 -39.667 18 -78.334 22 -116.001s6 -76.5 6 -116.5c0 -77.333 -11.5 -156 -34.5 -236s-56.667 -157.667 -101 -233s-98.833 -146.166 -163.5 -212.499s-138.167 -124.333 -220.5 -174s-173.333 -88.834 -273 -117.501s-206.834 -43 -321.501 -43
c-105.333 0 -201.833 9.83301 -289.5 29.5s-166.834 47.5 -237.501 83.5s-132.5 79.167 -185.5 129.5s-97.167 106 -132.5 167s-61.833 126.333 -79.5 196s-26.5 142.167 -26.5 217.5z" />
    <glyph glyph-name="T" unicode="T" horiz-adv-x="2499" 
d="M2138 492c-42 -141.333 -95.8359 -264.502 -161.503 -369.502s-140.834 -192 -225.501 -261s-177.167 -120.5 -277.5 -154.5s-206.5 -51 -318.5 -51c-84.667 0 -163.334 13 -236.001 39s-135.5 62 -188.5 108s-94.5 100.5 -124.5 163.5s-45 131.5 -45 205.5
c0 47.333 7.33301 90.5 22 129.5s36 72.833 64 101.5s62.333 51.167 103 67.5s87 24.833 139 25.5c28.667 -38 60.334 -75 95.001 -111s69.334 -67.833 104.001 -95.5s68.167 -50 100.5 -67s60.833 -25.5 85.5 -25.5c32.667 0 62.5 12 89.5 36s52.167 60.167 75.5 108.5
s45.833 108.833 67.5 181.5s43.834 157.667 66.501 255l70 308.5l53 242l40.5 188l32.5 146.5c10 43.333 19.667 82.333 29 117s19 68 29 100c-82 -38.667 -171.667 -75.5 -269 -110.5s-197 -65.5 -299 -91.5s-203.833 -46.667 -305.5 -62s-198.167 -23 -289.5 -23
c-92 0 -175.167 13 -249.5 39s-137.666 64.833 -189.999 116.5s-92.666 115.834 -120.999 192.501s-42.5 165.667 -42.5 267.001c0 82.667 10.833 163 32.5 241s51.5 151.667 89.5 221s83.167 132.833 135.5 190.5s109.333 107.334 171 149
c61.667 41.667 126.834 74.167 195.501 97.5s138 35 208 35c62.667 0 125.167 -2.16699 187.5 -6.5s127.166 -11.166 194.499 -20.5c67.333 -9.33301 138.833 -21.166 214.5 -35.5c75.667 -14.333 158.167 -31.833 247.5 -52.5l349.5 -79.5l291 -63.5l243 -49.5
c73.667 -14.333 142.5 -26.833 206.5 -37.5s124.167 -19.667 180.5 -27s111.333 -13.333 165 -18s107.334 -8.16699 161 -10.5c53.667 -2.33301 109.834 -4.16602 168.5 -5.5c7.33301 -4.66699 14.166 -12.167 20.5 -22.5c6.33301 -10.333 12 -21.666 17 -34
c5 -12.333 8.83301 -25.5 11.5 -39.5s4 -27 4 -39c0 -70 -14.833 -132.833 -44.5 -188.5s-70 -103 -121 -142s-110.5 -68.833 -178.5 -89.5s-140.333 -31 -217 -31c-29.333 0 -55.666 0.333008 -79 1c-23.333 0.666992 -45.333 2 -66 4s-41 4.66699 -61 8
s-41.5 7.66602 -64.5 13c-23 5.33301 -48.333 12 -76 20l-95.5 28c-14.667 -43.333 -30.167 -95.666 -46.5 -157c-16.333 -61.333 -33.166 -128.5 -50.5 -201.5l-53 -231.5l-54 -248.5l-54.5 -252.5l-54 -242l-52 -218c-17 -68 -33.5 -128.333 -49.5 -181zM962.997 2085
c49.333 0 100.174 2 152.507 6s104.333 8.83301 156 14.5s101.667 11.834 150 18.5l133.5 18.5l107 14.5c30.667 4 54.334 6 71.001 6c17.333 0 34.666 -1.33301 51.999 -4s33.666 -6.5 48.999 -11.5s29.166 -11.5 41.499 -19.5s22.166 -17 29.499 -27
c6 18.667 14.5 39.5 25.5 62.5s23.333 45.833 37 68.5s27.834 44.167 42.501 64.5s28.667 37.166 42 50.5l-342 110.5l-274.5 82.5c-81 23.333 -153 42.833 -216 58.5s-119 28.167 -168 37.5s-92 16 -129 20s-70.167 6 -99.5 6c-38.667 0 -73.834 -6.16699 -105.501 -18.5
s-58.834 -30 -81.501 -53s-40.167 -50.833 -52.5 -83.5s-18.5 -69.667 -18.5 -111c0 -53.333 9.16699 -99.5 27.5 -138.5s44.666 -71.333 78.999 -97s76.166 -44.667 125.499 -57s104.666 -18.5 165.999 -18.5z" />
    <glyph glyph-name="U" unicode="U" horiz-adv-x="2589" 
d="M147 2535c0 74 21.5049 142.671 64.5049 206.004s102.5 118.333 178.5 165s165.667 83.334 269 110c103.333 26.667 215.333 40 336 40c97.333 0 181.666 -12.833 252.999 -38.5s130.5 -61 177.5 -106s82 -98.167 105 -159.5s34.5 -128 34.5 -200
c0 -42.667 -1.83301 -86.167 -5.5 -130.5s-9.83398 -91.5 -18.501 -141.5s-20.167 -103.667 -34.5 -161s-32.5 -120.833 -54.5 -190.5s-48 -146.167 -78 -229.5l-104 -278c-38.667 -99.333 -71 -187 -97 -263s-46.667 -142.833 -62 -200.5
s-26.166 -107.334 -32.499 -149.001s-9.5 -77.834 -9.5 -108.501c0 -100.667 21.333 -174.834 64 -222.501s107.334 -71.5 194.001 -71.5c70.667 0 143.167 30.667 217.5 92s147.166 151.666 218.499 270.999s139.666 267.166 204.999 443.499
s124.666 379.833 177.999 610.5c-20.667 92.667 -36 182.834 -46 270.501s-15 170.834 -15 249.5c0 78.667 5.83301 151.167 17.5 217.5s29.667 123.5 54 171.5s55.666 85.333 94 112c38.333 26.667 84.166 40 137.5 40c38 0 76.167 -5.83301 114.5 -17.5
s74.833 -27.334 109.5 -47c34.667 -19.667 67.167 -42.334 97.5 -68.001s56.5 -52.667 78.5 -81s39.333 -56.833 52 -85.5s19 -56 19 -82c0 -36 -2.16699 -72 -6.5 -108s-12.666 -77.167 -25 -123.5c-12.333 -46.333 -29.5 -100.5 -51.5 -162.5s-50.333 -137 -85 -225
c-52 -240 -111.167 -456.833 -177.5 -650.5s-138.666 -365.667 -216.999 -516s-161.833 -279.666 -250.5 -387.999s-181.334 -197.5 -278.001 -267.5s-196.334 -121.667 -299.001 -155s-207.334 -50 -314.001 -50c-124 0 -235.333 16 -334 48s-182.5 78.5 -251.5 139.5
s-121.833 135.5 -158.5 223.5s-55 188.333 -55 301c0 51.333 4.33301 107 13 167s20.334 121 35.001 183s31.667 123.833 51 185.5s39.666 119.5 60.999 173.5l121 314l90.5 248c25.667 72.667 47 136.5 64 191.5s30.5 103.167 40.5 144.5s17.167 76.666 21.5 106
c4.33301 29.333 6.5 55 6.5 77c0 26 -2.83301 47.167 -8.5 63.5s-13.667 29.166 -24 38.5c-10.333 9.33301 -22.5 15.833 -36.5 19.5s-29.333 5.5 -46 5.5c-20 0 -44.167 -5.66699 -72.5 -17s-59.166 -27.166 -92.499 -47.5c-33.333 -20.333 -68.333 -44.833 -105 -73.5
s-73.334 -60.334 -110.001 -95c-32 5.33301 -61.333 17.333 -88 36s-49.667 41.334 -69 68c-19.333 26.667 -34.333 55.667 -45 87s-16 61.666 -16 91z" />
    <glyph glyph-name="V" unicode="V" horiz-adv-x="2937" 
d="M2658 3011c89.333 0 168.333 -18.3369 237 -55.0039s126.5 -86.334 173.5 -149c47 -62.667 82.5 -135.334 106.5 -218.001s36 -170 36 -262c0 -138 -14.5 -278 -43.5 -420s-69.667 -282.167 -122 -420.5s-114.666 -272.666 -187 -402.999
c-72.333 -130.333 -151.666 -253 -237.999 -368s-178.333 -220.333 -276 -316s-197.667 -178 -300 -247s-206 -122.667 -311 -161s-207.833 -57.5 -308.5 -57.5c-132.667 0 -244.334 18.333 -335.001 55s-163.5 87.334 -218.5 152.001s-94.5 141 -118.5 229s-36 183 -36 285
c0 82.667 14 176.667 42 282s70 223 126 353c-93.333 3.33301 -181.166 19.166 -263.499 47.499s-154.333 67.833 -216 118.5s-110.5 111.334 -146.5 182.001s-54 150 -54 238c0 72.667 12.833 145.334 38.5 218.001s61 143.667 106 213s97.833 136.166 158.5 200.5
c60.667 64.333 125.834 124.5 195.501 180.5s142.5 107.167 218.5 153.5s151.5 86 226.5 119s148 58.5 219 76.5s136.833 27 197.5 27c74.667 0 142 -8.5 202 -25.5s111.167 -44.333 153.5 -82s74.833 -87 97.5 -148s34 -135.5 34 -223.5
c0 -53.333 -5.16699 -108.333 -15.5 -165s-25.166 -116.667 -44.499 -180s-43 -131.166 -71 -203.5c-28 -72.333 -59.833 -150.5 -95.5 -234.5l-118 -273.5l-138.5 -320.5c-24.667 -58 -45.334 -110.333 -62.001 -157s-30.167 -89.667 -40.5 -129
s-17.666 -76.166 -21.999 -110.499s-6.5 -68.5 -6.5 -102.5c0 -28.667 3.33301 -55.667 10 -81s17.167 -47.5 31.5 -66.5s33.166 -34 56.499 -45s52 -16.5 86 -16.5c42.667 0 88.667 11.833 138 35.5s100.166 57.334 152.499 101.001s104.666 96.167 156.999 157.5
s102.666 129.5 151 204.5c48.333 75 93.333 155.833 135 242.5s78 177 109 271s55.333 191 73 291s26.5 200.667 26.5 302c0 48 -5.33301 97.333 -16 148s-27.667 102.5 -51 155.5s-53.5 107.833 -90.5 164.5s-81.5 115 -133.5 175c8 44 23.333 82.5 46 115.5
s50.667 60.5 84 82.5s71.666 38.333 115 49c43.333 10.667 90 16 140 16zM754 1978c0 -34 4.83008 -65.3311 14.4971 -93.998s25.834 -56.334 48.501 -83.001s52.167 -52.834 88.5 -78.501s81.166 -52.5 134.499 -80.5l127.5 267l109 226.5
c31.667 68.333 56.834 129.333 75.501 183s28 98.834 28 135.5c0 25.333 -1.5 45.833 -4.5 61.5s-7.66699 27.667 -14 36s-14.333 13.833 -24 16.5s-21.167 4 -34.5 4c-19.333 0 -46.166 -8 -80.499 -24s-71.833 -37.833 -112.5 -65.5s-82.167 -60.5 -124.5 -98.5
s-80.666 -79 -114.999 -123s-62.333 -90 -84 -138s-32.5 -96.333 -32.5 -145z" />
    <glyph glyph-name="W" unicode="W" horiz-adv-x="3879" 
d="M885 1290c-93.333 3.33301 -181.171 19.167 -263.504 47.5s-154.333 67.833 -216 118.5s-110.5 111.334 -146.5 182.001s-54 150 -54 238c0 72.667 12.833 145.334 38.5 218.001s61 143.667 106 213s97.833 136.166 158.5 200.5
c60.667 64.333 125.834 124.5 195.501 180.5s142.5 107.167 218.5 153.5s151.5 86 226.5 119s148 58.5 219 76.5s136.833 27 197.5 27c74.667 0 142 -8.5 202 -25.5s111.167 -44.333 153.5 -82s74.833 -87 97.5 -148s34 -135.5 34 -223.5c0 -80 -14.333 -166.333 -43 -259
s-67.667 -196 -117 -310l-172 -380l-209 -469c-24.667 -58 -45.334 -111 -62.001 -159s-30.167 -92.5 -40.5 -133.5s-17.666 -79.333 -21.999 -115s-6.5 -70.5 -6.5 -104.5c0 -28.667 4.16699 -55.667 12.5 -81s20.833 -47.5 37.5 -66.5s37.5 -34 62.5 -45
s54.5 -16.5 88.5 -16.5c36 0 71.333 8.5 106 25.5s69.667 41.167 105 72.5s71.333 69.166 108 113.499s75 94.166 115 149.499c0 94.667 5.33301 189.667 16 285s25.667 188.833 45.001 280.5c19.333 91.667 42.666 180.167 70 265.5c27.333 85.333 58 165.333 92 240
s70.667 142.834 110 204.501s80.5 114.5 123.5 158.5s87.333 78.167 133 102.5s92.167 36.5 139.5 36.5c44 0 84.167 -6.33301 120.5 -19s67.333 -31 93 -55s45.667 -53.5 60 -88.5s21.5 -75.167 21.5 -120.5c0 -114 -16.667 -230.5 -50 -349.5s-77 -237.833 -131 -356.5
s-115.167 -235.334 -183.5 -350.001s-137.833 -224 -208.5 -328c9.33301 -38.667 20.166 -74 32.5 -106c12.333 -32 26.666 -59.167 43 -81.5c16.333 -22.333 34.833 -39.666 55.5 -51.999s43.667 -18.5 69 -18.5c42.667 0 87.167 12.5 133.5 37.5s93.166 60.333 140.5 106
c47.333 45.667 94 100.5 140 164.5s89.833 135 131.5 213s80.167 161.667 115.5 251s66 182.166 92 278.499s46.333 195 61 296s22 202.167 22 303.5c0 57.333 -5.5 110.333 -16.5 159s-28.5 96.834 -52.5 144.5c-24 47.667 -55.167 96.834 -93.5 147.501
s-85.166 106.667 -140.5 168c16.667 88 57.834 153.667 123.5 197c65.667 43.333 148.834 65 249.5 65c89.333 0 167.666 -19 235 -57c67.333 -38 123.5 -89 168.5 -153s79 -138 102 -222s34.5 -172 34.5 -264c0 -138 -11 -277.333 -33 -418s-53.5 -279 -94.5 -415
s-90.333 -267.833 -148 -395.5s-122.167 -247.5 -193.5 -359.5s-148.5 -214.667 -231.5 -308s-170.167 -173.333 -261.5 -240s-186 -118.5 -284 -155.5s-197.333 -55.5 -298 -55.5c-102.667 0 -196.167 29.333 -280.5 88s-153.166 149.334 -206.499 272.001
c-66.667 -74.667 -133.5 -138.834 -200.5 -192.501s-134.667 -97.834 -203 -132.501s-137 -60.167 -206 -76.5s-138.833 -24.5 -209.5 -24.5c-103.333 0 -192.5 15 -267.5 45s-136.667 72.5 -185 127.5s-84 121.333 -107 199s-34.5 164.167 -34.5 259.5
c0 39.333 4 86.833 12 142.5s20.667 117.167 38 184.5s39.833 139.5 67.5 216.5s60.834 156.5 99.501 238.5zM753.995 1978c0 -34 4.83008 -65.332 14.4971 -93.999s25.834 -56.334 48.501 -83.001s52.167 -52.834 88.5 -78.501s81.166 -52.5 134.499 -80.5l127.5 267
l109 226.5c31.667 68.333 56.834 129.333 75.501 183s28 98.834 28 135.501c0 25.333 -1.5 45.833 -4.5 61.5s-7.66699 27.667 -14 36s-14.333 13.833 -24 16.5s-21.167 4 -34.5 4c-19.333 0 -46.166 -8 -80.499 -24s-71.833 -37.833 -112.5 -65.5
s-82.167 -60.5 -124.5 -98.5s-80.666 -79 -114.999 -123s-62.333 -90 -84 -138s-32.5 -96.333 -32.5 -145z" />
    <glyph glyph-name="X" unicode="X" horiz-adv-x="3219" 
d="M201 442c0 78 13.499 161.655 40.499 250.988s67.667 181.166 122 275.499s122.666 189.5 204.999 285.5s178.666 189.333 288.999 280s235 177.334 374 260.001s292.5 157.667 460.5 225l-45 226c-56 20.667 -96.667 52.667 -122 96s-38 100 -38 170
c0 34.667 6.33301 73.334 19 116c12.667 42.667 30.167 85.834 52.5 129.5c22.333 43.667 48.833 86.167 79.5 127.5s63.834 78.166 99.501 110.5c35.667 32.333 73.334 58.166 113.001 77.5c39.667 19.333 79.5 29 119.5 29c35.333 0 67.666 -6 96.999 -18
s56.833 -33.333 82.5 -64s50.167 -72 73.5 -124s46.833 -118.167 70.5 -198.5s48.167 -176.166 73.5 -287.5c25.333 -111.333 52.666 -241.333 82 -390l205 273c62 78.667 119.333 146.834 172 204.5c52.667 57.667 101.5 105.834 146.5 144.5
c45 38.667 87.5 69.667 127.5 93s78.5 39.833 115.5 49.5s73.833 14.5 110.5 14.5c46 0 87.667 -6.5 125 -19.5s69.166 -31.333 95.5 -55c26.333 -23.667 46.666 -52.5 61 -86.5c14.333 -34 21.5 -72 21.5 -114c0 -26.667 -3.66699 -53.334 -11 -80
c-7.33301 -26.667 -17.333 -50.334 -30 -71c-47.333 -16.667 -92 -33.167 -134 -49.5s-82.667 -34 -122 -53s-77.666 -40 -115 -63c-37.333 -23 -75.333 -49.667 -114 -80s-78.667 -64.666 -120 -102.999s-85.166 -82.166 -131.5 -131.499
c-46.333 -49.333 -95.833 -105 -148.5 -167l-172 -209c27.333 -159.333 51.666 -295.666 73 -408.999c21.333 -113.333 41 -208.666 59 -285.999s35 -139.166 51 -185.499s32.333 -81.666 49 -105.999s34.334 -40.166 53 -47.499c18.667 -7.33301 39.667 -11 63 -11
c37.333 0 78.833 13.333 124.5 40s94.667 64.834 147 114.501s107.666 109.834 166 180.501c58.333 70.667 118.833 150 181.5 238c24.667 0 46.334 -4 65 -12c18.667 -8 34.5 -18.667 47.5 -32s22.833 -29 29.5 -47s10 -36.667 10 -56c0 -32 -9 -70.5 -27 -115.5
s-43.333 -93.667 -76 -146s-71.667 -106.5 -117 -162.5s-95 -110.833 -149 -164.5s-111.5 -104.667 -172.5 -153s-123.667 -90.666 -188 -126.999s-129.5 -65.166 -195.5 -86.499s-130.667 -32 -194 -32c-53.333 0 -101.833 4.83301 -145.5 14.5s-83.667 26.667 -120 51
s-69.666 57.5 -100 99.5c-30.333 42 -58.666 95.333 -84.999 160s-51.166 142.334 -74.499 233.001s-46.333 196.667 -69 318c-113.333 -180 -218.5 -331.333 -315.5 -454s-190 -221.667 -279 -297s-176.333 -129.333 -262 -162s-174.167 -49 -265.5 -49
c-82 0 -160.167 12 -234.5 36s-139.5 61.167 -195.5 111.5s-100.667 114.5 -134 192.5s-50 170.667 -50 278zM1749 1711.99c-156 -104.667 -288 -209 -396 -313s-195.833 -203.833 -263.5 -299.5s-116.667 -185.334 -147 -269.001s-45.5 -157.167 -45.5 -220.5
c0 -53.333 12.333 -93.166 37 -119.499s58.667 -39.5 102 -39.5c45.333 0 95 18.5 149 55.5s114 90.667 180 161s138.833 156.5 218.5 258.5l263.5 348z" />
    <glyph glyph-name="Y" unicode="Y" horiz-adv-x="2974" 
d="M2535 303c66 47.333 129.498 96.667 190.498 148s120.667 107 179 167s115.833 125.333 172.5 196s113.667 149 171 235c18.667 -1.33301 36.5 -4.83301 53.5 -10.5s32.167 -14 45.5 -25s24 -24.833 32 -41.5s12 -36.334 12 -59.001
c0 -51.333 -15.167 -108.333 -45.5 -171s-71.166 -128.167 -122.5 -196.5c-51.333 -68.333 -111 -137.833 -179 -208.5s-139.667 -139.334 -215 -206.001s-152.166 -129.834 -230.5 -189.501c-78.333 -59.667 -153.833 -112.5 -226.5 -158.5
c-28.667 -61.333 -61.167 -121.333 -97.5 -180s-76 -114 -119 -166s-89.167 -99.667 -138.5 -143s-101.333 -80.666 -156 -111.999s-112 -55.833 -172 -73.5s-122 -26.5 -186 -26.5c-31.333 0 -64.333 3.83301 -99 11.5s-68.834 18.834 -102.501 33.501
s-65.667 32.667 -96 54s-57.166 45.333 -80.499 72s-41.833 56 -55.5 88s-20.5 66 -20.5 102c0 42 16.667 85.5 50 130.5s85.333 94 156 147s161 111 271 174s241.667 133.5 395 211.5c14 35.333 27.5 75.333 40.5 120s25.833 92.834 38.5 144.501
s25.334 106.167 38.001 163.5l39 175c-55.333 -76 -115.833 -143.833 -181.5 -203.5s-133.834 -110.334 -204.501 -152.001s-142.667 -73.5 -216 -95.5s-146 -33 -218 -33c-78.667 0 -148.667 12.5 -210 37.5s-113.166 60 -155.499 105s-74.5 98.833 -96.5 161.5
s-33 132 -33 208c0 37.333 2.33301 75.666 7 114.999s12.167 81.5 22.5 126.5s23.5 93.167 39.5 144.5s35.333 107 58 167c-93.333 3.33301 -181.5 19.333 -264.5 48s-155.5 68.5 -217.5 119.5s-111.167 112.167 -147.5 183.5s-54.5 151 -54.5 239
c0 72.667 14 144.667 42 216s66.167 140.666 114.5 208c48.333 67.333 105.166 131.833 170.499 193.5s135.333 119.167 210 172.5s152.334 101.666 233.001 145c80.667 43.333 160.334 80.5 239.001 111.5s154.5 54.833 227.5 71.5s139.833 25 200.5 25
c138.667 0 243 -28.167 313 -84.5s105 -140.166 105 -251.5c0 -26 -1.33301 -51.5 -4 -76.5s-8.83398 -55 -18.501 -90s-24.167 -77.833 -43.5 -128.5s-45.5 -114.667 -78.5 -192l-123.5 -281l-178 -395c-36 -80 -64.833 -146.667 -86.5 -200s-38.167 -98.333 -49.5 -135
s-18.833 -67.5 -22.5 -92.5s-5.5 -49.167 -5.5 -72.5c0 -45.333 12 -79.833 36 -103.5s55.667 -35.5 95 -35.5c44 0 90.333 6.33301 139 19s97.334 31 146.001 55s96.667 53.5 144 88.5s91.333 74.833 132 119.5c24.667 212.667 49.334 403.834 74 573.501
c24.667 169.667 50.334 320.167 77 451.501c26.667 131.333 54.5 244 83.5 338s60 171.167 93 231.5s68.5 104.666 106.5 133c38 28.333 79 42.5 123 42.5c34.667 0 69.334 -5.83301 104 -17.5c34.667 -11.667 67.834 -27.167 99.5 -46.5c31.667 -19.333 61 -42 88 -68
s50.5 -53 70.5 -81s35.667 -56.5 47 -85.5s17 -56.5 17 -82.5c0 -36 -4.5 -73.167 -13.5 -111.5s-22.833 -80.666 -41.5 -127c-18.667 -46.333 -42.667 -98.5 -72 -156.5s-64.666 -124.333 -106 -199l-48 -253l-49.5 -252.5l-48 -240.5l-44.5 -217.5l-38.5 -184
l-29.5 -138.5c-14.667 -62 -30.667 -126.167 -48 -192.5s-34.333 -126.5 -51 -180.5zM753.998 1982c0 -34 4.33301 -65.498 13 -94.498s23.5 -57.167 44.5 -84.5s49 -54 84 -80s79.167 -53 132.5 -81c44 95.333 87.333 183.666 130 264.999l114 222.5
c33.333 67 60.333 126.5 81 178.5s31 96.333 31 133c0 35.333 -6.16699 59.166 -18.5 71.499s-31.833 18.5 -58.5 18.5c-19.333 0 -46.333 -6.83301 -81 -20.5s-72.5 -32.667 -113.5 -57s-82.667 -53.5 -125 -87.5s-80.833 -71.333 -115.5 -112s-63 -84 -85 -130
s-33 -93.333 -33 -142z" />
    <glyph glyph-name="Z" unicode="Z" horiz-adv-x="2343" 
d="M2040 2023l-263.001 78.001c-83.333 24 -161.166 44.833 -233.499 62.5s-139 31.5 -200 41.5s-115.5 15 -163.5 15c-37.333 0 -83.833 -8.83301 -139.5 -26.5s-118.5 -47.167 -188.5 -88.5c-53.333 16.667 -96 49 -128 97s-48 114 -48 198
c0 74 13.833 144.167 41.5 210.5s65.5 124.5 113.5 174.5s104 89.833 168 119.5s132.333 44.5 205 44.5c52 0 103.667 -2.33301 155 -7s104.666 -12 159.999 -22s113.5 -23 174.5 -39s127.167 -35.333 198.5 -58s148.666 -49 231.999 -79l276 -102
c20.667 32 40.167 60.333 58.5 85s36.333 45.667 54 63s35.334 30.5 53 39.5c17.667 9 36.167 13.5 55.5 13.5c41.333 0 79.666 -11 114.999 -33s66 -50 92 -84s46.5 -71.167 61.5 -111.5s22.5 -78.833 22.5 -115.5c0 -42.667 -8.33301 -86.667 -25 -132
s-43 -91.833 -79 -139.5s-82.5 -96.667 -139.5 -147s-125.833 -102.166 -206.5 -155.499l-182.5 -248.5c-59 -76.333 -117.833 -148.833 -176.5 -217.5s-118.167 -134.5 -178.5 -197.5l-188 -188.5l-206 -190.5l-232.5 -202.5l220.5 -320.5l177.5 -248
c52.667 -71.667 99.834 -133.334 141.501 -185.001s79.5 -95.334 113.5 -131.001s64.833 -64.167 92.5 -85.5s54 -38 79 -50s49.333 -19.833 73 -23.5s48.167 -5.5 73.5 -5.5c80.667 0 164.834 14 252.5 42c87.667 28 181.167 68.667 280.5 122
c14 -7.33301 27.833 -18.333 41.5 -33s25.834 -32.167 36.5 -52.5c10.667 -20.333 19.334 -42.666 26 -66.999c6.66699 -24.333 10 -49.833 10 -76.5c0 -52.667 -12.333 -105.667 -37 -159s-58.834 -104.5 -102.5 -153.5c-43.667 -49 -95.167 -95 -154.5 -138
s-123.666 -80.333 -192.999 -112s-142.333 -56.5 -219 -74.5s-154 -27 -232 -27c-71.333 0 -137 6.66699 -197 20s-118.167 38 -174.5 74s-113.333 86.167 -171 150.5s-120.167 147.5 -187.5 249.5s-141.833 225.333 -223.5 370l-279.5 513
c-29.333 -26.667 -62.5 -52.334 -99.5 -77.001s-74.5 -46.5 -112.5 -65.5s-75.167 -34.167 -111.5 -45.5s-68.833 -17 -97.5 -17c-26 0 -49.333 5.5 -70 16.5s-38.167 30 -52.5 57s-25.5 63.5 -33.5 109.5s-12 103.667 -12 173c0 46 4.66699 95.5 14 148.5
s23.5 106.167 42.5 159.5s43.167 104.5 72.5 153.5s64.166 92.5 104.499 130.5s86.333 68.333 138 91s109.167 34 172.5 34c30 0 58 -2.66699 84 -8s51.833 -14 77.5 -26s52.334 -27.667 80.001 -47s57.834 -43 90.501 -71c57.333 45.333 117.833 96 181.5 152l192 176
l190.5 188l177 187.5c55.333 61 106 119.333 152 175s84.333 105.5 115 149.5z" />
    <glyph glyph-name="bracketleft" unicode="[" horiz-adv-x="1901" 
d="M1081 2535c7.33301 35.333 17.833 66.668 31.5 94.002c13.667 27.333 32.667 50.5 57 69.5s55.666 33.5 93.999 43.5s85.5 15 141.5 15c32 0 69 0.166992 111 0.5s86.333 1 133 2s94.667 2.16699 144 3.5s97.166 3.33301 143.499 6s90 6 131 10s76.833 8.66699 107.5 14
c28.667 -20 48.834 -44.833 60.501 -74.5s17.5 -62.167 17.5 -97.5c0 -50.667 -17 -99.334 -51 -146c-34 -46.667 -80.833 -87.667 -140.5 -123s-130.167 -63.5 -211.5 -84.5s-169.666 -31.5 -264.999 -31.5l-158.5 -720.5l-155.5 -660
c-51.333 -208.333 -102.333 -404 -153 -587s-101 -350.167 -151 -501.5l602 -66c10 -16.667 17.167 -33.834 21.5 -51.501s6.5 -34.5 6.5 -50.5c0 -49.333 -13.833 -95 -41.5 -137s-69.167 -78.333 -124.5 -109s-124.833 -54.667 -208.5 -72s-181.167 -26 -292.5 -26
c-93.333 0 -170.833 6.83301 -232.5 20.5s-110.667 33.5 -147 59.5s-62 57.5 -77 94.5s-22.5 78.5 -22.5 124.5c0 23.333 1 46.666 3 69.999s5.5 50 10.5 80s12 65 21 105s20.5 88.667 34.5 146c18.667 71.333 39.167 154.5 61.5 249.5l70.5 307.5l77 346l79.5 367l78 370
l74 353.5l66 319.5z" />
    <glyph glyph-name="backslash" unicode="\" horiz-adv-x="1925" 
d="M1642 -426c-8 -20.667 -23.6689 -39.499 -47.002 -56.499s-52.666 -25.5 -87.999 -25.5c-29.333 0 -55.833 3.33301 -79.5 10s-46 20.167 -67 40.5s-41.333 49.5 -61 87.5s-39.5 88 -59.5 150s-41.167 138.167 -63.5 228.5s-46.833 198.166 -73.5 323.499l-88.5 434
l-109.5 561c-26.667 136 -51.667 256.833 -75 362.5s-46.333 199.167 -69 280.5s-45.167 152 -67.5 212s-45.833 112.333 -70.5 157c4 38 12.667 70.167 26 96.5s30.333 47.833 51 64.5s44.5 28.834 71.5 36.5c27 7.66699 56.5 11.5 88.5 11.5
c58.667 0 110.667 -16.5 156 -49.5s85.333 -84.333 120 -154s64.834 -158.5 90.501 -266.5s48.167 -236.667 67.5 -386l47 -350l52.5 -372l57.5 -378.5c20 -126.333 40.5 -249.333 61.5 -369s42.333 -234.5 64 -344.5s43.5 -211.333 65.5 -304z" />
    <glyph glyph-name="bracketright" unicode="]" horiz-adv-x="1974" 
d="M709 -250c16 62.667 33.8369 136.502 53.5039 221.502l63 277.5l69.5 318.5l73.5 343.5l74 352.5l71 345.5l66 322.5l57.5 284.5c-100 11.333 -186.5 27 -259.5 47s-133 43.833 -180 71.5s-81.833 58.834 -104.5 93.5c-22.667 34.667 -34 72 -34 112
c0 30.667 4 57.334 12 80c8 22.667 19.333 42.334 34 59c44.667 4.66699 93.5 9.33398 146.5 14c53 4.66699 107.667 9.16699 164 13.5s113 8.16602 170 11.5c57 3.33301 111.333 6.33301 163 9s99.334 4.83398 143.001 6.50098s80.5 2.5 110.5 2.5
c92.667 0 160.834 -18.167 204.501 -54.5s65.5 -90.5 65.5 -162.5c0 -10 -0.5 -22.167 -1.5 -36.5s-2.33301 -29.5 -4 -45.5s-3.83398 -32.167 -6.50098 -48.5s-5.66699 -31.5 -9 -45.5l-105 -485.5l-98 -446.5l-96.5 -427l-101.5 -427.5l-112.5 -448.5l-129.5 -489
c-18 -68.667 -39.667 -126.834 -65 -174.501s-54.333 -86.5 -87 -116.5s-69.334 -51.833 -110.001 -65.5s-85.667 -20.5 -135 -20.5c-104.667 0 -200.334 9.5 -287.001 28.5s-161.334 44.667 -224.001 77s-111.334 69.666 -146.001 111.999s-52 87.166 -52 134.499
c0 12.667 0.666992 24 2 34s3.66602 19.833 6.99902 29.5s8 19.667 14 30s13.333 21.5 22 33.5c8 0 25.5 0.666992 52.5 2l97 5c37.667 2 78 4 121 6s84 4.16699 123 6.5s73.833 4.33301 104.5 6z" />
    <glyph glyph-name="asciicircum" unicode="^" horiz-adv-x="1733" 
d="M1147 1786c0 103.333 -0.995117 188.665 -2.99512 255.998s-6 120.5 -12 159.5s-14.333 66.167 -25 81.5s-24.667 23 -42 23c-24.667 0 -54 -15.167 -88 -45.5s-70.333 -75.666 -109 -135.999s-78.334 -135.833 -119.001 -226.5s-80 -196.334 -118 -317.001
c-16.667 -6 -32.667 -10.167 -48 -12.5s-32.333 -3.5 -51 -3.5c-24.667 0 -47.5 4.5 -68.5 13.5s-39.167 22.667 -54.5 41s-27.333 41 -36 68s-13 58.5 -13 94.5c0 38.667 6.83301 83.667 20.5 135s32.834 105.833 57.501 163.5s54.667 117.167 90 178.5
s74.666 121 117.999 179s90.333 112.667 141 164s103.667 96.333 159 135s112.666 69.334 171.999 92c59.333 22.667 119.333 34 180 34c56.667 0 106 -6.66699 148 -20s78 -35 108 -65s54.833 -68.833 74.5 -116.5s35 -105.834 46 -174.501s18.667 -148.5 23 -239.5
s6.5 -194.5 6.5 -310.5c0 -24.667 0.833008 -56.667 2.5 -96s3.5 -79.666 5.5 -120.999c-14 -25.333 -33.333 -49.666 -58 -72.999s-52.834 -43.833 -84.501 -61.5s-65.667 -31.667 -102 -42s-73.5 -15.5 -111.5 -15.5c-38.667 0 -71.334 5.33301 -98.001 16
s-48.334 26.834 -65.001 48.501s-28.5 48.667 -35.5 81s-10.5 69.833 -10.5 112.5z" />
    <glyph glyph-name="underscore" unicode="_" horiz-adv-x="1892" 
d="M643 360c104 8 194.668 15.335 272.001 22.002s145.333 13.834 204 21.501s110.167 15.667 154.5 24s85.5 18 123.5 29s74.833 23.333 110.5 37s73.834 29.5 114.501 47.5c41.333 -10.667 72.833 -31.334 94.5 -62.001s32.5 -68.667 32.5 -114
c0 -126.667 -66.5 -221.834 -199.5 -285.501s-328.5 -95.5 -586.5 -95.5c-42 0 -88.167 0.5 -138.5 1.5s-101.5 2.33301 -153.5 4s-103 3.66699 -153 6s-95.667 5.16602 -137 8.49902c-14.667 12.667 -25.167 29.5 -31.5 50.5s-9.5 39.833 -9.5 56.5
c0 27.333 4.33301 55 13 83s24.167 53.667 46.5 77s53.166 43 92.499 59s89.666 26 150.999 30z" />
    <glyph glyph-name="grave" unicode="`" horiz-adv-x="1188" 
d="M750 3142c8 -74.667 18.333 -151.667 31 -231s27.167 -157.5 43.5 -234.5s34.333 -151.333 54 -223s40.834 -137.167 63.501 -196.5c-0.666992 -16.667 -4.33398 -32.167 -11.001 -46.5s-16.167 -26.833 -28.5 -37.5s-27.5 -19.167 -45.5 -25.5s-38.667 -9.5 -62 -9.5
c-42 0 -85.5 14.167 -130.5 42.5s-89.667 69.5 -134 123.5s-87.333 119.833 -129 197.5s-79.834 165.5 -114.501 263.5c-4 14 -7.83301 29 -11.5 45s-5.5 32.333 -5.5 49c0 44 7.5 86.5 22.5 127.5s37 77.167 66 108.5s64.667 56.5 107 75.5s90.5 28.5 144.5 28.5
c31.333 0 58.833 -5.5 82.5 -16.5s42.834 -24.5 57.501 -40.5z" />
    <glyph glyph-name="a" unicode="a" 
d="M971 475c-32.667 -93.333 -68.4902 -170.506 -107.49 -231.506s-78.833 -109.5 -119.5 -145.5s-81.167 -61.333 -121.5 -76s-78.5 -22 -114.5 -22c-58.667 0 -112.834 12 -162.501 36s-92.5 59.667 -128.5 107s-64.167 106.333 -84.5 177s-30.5 152.334 -30.5 245.001
c0 102.667 13.167 205 39.5 307s62.166 199.5 107.499 292.5s98.166 179.667 158.499 260s124.5 150 192.5 209s138 105.333 210 139s142 50.5 210 50.5c28.667 0 51 -2.16699 67 -6.5s29 -11.833 39 -22.5l13 238c16 18 36.667 31.333 62 40s52.333 13 81 13
c70 0 131.667 -10.667 185 -32s98.166 -48.166 134.499 -80.499s63.833 -68 82.5 -107s28 -76.5 28 -112.5c0 -26.667 -3.33301 -64 -10 -112s-18.334 -100.667 -35.001 -158c-36 -128.667 -66.5 -242 -91.5 -340s-45.333 -182.667 -61 -254s-27 -130.333 -34 -177
s-10.5 -83.334 -10.5 -110.001c0 -20.667 1 -37.167 3 -49.5s5.16699 -21.833 9.5 -28.5s9.66602 -11 15.999 -13s13.5 -3 21.5 -3c20.667 0 49 10 85 30s78 51.333 126 94s101.333 97 160 163s120.667 145 186 237c21.333 0 41.333 -3.16699 60 -9.5
s34.667 -15.166 48 -26.499s23.833 -24.666 31.5 -39.999s11.5 -32.333 11.5 -51c0 -33.333 -10 -72 -30 -116s-47 -90.833 -81 -140.5s-73.833 -100.667 -119.5 -153s-94.334 -103.166 -146.001 -152.499s-105 -96 -160 -140s-108.833 -82.5 -161.5 -115.5
s-102.834 -59.167 -150.501 -78.5s-89.834 -29 -126.501 -29c-44.667 0 -85.334 5.16699 -122.001 15.5s-67.667 28.333 -93 54s-45 60 -59 103s-21 97.167 -21 162.5c0 22.667 1.16699 47.334 3.5 74.001s5.5 55.334 9.5 86.001zM1106.01 1527.99
c-51.333 -32.667 -101.001 -77.168 -149.001 -133.501s-90.667 -119.833 -128 -190.5s-67.333 -145.667 -90 -225s-34 -158.666 -34 -237.999c0 -38 2.83301 -68 8.5 -90s13.334 -38.833 23.001 -50.5s21 -19.167 34 -22.5s26.5 -5 40.5 -5c28.667 0 57 9.33301 85 28
s54.333 43.667 79 75z" />
    <glyph glyph-name="b" unicode="b" horiz-adv-x="1659" 
d="M1733 1405c0 -78.667 -8.00293 -159.833 -24.0029 -243.5s-38.667 -167.167 -68 -250.5s-64.666 -165 -105.999 -245s-87.166 -155.667 -137.499 -227s-104.5 -137 -162.5 -197s-118.5 -111.833 -181.5 -155.5s-127.667 -77.834 -194 -102.501s-133.166 -37 -200.499 -37
c-82.667 0 -155.667 14.5 -219 43.5s-116.333 73.667 -159 134s-74.834 137.5 -96.501 231.5s-32.5 206 -32.5 336c0 127.333 7.83301 257.666 23.5 390.999s37.834 266 66.501 398s63.167 261 103.5 387s85 245.333 134 358s101.833 216.167 158.5 310.5
s115.667 175.666 177 244c61.333 68.333 124.5 121.666 189.5 159.999s130.167 57.5 195.5 57.5c41.333 0 78.333 -5.33301 111 -16s60.5 -27.167 83.5 -49.5s40.667 -51 53 -86s18.5 -77.167 18.5 -126.5c0 -27.333 -4.33301 -59 -13 -95s-23.167 -78 -43.5 -126
s-46.833 -102.5 -79.5 -163.5s-73 -130.5 -121 -208.5s-104.167 -164.833 -168.5 -260.5l-221.5 -318.5c-10 -63.333 -19.333 -128.833 -28 -196.5s-16 -133 -22 -196s-10.667 -121.5 -14 -175.5s-5 -99.333 -5 -136c0 -89.333 1.33301 -161.166 4 -215.499
s6.66699 -96.166 12 -125.499s12.5 -48.833 21.5 -58.5s19.5 -14.5 31.5 -14.5c25.333 0 52.166 9.83301 80.499 29.5s56.5 46.167 84.5 79.5s54.833 71.833 80.5 115.5s48.167 89.667 67.5 138s34.833 97.333 46.5 147s17.5 96.834 17.5 141.501
c0 39.333 -2.83301 72.666 -8.5 99.999s-15.667 50.833 -30 70.5s-33.666 36.334 -57.999 50.001s-54.833 26.167 -91.5 37.5c-4.66699 18.667 -8 35.667 -10 51s-3 31.333 -3 48c0 53.333 11 104.833 33 154.5s51.5 93.667 88.5 132s80.167 69 129.5 92s101 34.5 155 34.5
c110.667 0 193.667 -35.5 249 -106.5s83 -184.167 83 -339.5z" />
    <glyph glyph-name="c" unicode="c" horiz-adv-x="1384" 
d="M676 -37c-100.667 0 -187.16 15.3301 -259.493 45.9971s-131.833 75.5 -178.5 134.5s-81 131.333 -103 217s-33 183.834 -33 294.501c0 105.333 13.167 209.333 39.5 312s62.166 200.5 107.499 293.5s98.5 179 159.5 258s126.5 147.5 196.5 205.5
s142.5 103.333 217.5 136s148.833 49 221.5 49c70 0 131 -9 183 -27s95.5 -44 130.5 -78s61.167 -75.667 78.5 -125s26 -105.333 26 -168c0 -65.333 -10.667 -126.666 -32 -183.999s-49.666 -107.166 -84.999 -149.499s-75.833 -75.833 -121.5 -100.5
s-93.167 -37 -142.5 -37c-45.333 0 -81.833 6.83301 -109.5 20.5s-49.834 32.834 -66.501 57.501c14.667 56 25.167 106.333 31.5 151s9.5 80.334 9.5 107.001c0 29.333 -5.66699 51 -17 65s-23.333 21 -36 21c-19.333 0 -41.833 -15.833 -67.5 -47.5
s-49.834 -76.834 -72.501 -135.501s-41.834 -129.667 -57.501 -213s-23.5 -176.666 -23.5 -279.999c0 -56 4 -104 12 -144s20.833 -72.667 38.5 -98s40.5 -43.833 68.5 -55.5s62 -17.5 102 -17.5c57.333 0 119.166 14 185.499 42s133.166 67.333 200.499 118
s133.666 111.5 198.999 182.5s125.666 149.5 180.999 235.5c18.667 0 37.5 -3 56.5 -9s36.167 -14.833 51.5 -26.5s27.833 -26 37.5 -43s14.5 -36.167 14.5 -57.5c0 -35.333 -9.66699 -76 -29 -122s-46 -94.5 -80 -145.5s-74.667 -103.333 -122 -157
s-99 -105.834 -155 -156.501s-115.333 -98.334 -178 -143.001s-126.5 -83.667 -191.5 -117s-130.333 -59.833 -196 -79.5s-129.5 -29.5 -191.5 -29.5z" />
    <glyph glyph-name="d" unicode="d" horiz-adv-x="1712" 
d="M123 631c0 100 12.667 198.664 38 295.997s59.5 190 102.5 278s92.333 169.5 148 244.5s114 139.833 175 194.5s122.5 97.5 184.5 128.5s120.333 46.5 175 46.5c64 0 111.5 -16 142.5 -48s46.5 -75 46.5 -129c0 -8 -0.166992 -16 -0.5 -24s-1.83301 -16.333 -4.5 -25
c-50 -32 -95.333 -70.167 -136 -114.5s-76.834 -92.333 -108.501 -144s-59.167 -106 -82.5 -163s-42.666 -114 -57.999 -171s-26.666 -113.167 -33.999 -168.5s-11 -107.333 -11 -156c0 -34.667 2.5 -63.5 7.5 -86.5s12.667 -41.5 23 -55.5s23.166 -23.833 38.499 -29.5
s33.333 -8.5 54 -8.5c28.667 0 59 16.833 91 50.5s63.667 80.334 95 140.001s61.166 130.334 89.499 212.001s53.333 170.667 75 267s39 198.166 52 305.499s19.5 216.333 19.5 327c0 118.667 -15.5 223 -46.5 313s-74.667 165.667 -131 227s-124 108.833 -203 142.5
s-166.5 53.5 -262.5 59.5c-18.667 16 -32.167 36.333 -40.5 61s-12.5 49.334 -12.5 74c0 48 10.5 95.333 31.5 142s53 88.167 96 124.5s97.833 65.833 164.5 88.5s145.334 34 236.001 34c116 0 221.333 -23.333 316 -70s175.667 -113.334 243 -200.001
s119.333 -192 156 -316s55 -263.333 55 -418c0 -212 -17.167 -411.167 -51.5 -597.5s-80.833 -357.166 -139.5 -512.499s-127.167 -294.166 -205.5 -416.499s-161.333 -225.666 -249 -309.999s-177.5 -148.833 -269.5 -193.5s-181.333 -67 -268 -67
c-82 0 -156.333 13.5 -223 40.5s-123.5 68 -170.5 123s-83.333 124.333 -109 208s-38.5 182.5 -38.5 296.5z" />
    <glyph glyph-name="e" unicode="e" horiz-adv-x="1470" 
d="M983 1339c0 43.333 -7.5 76.8311 -22.5 100.498s-34.833 35.5 -59.5 35.5c-14 0 -30.833 -8.83301 -50.5 -26.5s-39.167 -44.167 -58.5 -79.5s-36.833 -79.666 -52.5 -132.999s-27.167 -115.666 -34.5 -186.999c57.333 10 104 25.167 140 45.5s64.333 43.5 85 69.5
s34.667 54 42 84s11 60.333 11 91zM688 -37.002c-100 0 -186.836 15.333 -260.503 46s-134.667 75.5 -183 134.5s-84.166 131.333 -107.499 217s-35 183.834 -35 294.501c0 103.333 13 205.833 39 307.5s61.333 198.834 106 291.501s96.834 178.667 156.501 258
s122.834 148.166 189.501 206.499s135.167 104 205.5 137s138.833 49.5 205.5 49.5c141.333 0 249.666 -34.5 324.999 -103.5s113 -175.167 113 -318.5c0 -86 -13.333 -166.833 -40 -242.5s-70.167 -145 -130.5 -208s-139 -118.667 -236 -167s-215.5 -88.5 -355.5 -120.5
c0 -46 2.83301 -86.833 8.5 -122.5s15.667 -65.5 30 -89.5s34.333 -42.333 60 -55s58.5 -19 98.5 -19c69.333 0 142.833 14.167 220.5 42.5s155 68.5 232 120.5s151.667 114.5 224 187.5s137.5 154.167 195.5 243.5c24.667 -0.666992 46.667 -5.16699 66 -13.5
s35.666 -18.666 48.999 -30.999s23.5 -26.5 30.5 -42.5s10.5 -32 10.5 -48c0 -38 -10.167 -80.833 -30.5 -128.5s-48.666 -97.334 -84.999 -149.001s-79.5 -104.334 -129.5 -158.001s-104.667 -105.667 -164 -156s-122.333 -97.5 -189 -141.5s-134.667 -82.5 -204 -115.5
s-139.166 -59 -209.499 -78s-138.833 -28.5 -205.5 -28.5z" />
    <glyph glyph-name="f" unicode="f" horiz-adv-x="1434" 
d="M827 1065c-14.667 -94.667 -33.167 -192.169 -55.5 -292.502s-46.5 -199.5 -72.5 -297.5s-52.667 -192.833 -80 -284.5s-53.833 -176.5 -79.5 -254.5s-49.5 -147.167 -71.5 -207.5s-40 -107.833 -54 -142.5c-2 -6 -3.83301 -12.5 -5.5 -19.5s-2.5 -12.833 -2.5 -17.5
c0 -14 4.5 -24.333 13.5 -31s20.833 -10 35.5 -10c19.333 0 41.166 10.5 65.499 31.5s50 50.167 77 87.5s54.333 81.166 82 131.499s54.667 104.833 81 163.5s51 120.167 74 184.5s43 128.833 60 193.5s30.5 128.334 40.5 191.001s15 121.667 15 177
c0 96.667 -11.167 179.334 -33.5 248.001s-52.166 118.334 -89.499 149.001zM410 1708l14.002 129.498l16.5 158l16.5 163l14 143.5c9.33301 94.667 19.166 176.334 29.499 245c10.333 68.667 22 126.834 35 174.5c13 47.667 27.833 86.167 44.5 115.5s35.667 52 57 68
s45.666 26.667 72.999 32s58.333 8 93 8c36 0 72.667 -6.66699 110 -20s73.5 -31.833 108.5 -55.5s67.833 -51.667 98.5 -84s57.334 -67.333 80.001 -105s40.667 -77.667 54 -120s20 -84.833 20 -127.5c0 -32.667 -5.83301 -70.167 -17.5 -112.5
s-29.834 -91.666 -54.501 -148c-24.667 -56.333 -56.5 -120.833 -95.5 -193.5l-139.5 -250c21.333 0.666992 48.5 1.66699 81.5 3l106.5 4.5c38 1.66699 76.667 3.5 116 5.5s76 4 110 6s63.5 4.16699 88.5 6.5s41.833 4.5 50.5 6.5c24.667 -18.667 43.667 -44.167 57 -76.5
s20 -64.166 20 -95.499c0 -38.667 -6 -74.667 -18 -108s-28.667 -62.333 -50 -87s-46.333 -44 -75 -58s-60 -21 -94 -21c-47.333 0 -91.833 1 -133.5 3s-83.167 5 -124.5 9c38.667 -21.333 74.167 -50 106.5 -86s60 -78.5 83 -127.5s40.833 -104 53.5 -165
s19 -127.167 19 -198.5c0 -92 -9.33301 -188 -28 -288s-44.667 -200.333 -78 -301s-73.166 -200 -119.499 -298s-97.5 -191 -153.5 -279s-115.667 -169.333 -179 -244s-128.5 -139.334 -195.5 -194.001s-135.167 -97.334 -204.5 -128.001s-137.666 -46 -204.999 -46
c-139.333 0 -242.5 31.167 -309.5 93.5s-100.5 149.833 -100.5 262.5c0 26 0.833008 51.5 2.5 76.5s5.5 53.667 11.5 86s14.5 69.833 25.5 112.5s25.667 94.834 44 156.501s41.166 134.334 68.499 218.001l98 296.5l53.5 164l58.5 190.5l59.5 202.5l55.5 199.5l47 181.5
c14 56.667 25 106 33 148c-76.667 4 -115 38 -115 102c0 28.667 5 57.334 15 86.001s23.167 54.5 39.5 77.5s35.166 42 56.499 57s43.333 23.5 66 25.5z" />
    <glyph glyph-name="g" unicode="g" 
d="M-70 -365c0 42 7.67285 84.002 23.0059 126.002s37.5 80.333 66.5 115s64.333 63.167 106 85.5s88.5 35.166 140.5 38.499c42 -64.667 84.667 -125.334 128 -182.001s85.833 -106.167 127.5 -148.5s82 -75.666 121 -99.999s74.833 -36.5 107.5 -36.5
c30.667 0 55.334 11.833 74.001 35.5s32 65.167 40 124.5c3.33301 23.333 7.66602 57.333 12.999 102l18 156l21 196l22 222c-8.66699 -17.333 -20.834 -36.833 -36.501 -58.5s-33.834 -43.667 -54.501 -66s-43.834 -44.166 -69.501 -65.499s-52.667 -40.333 -81 -57
s-58.166 -30.167 -89.499 -40.5s-63 -15.5 -95 -15.5c-58 0 -112 10.5 -162 31.5s-93.333 53.333 -130 97s-65.5 99.167 -86.5 166.5s-31.5 147.666 -31.5 240.999c0 92 13.167 183.333 39.5 274s61.833 176.834 106.5 258.501s96.5 157.5 155.5 227.5
s121.167 130.667 186.5 182s132.166 91.5 200.499 120.5s133.833 43.5 196.5 43.5c28.667 0 51 -2.16699 67 -6.5s29.333 -11.833 40 -22.5c4 37.333 7.5 75.166 10.5 113.499s5.5 75.666 7.5 111.999s3.5 70.666 4.5 102.999s1.5 60.833 1.5 85.5
c8 9.33301 18.667 17.5 32 24.5s27.166 13 41.499 18s28.833 8.66699 43.5 11s27.667 3.5 39 3.5c64.667 0 124.834 -10.5 180.501 -31.5s104.167 -47.833 145.5 -80.5s73.833 -68.334 97.5 -107.001s35.5 -76 35.5 -112c0 -40 -4.16699 -80.167 -12.5 -120.5
s-19 -84 -32 -131l-44 -157c-16.333 -57.667 -32.166 -123.834 -47.499 -198.501c-12 -58 -23.833 -120.833 -35.5 -188.5s-22.834 -136.667 -33.501 -207s-20.334 -140.5 -29.001 -210.5l-24 -200c43.333 30.667 89.5 67.334 138.5 110.001s99 90.5 150 143.5
s102.167 110.667 153.5 173s100.333 128.833 147 199.5c26 0 49.833 -3.33301 71.5 -10s40.334 -15.834 56 -27.501c15.667 -11.667 27.834 -25.5 36.5 -41.5c8.66699 -16 13 -33.333 13 -52c0 -33.333 -11.333 -73.333 -34 -120s-53.5 -97 -92.5 -151
s-84.5 -110.167 -136.5 -168.5s-107.667 -116 -167 -173s-120.5 -111.833 -183.5 -164.5s-124.833 -100.667 -185.5 -144l-10 -53c-3.33301 -15.333 -6.5 -32.833 -9.5 -52.5s-6.16699 -39.167 -9.5 -58.5c-12 -92 -31.667 -174.333 -59 -247s-59.833 -136.5 -97.5 -191.5
s-79.834 -101.667 -126.501 -140s-96 -69.666 -148 -93.999s-105.333 -42 -160 -53s-109 -16.5 -163 -16.5c-55.333 0 -111.666 6.33301 -168.999 19s-113 30.834 -167 54.501s-104.833 52.334 -152.5 86.001s-89.334 71.167 -125.001 112.5s-63.834 86.333 -84.501 135
s-31 100 -31 154zM1073.01 1409c-38.667 -21.333 -74.6699 -47.834 -108.003 -79.501s-63.666 -66.667 -90.999 -105s-51.5 -79 -72.5 -122s-38.667 -86.667 -53 -131s-25.166 -88.166 -32.499 -131.499s-11 -84.333 -11 -123c0 -38 2.33301 -68.333 7 -91
s11.334 -40 20.001 -52s19 -19.833 31 -23.5s25.333 -5.5 40 -5.5c32.667 0 61.667 6.5 87 19.5s52.333 33.833 81 62.5l25 201l26 212l26 201c8.66699 64 17 120 25 168z" />
    <glyph glyph-name="h" unicode="h" horiz-adv-x="1880" 
d="M246 856c26.667 249.333 53.998 475.338 81.998 678.005s59 383.334 93 542.001s72 295.834 114 411.5c42 115.667 90.167 211.334 144.5 287c54.333 75.667 115.833 131.834 184.5 168.5c68.667 36.667 146.667 55 234 55c44 0 82.667 -5.33301 116 -16
s61 -27.667 83 -51s38.667 -53.5 50 -90.5s17 -81.5 17 -133.5c0 -44.667 -6.33301 -94.334 -19 -149.001s-34.667 -119 -66 -193s-73.333 -160.167 -126 -258.5s-119 -213.5 -199 -345.5l-98 -385c148.667 136 283.834 237 405.501 303s222.834 99 303.501 99
c38.667 0 72.834 -5.83301 102.501 -17.5s54.5 -28.167 74.5 -49.5s35 -46.833 45 -76.5s15 -62.5 15 -98.5c0 -63.333 -8.66699 -128 -26 -194s-41.333 -138 -72 -216l-39 -101l-45 -115.5l-44.5 -119.5c-14.333 -40 -27.166 -77.833 -38.499 -113.5
s-20.5 -67.667 -27.5 -96s-10.5 -51.166 -10.5 -68.499c0 -22.667 5 -38.5 15 -47.5s24 -13.5 42 -13.5c18.667 0 47.667 12.333 87 37s85.5 61.5 138.5 110.5s111 109.667 174 182s127.833 156.166 194.5 251.499c19.333 0 38.666 -3.16699 57.999 -9.5
s36.5 -15.333 51.5 -27s27.167 -25.834 36.5 -42.501s14 -35.334 14 -56.001c0 -32 -10.167 -70.667 -30.5 -116s-48.333 -93.833 -84 -145.5s-77.5 -105.167 -125.5 -160.5s-99.667 -109.5 -155 -162.5s-113 -103 -173 -150s-119.5 -88.333 -178.5 -124
s-116.333 -64 -172 -85s-107.167 -31.5 -154.5 -31.5c-60.667 0 -111.667 6.66699 -153 20s-74.666 33.833 -99.999 61.5s-43.5 62.334 -54.5 104.001s-16.5 90.5 -16.5 146.5c0 45.333 5.33301 95.166 16 149.499s23.834 109.666 39.501 165.999s32.667 112.166 51 167.499
l51 152.5c15.667 46.333 28.834 86.833 39.501 121.5s16 59.334 16 74.001c0 16.667 -3.83301 31.834 -11.5 45.501s-22.834 20.5 -45.501 20.5c-35.333 0 -76.666 -11.333 -123.999 -34s-98.666 -57.667 -153.999 -105c-10 -72.667 -19.333 -146.667 -28 -222
s-16.334 -153.166 -23.001 -233.499s-11.834 -163.833 -15.501 -250.5s-6.16699 -177.667 -7.5 -273c-18.667 -20.667 -44.5 -35.5 -77.5 -44.5s-70.167 -13.5 -111.5 -13.5c-39.333 0 -77 5.66699 -113 17s-69.333 27.166 -100 47.499s-58.334 44.166 -83.001 71.499
s-45.834 56.833 -63.501 88.5s-31.5 65.167 -41.5 100.5s-15.333 70.666 -16 105.999c0 63.333 9.66699 132.166 29 206.499s54.666 155.5 105.999 243.5z" />
    <glyph glyph-name="i" unicode="i" horiz-adv-x="1040" 
d="M795 2437c0 83.333 4.33105 153.666 12.998 211c8.66699 57.333 21.334 103.666 38.001 139c16.667 35.333 37.5 61 62.5 77s53.833 24 86.5 24c27.333 0 54.833 -4.66699 82.5 -14s54.5 -21.833 80.5 -37.5s50.167 -33.834 72.5 -54.5
c22.333 -20.667 41.833 -42.5 58.5 -65.5s29.834 -46.167 39.501 -69.5s14.5 -45.666 14.5 -67c0 -24.667 -5 -53.167 -15 -85.5s-26 -69.166 -48 -110.5c-22 -41.333 -50.333 -87.166 -85 -137.5c-34.667 -50.333 -76.667 -105.5 -126 -165.5
c-40 0 -76.833 7.5 -110.5 22.5s-62.5 37.333 -86.5 67s-42.833 66.667 -56.5 111s-20.5 96.166 -20.5 155.5zM265.998 881c-16.667 38.667 -27.6729 80.334 -33.0059 125.001s-8 87.667 -8 129c0 40 9.33301 84.5 28 133.5s44 98.333 76 148s68.833 97.834 110.5 144.501
s85.334 88.167 131.001 124.5s92.167 65.5 139.5 87.5s92 33 134 33c47.333 0 84.5 -6.16699 111.5 -18.5s47.5 -29.833 61.5 -52.5s22.833 -50.167 26.5 -82.5s5.5 -68.5 5.5 -108.5c0 -26.667 -4 -57 -12 -91s-18.667 -70.5 -32 -109.5s-28.666 -79.5 -45.999 -121.5
l-54 -128l-74.5 -185.5c-21 -53 -38.5 -99.5 -52.5 -139.5s-24.333 -74.667 -31 -104s-10 -55.666 -10 -78.999c0 -22.667 5 -38.667 15 -48s24.333 -14 43 -14c14 0 36 8.83301 66 26.5s66.833 46.834 110.5 87.501s94 94.167 151 160.5s119.833 148.166 188.5 245.499
c19.333 0 38.5 -3.83301 57.5 -11.5s36 -18.167 51 -31.5s27.167 -28.833 36.5 -46.5s14 -36.834 14 -57.501c0 -32 -9.5 -70.167 -28.5 -114.5s-45.333 -91.833 -79 -142.5s-73.167 -103 -118.5 -157s-94.166 -106.667 -146.499 -158s-107.166 -99.833 -164.499 -145.5
s-114.5 -85.834 -171.5 -120.501s-112.667 -62 -167 -82s-105.166 -30 -152.499 -30c-60 0 -110.667 6.66699 -152 20s-74.666 33.666 -99.999 60.999s-43.5 61.833 -54.5 103.5s-16.5 90.834 -16.5 147.501c0 45.333 2.83301 90.166 8.5 134.499s14.5 90.5 26.5 138.5
s27.333 99 46 153s40.667 112.667 66 176z" />
    <glyph glyph-name="j" unicode="j" horiz-adv-x="1090" 
d="M729 25l-11.9961 -97.5049l-12 -93l-11 -82.5c-3.33301 -25.333 -6.66602 -47.666 -9.99902 -66.999c-18.667 -138 -52.334 -257.667 -101.001 -359s-106.667 -185.166 -174 -251.499s-141 -115.666 -221 -147.999s-160.333 -48.5 -241 -48.5
c-74.667 0 -142.5 13.333 -203.5 40s-113.167 64.334 -156.5 113.001s-76.833 106.5 -100.5 173.5s-35.5 141.167 -35.5 222.5c0 46.667 5 89.167 15 127.5s29.333 76.5 58 114.5s68.834 77.667 120.501 119s119.5 88.666 203.5 141.999l328 209
c5.33301 57.333 11.5 118.666 18.5 183.999s14.667 130.833 23 196.5s17.333 129.5 27 191.5s19.5 118.667 29.5 170c-16 38.667 -26.833 80.334 -32.5 125.001s-8.5 87.667 -8.5 129c0 40 10.667 85.167 32 135.5s49.666 101.333 84.999 153s76 102.167 122 151.5
s93.667 93.333 143 132s98.666 69.667 147.999 93s95.333 35 138 35c39.333 0 71.833 -3.83301 97.5 -11.5s46.167 -19.5 61.5 -35.5s26.166 -36 32.499 -60s9.5 -52.667 9.5 -86c0 -59.333 -17.167 -137.166 -51.5 -233.499s-89.5 -209.5 -165.5 -339.5
c-7.33301 -34 -15.5 -74 -24.5 -120s-18.167 -95.667 -27.5 -149l-28.5 -166.5c-9.66699 -57.667 -18.5 -114.5 -26.5 -170.5c47.333 30.667 95 64.667 143 102s96.333 79.166 145 125.499s97.5 97.666 146.5 153.999s98.167 118.833 147.5 187.5
c19.333 0 38.666 -4.33301 57.999 -13s36.5 -20.167 51.5 -34.5s27.167 -30.833 36.5 -49.5s14 -38 14 -58c0 -33.333 -11.167 -72.166 -33.5 -116.499s-52.833 -91.666 -91.5 -141.999s-83.834 -102.166 -135.501 -155.499s-106.667 -106 -165 -158
s-118.833 -102 -181.5 -150s-124 -91.333 -184 -130zM16.0039 -328.005c-20.667 -13.333 -38.1699 -25.832 -52.5029 -37.499s-26 -23.334 -35 -35.001s-15.667 -23.834 -20 -36.501s-6.5 -26.667 -6.5 -42c0 -30 3.66699 -57 11 -81s17.333 -44.667 30 -62
s27.667 -30.666 45 -39.999s36.333 -14 57 -14c30.667 0 52.334 12.833 65.001 38.5s21 67.5 25 125.5c3.33301 38 6.33301 74 9 108s5.33398 64 8.00098 90c2.66699 30.667 5.33398 59 8.00098 85zM815.001 2576c0 80 3.33301 145.5 10 196.5s16.834 91.167 30.501 120.5
s30.667 49.5 51 60.5s44.5 16.5 72.5 16.5c41.333 0 82.333 -10.167 123 -30.5s77.5 -45.666 110.5 -76c33 -30.333 59.667 -63.5 80 -99.5s30.5 -70 30.5 -102c0 -24.667 -2.66699 -53 -8 -85s-16.333 -68.333 -33 -109s-39.834 -86 -69.501 -136s-69.167 -105 -118.5 -165
c-48 0 -89.667 10.333 -125 31s-64.333 49.334 -87 86c-22.667 36.667 -39.5 80 -50.5 130s-16.5 104 -16.5 162z" />
    <glyph glyph-name="k" unicode="k" horiz-adv-x="1896" 
d="M246 856c28.667 255.333 58.0078 485.508 88.0078 690.508s62.667 386.833 98 545.5s74.166 295.167 116.499 409.5s90.666 208.166 144.999 281.499s115.333 127.5 183 162.5s144.167 52.5 229.5 52.5c44 0 83.667 -5.33301 119 -16s65.5 -27.667 90.5 -51
s44.167 -53.5 57.5 -90.5s20 -81.5 20 -133.5c0 -30 -2.66699 -61.833 -8 -95.5s-14.166 -71 -26.499 -112s-28.333 -86.667 -48 -137s-43.834 -107.333 -72.501 -171s-62.334 -134.5 -101.001 -212.5l-133 -263c-22.667 -44.667 -45 -94 -67 -148
s-42.167 -108.833 -60.5 -164.5s-34.333 -110.167 -48 -163.5s-23.5 -102 -29.5 -146l274 114c20.667 43.333 43 86.5 67 129.5s49.667 83.167 77 120.5c46 63.333 88.167 116.5 126.5 159.5s74.166 77.5 107.499 103.5s64.666 44.667 93.999 56s57.666 17 84.999 17
c50 0 93.5 -9.33301 130.5 -28s67.667 -43.167 92 -73.5s42.5 -64.5 54.5 -102.5s18 -76.333 18 -115c0 -31.333 -1.83301 -59.166 -5.5 -83.499s-11.167 -47 -22.5 -68s-27.666 -41.167 -48.999 -60.5s-49.5 -40 -84.5 -62s-77.833 -46.333 -128.5 -73l-181 -92
c0 -110.667 2.66699 -203.834 8 -279.501s13.666 -136.834 24.999 -183.501s25.666 -80.167 42.999 -100.5s38.333 -30.5 63 -30.5c26.667 0 57.334 11.333 92.001 34s74.5 58 119.5 106s96 109.167 153 183.5s121.167 163.166 192.5 266.499
c19.333 0 38.666 -2.83301 58 -8.5c19.333 -5.66699 36.5 -13.834 51.5 -24.501s27.167 -23.834 36.5 -39.501s14 -33.834 14 -54.501c0 -29.333 -9.33301 -66.333 -28 -111s-44.167 -93.334 -76.5 -146.001s-70.666 -107.5 -115 -164.5
c-44.333 -57 -92 -113.167 -143 -168.5s-104.5 -108 -160.5 -158s-112 -93.833 -168 -131.5s-110.833 -67.667 -164.5 -90s-104.167 -33.5 -151.5 -33.5c-66 0 -122 11.5 -168 34.5s-83.667 59.833 -113 110.5s-50.666 116.334 -63.999 197.001s-20 178.334 -20 293.001
c0 51.333 1.83301 102.5 5.5 153.5s8.5 99.5 14.5 145.5l-184 -74c-4 -46 -7.5 -92.5 -10.5 -139.5s-5.66699 -98.167 -8 -153.5s-4.33301 -116.666 -6 -183.999s-3.16699 -144.666 -4.5 -231.999c-22.667 -24.667 -52.5 -43.834 -89.5 -57.501s-79.5 -20.5 -127.5 -20.5
c-39.333 0 -77 5.66699 -113 17s-69.333 27.166 -100 47.499s-58.334 44.166 -83.001 71.499s-45.834 56.833 -63.501 88.5s-31.5 65.167 -41.5 100.5s-15.333 70.666 -16 105.999c0 63.333 9.66699 132.166 29 206.499s54.666 155.5 105.999 243.5z" />
    <glyph glyph-name="l" unicode="l" horiz-adv-x="1065" 
d="M250 1184l40.501 218.506l44 241.5l41.5 244c13.333 80.667 24.666 156 33.999 226c18 138 48.833 261.667 92.5 371s96.167 202 157.5 278s129.5 134.167 204.5 174.5s152.833 60.5 233.5 60.5c44 0 83.667 -5.33301 119 -16s65.333 -27.667 90 -51
s43.667 -53.5 57 -90.5s20 -81.5 20 -133.5c0 -30 -2.5 -61.167 -7.5 -93.5s-13.333 -67.833 -25 -106.5s-27.167 -81.834 -46.5 -129.501s-43.333 -102 -72 -163s-62.667 -129.833 -102 -206.5l-136 -259l-45 -161.5l-49 -181l-50 -188.5l-48.5 -185.5l-43.5 -172l-35 -147
c-10 -43.667 -17.833 -80.834 -23.5 -111.501s-8.5 -52.334 -8.5 -65.001c0 -22.667 5 -38.667 15 -48s24.333 -14 43 -14c32 0 70.167 13.833 114.5 41.5s92.166 66.5 143.499 116.5s104.666 109.667 159.999 179s109.666 145.333 162.999 228
c19.333 0 38.333 -3.33301 57 -10s35.334 -16.167 50.001 -28.5s26.5 -27 35.5 -44s13.5 -35.833 13.5 -56.5c0 -38.667 -9.83301 -82 -29.5 -130s-46.667 -98 -81 -150s-74.833 -104.833 -121.5 -158.5s-97.167 -105.334 -151.5 -155.001s-111.333 -96.5 -171 -140.5
s-119.667 -82.333 -180 -115s-119.666 -58.334 -177.999 -77.001s-113.166 -28 -164.499 -28c-59.333 0 -109.666 6.5 -150.999 19.5s-74.833 32.5 -100.5 58.5s-44.167 58.667 -55.5 98s-17 85.666 -17 138.999c0 46 3.33301 96.667 10 152s15.167 112.333 25.5 171
s21.833 117.5 34.5 176.5l37 168l33.5 145.5c10.333 44 18.166 80.333 23.499 109z" />
    <glyph glyph-name="m" unicode="m" horiz-adv-x="2744" 
d="M1667 1163c84 126 161.326 232.342 231.993 319.009s136.334 156.667 197.001 210s116.667 91.833 168 115.5s99.333 35.5 144 35.5c47.333 0 88.5 -8.33301 123.5 -25s64 -38.834 87 -66.501s40.167 -59.834 51.5 -96.501s17 -75 17 -115
c0 -53.333 -9.16699 -115.333 -27.5 -186s-46.166 -149.334 -83.5 -236.001l-43 -102.5l-51 -120l-52 -126c-17.333 -42.333 -32.666 -82.166 -46 -119.499c-13.333 -37.333 -24.166 -70.833 -32.5 -100.5c-8.33301 -29.667 -12.5 -53.167 -12.5 -70.5
c0 -22.667 4.83301 -38.5 14.5 -47.5s23.834 -13.5 42.5 -13.5c18.667 0 48.167 13.167 88.5 39.5s88 65.333 143 117s115.667 115.834 182 192.501s134.833 165 205.5 265c19.333 0 38.5 -3.16699 57.5 -9.5s36 -15.333 51 -27s27.167 -25.834 36.5 -42.501
s14 -35.334 14 -56.001c0 -32 -10.5 -71 -31.5 -117s-49.833 -95.333 -86.5 -148s-79.5 -107.5 -128.5 -164.5s-101.833 -112.667 -158.5 -167s-115.5 -105.833 -176.5 -154.5s-121.5 -91.334 -181.5 -128.001s-118.167 -65.834 -174.5 -87.501
s-108.166 -32.5 -155.499 -32.5c-60.667 0 -111.667 6.66699 -153 20s-74.666 33.666 -99.999 60.999s-43.5 61.833 -54.5 103.5s-16.5 90.5 -16.5 146.5c0 45.333 6 95.666 18 150.999s27 111.833 45 169.5s37.333 114.834 58 171.501l58 156.5
c18 47.667 33 89.167 45 124.5s18 60.333 18 75c0 32.667 -16.333 49 -49 49c-9.33301 0 -24.833 -5.66699 -46.5 -17s-47.667 -29.166 -78 -53.499s-63.833 -56 -100.5 -95s-75 -86.167 -115 -141.5l-40 -222.5c-12 -69.667 -22.833 -137.334 -32.5 -203.001
s-17.667 -131 -24 -196s-11.166 -132.167 -14.499 -201.5c-10 -10 -20.167 -19 -30.5 -27s-21.833 -14.5 -34.5 -19.5s-27 -8.83301 -43 -11.5s-34.667 -4 -56 -4c-57.333 0 -109.666 6.16699 -156.999 18.5s-88 32.166 -122 59.499s-60.5 62.5 -79.5 105.5
s-29.167 95.167 -30.5 156.5c0 39.333 3.83301 83.166 11.5 131.499s17.834 98.5 30.501 150.5s27.5 104.833 44.5 158.5s34.5 104.834 52.5 153.501l24.5 67.5c8.33301 22.333 15.833 43.5 22.5 63.5s12.167 38.333 16.5 55s6.5 30 6.5 40c0 18 -4 30.667 -12 38
s-20.333 11 -37 11c-9.33301 0 -22.5 -4.33301 -39.5 -13s-37.667 -23.834 -62 -45.501s-52.666 -50.667 -84.999 -87s-68.5 -82.166 -108.5 -137.499l-38.5 -222.5c-11.667 -69.667 -22 -137.334 -31 -203.001s-16.5 -131 -22.5 -196s-10.667 -132.167 -14 -201.5
c-10 -10 -19.833 -18.5 -29.5 -25.5s-20.5 -12.5 -32.5 -16.5s-26.167 -6.83301 -42.5 -8.5s-36.166 -2.5 -59.499 -2.5c-57.333 0 -110.333 12.5 -159 37.5s-90.834 58.833 -126.501 101.5s-63.667 91.834 -84 147.501s-31.166 114.167 -32.499 175.5
c0 39.333 2.66699 81.5 8 126.5s13 91.667 23 140s22.167 97.166 36.5 146.499s30.166 97.666 47.499 144.999c-16.667 38.667 -27.667 80.334 -33 125.001s-8 87.334 -8 128.001s8.5 82.167 25.5 124.5s40 83.666 69 123.999s62.833 78.5 101.5 114.5s79.5 67.5 122.5 94.5
s87.167 48.333 132.5 64s89 23.5 131 23.5c59.333 0 103.5 -13.167 132.5 -39.5s43.5 -70.5 43.5 -132.5c0 -25.333 -2 -53.5 -6 -84.5s-10.833 -65.5 -20.5 -103.5s-22.667 -79.833 -39 -125.5s-36.833 -95.5 -61.5 -149.5c74.667 129.333 143.834 235 207.501 317
s123.334 146.667 179.001 194s108 79.833 157 97.5s95.833 26.5 140.5 26.5c38.667 0 73 -6.16699 103 -18.5s55.167 -29.333 75.5 -51s35.833 -47.167 46.5 -76.5s16 -61 16 -95c0 -26.667 -0.666992 -53.167 -2 -79.5s-5.33301 -54.833 -12 -85.5
s-16.834 -64.834 -30.501 -102.501s-32.834 -81.167 -57.501 -130.5z" />
    <glyph glyph-name="n" unicode="n" horiz-adv-x="1937" 
d="M246 963c-16.667 38.667 -27.6699 80.3398 -33.0029 125.007s-8 87.667 -8 129c0 40 9.33301 84.5 28 133.5s43.834 98.333 75.501 148s68.334 97.834 110.001 144.501s85.5 88.167 131.5 124.5s92.5 65.5 139.5 87.5s91.5 33 133.5 33c35.333 0 64.333 -3.16699 87 -9.5
s40.5 -16.5 53.5 -30.5s22.167 -31.833 27.5 -53.5s8 -47.834 8 -78.501c0 -25.333 -3.33301 -61 -10 -107s-16.667 -96.333 -30 -151s-30.333 -111.167 -51 -169.5s-44.667 -112.5 -72 -162.5c74.667 129.333 147.834 238.5 219.501 327.5s140.167 161.167 205.5 216.5
s126.5 95.333 183.5 120s107.833 37 152.5 37c47.333 0 88.666 -7.16699 123.999 -21.5s64.833 -34.333 88.5 -60s41.334 -55.667 53.001 -90s17.5 -71.5 17.5 -111.5c0 -54.667 -9 -118.834 -27 -192.501s-48.667 -159.5 -92 -257.5l-40.5 -98l-45 -108.5l-44 -110
c-14.333 -36.333 -27.166 -70.666 -38.499 -102.999s-20.333 -61.833 -27 -88.5s-10 -48.667 -10 -66c0 -22.667 5 -38.5 15 -47.5s24.333 -13.5 43 -13.5c20.667 0 51.334 12.833 92.001 38.5s87.5 62.834 140.5 111.501s110.667 108.667 173 180
s125.166 152.333 188.5 243c19.333 0 38.5 -3.16699 57.5 -9.5s36 -15.333 51 -27s27.167 -25.834 36.5 -42.501s14 -35.334 14 -56.001c0 -32 -10.167 -70.167 -30.5 -114.5s-48.166 -91.833 -83.5 -142.5c-35.333 -50.667 -77 -103 -125 -157s-99.5 -106.667 -154.5 -158
s-112.333 -99.833 -172 -145.5s-118.834 -85.834 -177.501 -120.501s-115.834 -62 -171.501 -82s-107.167 -30 -154.5 -30c-60 0 -110.667 6.66699 -152 20s-74.666 33.666 -99.999 60.999s-43.5 61.833 -54.5 103.5s-16.5 90.834 -16.5 147.501
c0 45.333 5.16699 93.666 15.5 144.999s23.166 103.166 38.499 155.499s32.166 103.666 50.499 153.999l50.5 139c15.333 42.333 28.166 79.166 38.499 110.499s15.5 54.666 15.5 69.999c0 32.667 -16.333 49 -49 49c-9.33301 0 -24.333 -4.33301 -45 -13
s-45.667 -23.834 -75 -45.501s-62 -50.667 -98 -87s-74 -82.166 -114 -137.499c-14.667 -78.667 -27.167 -150.5 -37.5 -215.5s-19.166 -127.5 -26.499 -187.5s-13.333 -120.167 -18 -180.5s-8.66699 -125.166 -12 -194.499c-10 -10 -19.833 -18.5 -29.5 -25.5
s-20.5 -12.5 -32.5 -16.5s-26.167 -6.83301 -42.5 -8.5s-36.166 -2.5 -59.499 -2.5c-57.333 0 -110.333 12.667 -159 38s-90.834 59.166 -126.501 101.499s-63.667 91.5 -84 147.5s-31.166 114.667 -32.499 176c0 78 8.33301 159 25 243s42.667 173.667 78 269z" />
    <glyph glyph-name="o" unicode="o" horiz-adv-x="1688" 
d="M1438 1786c42 0 78.665 -6.83398 109.998 -20.501s57.333 -32.667 78 -57s36.167 -53.333 46.5 -87s15.5 -70.5 15.5 -110.5c0 -32.667 -2.33301 -68.5 -7 -107.5s-11.334 -79.833 -20.001 -122.5s-18.667 -86.5 -30 -131.5s-23.666 -89.667 -36.999 -134
s-27.333 -87.666 -42 -129.999s-29.667 -82.166 -45 -119.499c6.66699 -6 16.834 -12.333 30.501 -19s30.834 -10 51.501 -10c59.333 0 119.5 24.833 180.5 74.5s125.167 128.834 192.5 237.501c18.667 0 37.5 -3.66699 56.5 -11s36.167 -17.5 51.5 -30.5
s27.833 -28.667 37.5 -47s14.5 -38.166 14.5 -59.499c0 -28.667 -7.33301 -62.334 -22 -101.001s-35.334 -78.667 -62.001 -120s-59 -82 -97 -122s-80 -75.833 -126 -107.5s-95.667 -57.334 -149 -77.001s-109 -29.5 -167 -29.5c-37.333 0 -68.333 3.16699 -93 9.5
s-48.334 16.833 -71.001 31.5c-48.667 -66.667 -99.167 -125.667 -151.5 -177s-107.166 -94.5 -164.499 -129.5s-117.666 -61.667 -180.999 -80s-131 -27.5 -203 -27.5c-72.667 0 -140.667 12.167 -204 36.5s-118.333 61 -165 110s-83.5 110.833 -110.5 185.5
s-40.5 162 -40.5 262c0 113.333 11.667 223.833 35 331.5s55.333 209.167 96 304.5s88.834 182.666 144.501 261.999s115.834 147.833 180.501 205.5s132.834 102.5 204.501 134.5s143.5 48 215.5 48c26.667 0 54.167 -3 82.5 -9s54.166 -16 77.499 -30
s42.666 -32.5 57.999 -55.5s23.333 -51.5 24 -85.5c28.667 35.333 60.167 63.333 94.5 84s71.166 31 110.499 31zM695.998 716.999c0 -50 4.16797 -91.6641 12.501 -124.997s19.5 -59.833 33.5 -79.5s29.833 -33.5 47.5 -41.5s35.834 -12 54.501 -12
c24.667 0 48.167 4.5 70.5 13.5s43.5 21.167 63.5 36.5s38.667 33.166 56 53.499s33 41.833 47 64.5c-11.333 23.333 -21 50.166 -29 80.499s-14.667 62.166 -20 95.499s-9.33301 67.166 -12 101.499s-4 67.5 -4 99.5c0 40 3 82.833 9 128.5s14.833 92.167 26.5 139.5
s25.834 94.333 42.501 141s35.667 90.334 57 131.001c-42 -20 -82.5 -46.5 -121.5 -79.5s-75.333 -70.833 -109 -113.5s-64.334 -89.167 -92.001 -139.5s-51.334 -102.833 -71.001 -157.5s-34.834 -110.5 -45.501 -167.5s-16 -113.5 -16 -169.5z" />
    <glyph glyph-name="p" unicode="p" horiz-adv-x="1905" 
d="M426 -1053c-32 0 -65.1768 4.33887 -99.5098 13.0059s-67.666 20.834 -99.999 36.501s-63 34.5 -92 56.5s-54.333 46.5 -76 73.5s-38.834 56.167 -51.501 87.5s-19 64 -19 98c0 57.333 16.5 137 49.5 239s87.5 221.667 163.5 359l41 1188
c4 116.667 17 223.334 39 320.001s50.5 183.5 85.5 260.5s74.833 144.333 119.5 202s91.834 105.5 141.501 143.5s100.334 66.5 152.001 85.5s101.834 28.5 150.501 28.5c42 0 79.833 -4.66699 113.5 -14s62.5 -22.5 86.5 -39.5s42.333 -37.667 55 -62
s19 -51.166 19 -80.499c0 -6.66699 -0.166992 -13.834 -0.5 -21.501s-1.5 -15.834 -3.5 -24.501c-38 -34 -74.667 -72.333 -110 -115s-69 -91.5 -101 -146.5s-61.667 -116.833 -89 -185.5s-51.666 -146 -72.999 -232c66 97.333 131.333 182.5 196 255.5s127 134 187 183
s116.667 85.667 170 110s101.333 36.5 144 36.5c50 0 95 -9 135 -27s73.833 -43.167 101.5 -75.5s49 -71.166 64 -116.499s22.5 -95 22.5 -149c0 -63.333 -10.833 -131 -32.5 -203s-52.167 -146.167 -91.5 -222.5s-86.666 -154.333 -141.999 -234
s-116.666 -158.834 -183.999 -237.501c22.667 -14.667 45.334 -25.834 68.001 -33.501s50.334 -11.5 83.001 -11.5c23.333 0 56.333 9.83301 99 29.5s91.667 51.167 147 94.5s115.5 99.166 180.5 167.499s131.833 151.166 200.5 248.499c19.333 0 38.666 -3.16699 58 -9.5
c19.333 -6.33301 36.5 -15.333 51.5 -27s27.167 -25.834 36.5 -42.501s14 -35.334 14 -56.001c0 -32 -10 -69.5 -30 -112.5s-47.167 -88.667 -81.5 -137s-75 -98 -122 -149s-97.5 -100.667 -151.5 -149s-110.333 -93.833 -169 -136.5s-117.167 -80.167 -175.5 -112.5
s-115 -57.833 -170 -76.5s-106.167 -28 -153.5 -28s-89.166 5.66699 -125.499 17s-68.166 26.833 -95.499 46.5s-50.5 42.667 -69.5 69s-34.333 54.166 -46 83.499s-20 59.5 -25 90.5s-7.5 61.167 -7.5 90.5c0 24.667 2.5 47.834 7.5 69.501s13.333 41.5 25 59.5
s26.834 33.833 45.501 47.5s42 24.5 70 32.5c37.333 72 67.833 139.5 91.5 202.5s35.5 117.167 35.5 162.5c0 43.333 -7 73.166 -21 89.499s-34.333 24.5 -61 24.5c-13.333 0 -28.5 -3.83301 -45.5 -11.5s-36.833 -20.334 -59.5 -38.001s-48.834 -40.834 -78.501 -69.501
s-64.167 -64 -103.5 -106c-8 -190.667 -17.5 -370.167 -28.5 -538.5s-24.167 -323.166 -39.5 -464.499s-33 -268 -53 -380s-43.167 -207 -69.5 -285s-56.333 -137.667 -90 -179s-71.167 -62 -112.5 -62z" />
    <glyph glyph-name="q" unicode="q" 
d="M1073 1470c-38.667 -21.333 -74.6699 -47.998 -108.003 -79.998s-63.666 -67.333 -90.999 -106s-51.5 -80 -72.5 -124s-38.667 -88.333 -53 -133s-25.166 -89 -32.499 -133s-11 -85.333 -11 -124c0 -40.667 1.66699 -73.834 5 -99.501s8.66602 -45.834 15.999 -60.501
s17 -24.5 29 -29.5s26.667 -7.5 44 -7.5c26.667 0 53.334 7.16699 80.001 21.5s57.334 38.833 92.001 73.5l25 204l26 219l26 208c8.66699 66 17 123 25 171zM880.997 -175.998c3.33301 23.333 7.16602 55.333 11.499 96l15 138.5l18.5 167.5l20 184
c-20.667 -60.667 -47 -116.167 -79 -166.5s-67.5 -93.5 -106.5 -129.5s-80 -64 -123 -84s-86.167 -30 -129.5 -30c-64.667 0 -122.167 14 -172.5 42s-92.833 68 -127.5 120s-61 114.833 -79 188.5s-27 156.167 -27 247.5c0 84 12.833 171.167 38.5 261.5s60.5 179 104.5 266
s95.167 169.333 153.5 247s120.333 146 186 205s133 105.667 202 140s135.833 51.5 200.5 51.5c28.667 0 51 -2.16699 67 -6.5s29.333 -11.5 40 -21.5c8 74 14 138.833 18 194.5s6 108.167 6 157.5c8 9.33301 18.667 17.5 32 24.5s27.166 13 41.499 18
s28.833 8.66699 43.5 11s27.667 3.5 39 3.5c64.667 0 124.834 -10.5 180.501 -31.5s104.167 -47.833 145.5 -80.5s73.833 -68.334 97.5 -107.001s35.5 -76 35.5 -112c0 -40 -4.16699 -80.167 -12.5 -120.5s-19 -84 -32 -131l-44 -157
c-16.333 -57.667 -32.166 -123.834 -47.499 -198.501c-12 -58 -23.833 -122.333 -35.5 -193s-22.834 -143 -33.501 -217s-20.334 -147.5 -29.001 -220.5l-24 -204.5c38 30 81 67.667 129 113s98 96.5 150 153.5s104.333 118.333 157 184s102.334 133.834 149.001 204.501
c28 0 53.167 -3.66699 75.5 -11s41.333 -17.333 57 -30s27.667 -27.167 36 -43.5s12.5 -33.166 12.5 -50.499c0 -33.333 -11.667 -74.166 -35 -122.499s-55 -101 -95 -158s-86.833 -116.333 -140.5 -178s-110.5 -122.5 -170.5 -182.5s-121.667 -117.667 -185 -173
s-125 -105 -185 -149l-25 -356c4 -19.333 9.83301 -44 17.5 -74s15.5 -62.667 23.5 -98s14.833 -72 20.5 -110s8.5 -75 8.5 -111c0 -32.667 -3.16699 -63.5 -9.5 -92.5s-17.166 -54.167 -32.499 -75.5s-35.833 -38.333 -61.5 -51s-58.167 -19 -97.5 -19
c-44.667 0 -89.167 6.33301 -133.5 19s-86.5 29.5 -126.5 50.5s-77.167 45.667 -111.5 74s-64 58 -89 89s-44.667 62.833 -59 95.5s-21.5 64 -21.5 94c0 36.667 3.83301 73.667 11.5 111s18.167 74.666 31.5 111.999s29 75.333 47 114s37.333 78 58 118z" />
    <glyph glyph-name="r" unicode="r" horiz-adv-x="1569" 
d="M1143 1565c60 -17.333 108.998 -34.3301 146.998 -50.9971s67.667 -33.834 89 -51.501s35.833 -36.5 43.5 -56.5s11.5 -42.333 11.5 -67c0 -41.333 -10.167 -87 -30.5 -137s-47.166 -108 -80.499 -174c-23.333 -46.667 -45.666 -93.834 -66.999 -141.501
s-40 -93.167 -56 -136.5s-28.833 -83.333 -38.5 -120s-14.5 -67.667 -14.5 -93c0 -29.333 4.83301 -53.166 14.5 -71.499s28.167 -27.5 55.5 -27.5c19.333 0 42.833 6.83301 70.5 20.5s58.334 33 92.001 58s69.667 55.333 108 91s77.166 75.5 116.499 119.5
s78.666 91.667 117.999 143s77 105.333 113 162c25.333 0 48.666 -3.66699 69.999 -11s39.5 -17 54.5 -29s26.667 -25.667 35 -41s12.5 -30.666 12.5 -45.999c0 -32 -10.333 -70.833 -31 -116.5s-48.834 -94.667 -84.501 -147s-77.667 -106.5 -126 -162.5
s-100.166 -110.833 -155.499 -164.5s-113.166 -104.5 -173.499 -152.5s-120.166 -90 -179.499 -126s-116.833 -64.667 -172.5 -86s-107.167 -32 -154.5 -32c-124.667 0 -220.667 28.167 -288 84.5s-101 142.833 -101 259.5c0 45.333 5 92.166 15 140.499
s22.333 96.333 37 144s30.667 94.167 48 139.5l48 126c14.667 38.667 27 73.167 37 103.5s15 54.166 15 71.499c0 24.667 -11.167 44.667 -33.5 60s-56.166 32.333 -101.499 51l-90.5 -164.5c-28.333 -49 -56.5 -94.833 -84.5 -137.5s-56.667 -83 -86 -121s-61 -76 -95 -114
c-26 0 -49.167 4.33301 -69.5 13s-37.5 20.334 -51.5 35.001s-24.667 31.667 -32 51s-11 39.666 -11 60.999c0 16.667 2.16699 33.667 6.5 51s11.833 33 22.5 47l74.5 106.5l66 98.5c21 32.667 40.833 66.5 59.5 101.5s36.667 73.5 54 115.5
c-16.667 18.667 -31.167 41.5 -43.5 68.5s-18.5 60.167 -18.5 99.5c0 48 11 98.333 33 151s51 104.667 87 156s77.167 100.166 123.5 146.499s94 87.166 143 122.499s97.167 63.5 144.5 84.5s90.333 31.5 129 31.5c34.667 0 66.334 -4 95.001 -12s53.167 -19.5 73.5 -34.5
s36.166 -33.333 47.499 -55s17 -46.5 17 -74.5c0 -29.333 -4 -56.666 -12 -81.999c-49.333 -26.667 -94.5 -56 -135.5 -88s-75.167 -71 -102.5 -117c22.667 -12 51.667 -24.667 87 -38s70.666 -25 105.999 -35z" />
    <glyph glyph-name="s" unicode="s" horiz-adv-x="1503" 
d="M299 1176c36 0 69.6699 -10.167 101.003 -30.5s58.666 -45.166 81.999 -74.499s41.666 -60.666 54.999 -93.999s20 -62.666 20 -87.999c0 -21.333 -2.33301 -41.5 -7 -60.5s-11.5 -37.5 -20.5 -55.5s-20 -35.833 -33 -53.5s-28.167 -36.167 -45.5 -55.5
c8 -45.333 22 -86.666 42 -123.999s42.667 -69.333 68 -96s51.833 -47.334 79.5 -62.001s53.167 -22 76.5 -22c10 0 20.167 1.66699 30.5 5s19.666 8.83301 27.999 16.5s15 17.5 20 29.5s7.5 26.667 7.5 44c0 34.667 -5.83301 76.667 -17.5 126s-26.334 102.333 -44.001 159
l-57.5 177c-20.667 61.333 -39.834 121.666 -57.501 180.999s-32.334 116 -44.001 170s-17.5 102.333 -17.5 145c0 86 16.5 164.667 49.5 236s78.5 132.666 136.5 183.999s126.833 91.166 206.5 119.499s166.167 42.5 259.5 42.5c118.667 0 211 -25.333 277 -76
s99 -125 99 -223c0 -43.333 -8.16699 -84.833 -24.5 -124.5s-36.833 -71.834 -61.5 -96.501c-78.667 32.667 -151 49 -217 49c-43.333 0 -76 -7.16699 -98 -21.5s-33 -40.166 -33 -77.499c0 -30.667 5.83301 -65.334 17.5 -104.001s26.167 -80.167 43.5 -124.5l56 -140
c20 -49 38.667 -98.833 56 -149.5s31.833 -101.667 43.5 -153s17.5 -102 17.5 -152c0 -82.667 -11 -157 -33 -223s-52 -124.5 -90 -175.5s-82.667 -94.833 -134 -131.5s-106.333 -66.667 -165 -90s-119.5 -40.5 -182.5 -51.5s-125.167 -16.5 -186.5 -16.5
c-80 0 -154.5 13.333 -223.5 40s-129.167 66.334 -180.5 119.001s-91.666 117.834 -120.999 195.501s-44 167.167 -44 268.5c0 40 1.83301 83.667 5.5 131s9.83398 94.666 18.501 141.999s19.834 93 33.501 137s30.334 83 50.001 117s42.667 61.167 69 81.5
s56.166 30.5 89.499 30.5z" />
    <glyph glyph-name="t" unicode="t" horiz-adv-x="1348" 
d="M160 471c0 30 2.99512 68.6631 8.99512 115.996s16.333 106.666 31 177.999s34.667 155.833 60 253.5s57.333 211.5 96 341.5c-20.667 2 -40.167 4.5 -58.5 7.5s-34.333 8 -48 15s-24.5 17 -32.5 30s-12 30.833 -12 53.5c0 32 5.5 62.5 16.5 91.5s27.5 54.833 49.5 77.5
s49 41 81 55s69 21.333 111 22c1.33301 21.333 2.5 42.166 3.5 62.499s2.33301 42 4 65s3.83398 48.5 6.50098 76.5s6 61 10 99c9.33301 90 29.5 173 60.5 249s70.167 141.333 117.5 196s101.5 97.334 162.5 128c61 30.667 126.5 46 196.5 46
c47.333 0 88.166 -4.33301 122.499 -13s62.666 -22.667 84.999 -42s39 -44.333 50 -75s16.5 -68 16.5 -112c0 -21.333 -1.5 -42.333 -4.5 -63s-8.33301 -43.334 -16 -68.001s-18 -52.5 -31 -83.5s-29.333 -67.333 -49 -109l-70.5 -144.5l-95 -191
c32 1.33301 65.833 2.83301 101.5 4.5s69.834 3.83398 102.501 6.50098s62.167 5.5 88.5 8.5s46.166 5.83301 59.499 8.5c12.667 -9.33301 23.834 -20.666 33.501 -33.999s17.834 -27.666 24.501 -42.999s11.667 -31.166 15 -47.499s5 -32.166 5 -47.499
c0 -38.667 -6 -74.667 -18 -108s-28.667 -62.333 -50 -87s-46.333 -44 -75 -58s-60 -21 -94 -21c-24 0 -47.5 0.333008 -70.5 1s-46.5 1.83398 -70.5 3.50098s-49 4.16699 -75 7.5s-53.667 7.33301 -83 12c-28 -112.667 -51.167 -211.667 -69.5 -297s-33 -158.333 -44 -219
s-18.833 -109.5 -23.5 -146.5s-7 -63.167 -7 -78.5c0 -48.667 7.83301 -84.667 23.5 -108s44.834 -35 87.501 -35c42 0 90.5 12.333 145.5 37s114.167 61.5 177.5 110.5s129.333 110.333 198 184s138 159.5 208 257.5c19.333 0 38.833 -3.33301 58.5 -10
s37.334 -16.167 53.001 -28.5s28.334 -27 38.001 -44s14.5 -35.833 14.5 -56.5c0 -30 -9.33301 -67 -28 -111s-44.5 -91.667 -77.5 -143s-72.333 -104.833 -118 -160.5s-95.334 -110.167 -149.001 -163.5s-110.667 -104 -171 -152s-121.666 -90.167 -183.999 -126.5
s-125 -65.166 -188 -86.499s-123.833 -32 -182.5 -32c-78.667 0 -150.5 10.5 -215.5 31.5s-120.667 53.5 -167 97.5s-82.166 100.167 -107.499 168.5s-38 149.5 -38 243.5z" />
    <glyph glyph-name="u" unicode="u" horiz-adv-x="1855" 
d="M1282 1831c20.667 26.667 46.835 46.3359 78.502 59.0029s62.834 19 93.501 19c57.333 0 110.166 -9.33301 158.499 -28s90.166 -43.5 125.499 -74.5s63 -66.5 83 -106.5s30 -81 30 -123c0 -18.667 -1.16699 -38.167 -3.5 -58.5s-6.33301 -43 -12 -68
s-13.5 -53.167 -23.5 -84.5s-22.667 -67.666 -38 -108.999c-14 -38.667 -30.167 -80.834 -48.5 -126.501l-56.5 -139l-56.5 -138.5l-49 -125.5c-14.333 -38.333 -25.833 -71.833 -34.5 -100.5s-13 -49.334 -13 -62.001c0 -26.667 5.33301 -44.167 16 -52.5
s24.334 -12.5 41.001 -12.5c23.333 0 53 10.5 89 31.5s77.5 53.167 124.5 96.5s99 98.5 156 165.5s118.167 146.5 183.5 238.5c21.333 0 42.166 -3.16699 62.5 -9.5c20.333 -6.33301 38.333 -15.166 54 -26.499s28.167 -24.666 37.5 -39.999s14 -32.333 14 -51
c0 -36.667 -11.833 -79.834 -35.5 -129.501s-55.834 -102.334 -96.5 -158.001c-40.667 -55.667 -87.834 -112.334 -141.5 -170.001c-53.667 -57.667 -110.167 -112.5 -169.5 -164.5c-48 -42.667 -97.167 -82.5 -147.5 -119.5s-100.5 -69.167 -150.5 -96.5
s-98.833 -48.666 -146.5 -63.999s-93.167 -23 -136.5 -23c-42 0 -79.667 3.83301 -113 11.5s-61.833 21.5 -85.5 41.5s-41.667 47.167 -54 81.5s-18.5 78.166 -18.5 131.499c0 28.667 2.16699 60.5 6.5 95.5s10.5 74.167 18.5 117.5
c-49.333 -93.333 -101.166 -174.166 -155.499 -242.499s-109 -125 -164 -170s-109.167 -78.333 -162.5 -100s-103 -32.5 -149 -32.5c-60 0 -109.333 8.5 -148 25.5s-69.167 41.833 -91.5 74.5s-37.833 73 -46.5 121s-13 102.667 -13 164c0 30.667 3.5 68 10.5 112
s17.5 93 31.5 147s31.167 111.667 51.5 173s43.833 125 70.5 191c-22.667 43.333 -37.167 86.166 -43.5 128.499s-9.5 84.166 -9.5 125.499c0 42.667 10.167 89.667 30.5 141s47.666 103.5 81.999 156.5s74.333 104.333 120 154s93.667 93.834 144 132.501
s101.5 69.667 153.5 93s102 35 150 35c32 0 60.167 -2.83301 84.5 -8.5s44.666 -14.834 60.999 -27.501s28.833 -29.5 37.5 -50.5s13 -46.833 13 -77.5c0 -66 -26.167 -159 -78.5 -279s-131.166 -265.667 -236.499 -437c-20.667 -74.667 -36.834 -141.167 -48.501 -199.5
s-17.5 -103.833 -17.5 -136.5c0 -33.333 6.5 -59.5 19.5 -78.5s33.833 -28.5 62.5 -28.5c17.333 0 38 5.66699 62 17s49 25.833 75 43.5s51.667 37.5 77 59.5s48.333 43.667 69 65c34.667 110.667 64.5 212.667 89.5 306s46.167 182.833 63.5 268.5
s31.166 169.5 41.499 251.5s17.833 167 22.5 255z" />
    <glyph glyph-name="v" unicode="v" horiz-adv-x="1749" 
d="M1790 1516c0 -146.667 -15.8369 -287.004 -47.5039 -421.004s-74.834 -258.5 -129.501 -373.5s-118.834 -219.167 -192.501 -312.5s-152.667 -173 -237 -239s-172 -117 -263 -153s-180.833 -54 -269.5 -54c-78 0 -150 10.833 -216 32.5s-123 55.834 -171 102.501
s-85.5 106.5 -112.5 179.5s-40.5 160.833 -40.5 263.5c0 51.333 5.16699 105.833 15.5 163.5s25.666 116.834 45.999 177.501s45.833 121.834 76.5 183.501s66.334 121.5 107.001 179.5c-25.333 12 -45.833 26.5 -61.5 43.5s-27.667 35 -36 54s-13.833 38.333 -16.5 58
s-4 38.834 -4 57.501c1.33301 51.333 17.333 102.333 48 153s72.334 96.334 125.001 137.001s114.334 73.5 185.001 98.5s146.334 37.5 227.001 37.5c40 0 78 -4.16699 114 -12.5s67.833 -21.833 95.5 -40.5s49.5 -42.334 65.5 -71.001s24 -63.667 24 -105
c0 -8.66699 -0.166992 -17 -0.5 -25s-1.5 -16 -3.5 -24c-65.333 -61.333 -124.166 -129.666 -176.499 -204.999s-96.666 -153.333 -132.999 -234s-64.166 -162 -83.499 -244s-29 -160.333 -29 -235c0 -40 2.66699 -73.833 8 -101.5s13.333 -50 24 -67
s24.167 -29.333 40.5 -37s35.833 -11.5 58.5 -11.5c28 0 58.167 12 90.5 36s64.666 58.167 96.999 102.5s63.333 97.666 93 159.999s56 131.666 79 207.999s41.333 158.833 55 247.5s20.5 181.334 20.5 278.001c0 18.667 -0.666992 41.5 -2 68.5s-3.33301 55.333 -6 85
l-8 87.5c-2.66699 28.667 -5.66699 53.667 -9 75c18.667 24.667 45.834 45.167 81.501 61.5s78.167 24.5 127.5 24.5c63.333 0 117 -10.667 161 -32s79.5 -50 106.5 -86s46.5 -77.333 58.5 -124s18 -95.667 18 -147z" />
    <glyph glyph-name="w" unicode="w" horiz-adv-x="2478" 
d="M418 1343c-19.333 16.667 -35.0059 34.4961 -47.0059 53.4961s-21.167 38.5 -27.5 58.5s-10.5 40 -12.5 60s-3 39.333 -3 58c0.666992 42.667 9.16699 84.5 25.5 125.5s38.833 80 67.5 117s62.667 71.167 102 102.5s82.333 58.5 129 81.5s95.834 41 147.501 54
s104.5 19.5 158.5 19.5c54.667 0 101 -6.5 139 -19.5s68.833 -30.833 92.5 -53.5s40.834 -49.167 51.501 -79.5s16 -62.833 16 -97.5c0 -10.667 -0.166992 -21 -0.5 -31s-1.5 -20.333 -3.5 -31c-44 -46 -87.667 -98.667 -131 -158s-84.666 -122 -123.999 -188
s-75.666 -133.667 -108.999 -203s-62.166 -137.333 -86.499 -204s-43.333 -130.5 -57 -191.5s-20.5 -116.167 -20.5 -165.5c0 -63.333 9.5 -107.833 28.5 -133.5s44.833 -38.5 77.5 -38.5c10 0 23 0.666992 39 2s33 4.33301 51 9s36.333 11.334 55 20.001
s36 20.334 52 35.001c-2 14 -3.16699 35 -3.5 63s-0.5 57.333 -0.5 88c0 80.667 7.5 161.5 22.5 242.5s35.333 158.833 61 233.5s55.667 144.5 90 209.5s70.833 121.333 109.5 169s78.667 85.167 120 112.5s81.666 41 120.999 41c52 0 96.333 -8 133 -24
s66.334 -37.833 89.001 -65.5s39.167 -60.5 49.5 -98.5s15.5 -79 15.5 -123c0 -46 -6.16699 -100.833 -18.5 -164.5s-31.5 -131.667 -57.5 -204s-59.5 -147.166 -100.5 -224.499s-90.167 -153 -147.5 -227c4.66699 -55.333 17.834 -96.333 39.501 -123
s46.834 -40 75.501 -40c28 0 54.667 10 80 30s49.166 47.167 71.499 81.5s43 74.666 62 120.999s36.167 96 51.5 149s29 107.833 41 164.5s22 112.5 30 167.5s14.167 108 18.5 159s6.5 97.167 6.5 138.5c0 24.667 -0.833008 51.167 -2.5 79.5s-3.83398 56.833 -6.50098 85.5
s-5 56.334 -7 83.001s-3.66699 50.667 -5 72c18.667 30.667 46.334 55.334 83.001 74.001s78.667 28 126 28c44 0 82.833 -6.16699 116.5 -18.5s63 -29 88 -50s46.167 -45.333 63.5 -73s31.333 -56.667 42 -87s18.334 -61 23.001 -92s7 -60.5 7 -88.5
c0 -121.333 -12.5 -242.833 -37.5 -364.5s-60.333 -238.5 -106 -350.5s-100.5 -216.167 -164.5 -312.5s-134.833 -180.166 -212.5 -251.499s-161.167 -127.333 -250.5 -168s-182 -61 -278 -61c-79.333 0 -148.333 21.667 -207 65s-105.667 113.333 -141 210
c-38 -36 -78.5 -69 -121.5 -99s-87.5 -56 -133.5 -78s-93 -39 -141 -51s-96 -18 -144 -18c-72 0 -137.833 9.83301 -197.5 29.5s-111 50.5 -154 92.5s-76.5 95.833 -100.5 161.5s-36 144.5 -36 236.5c0 81.333 7.66699 158.666 23 231.999s37.166 145 65.499 215
s62.833 139.5 103.5 208.5s86 139.833 136 212.5z" />
    <glyph glyph-name="x" unicode="x" horiz-adv-x="1905" 
d="M516 496c13.333 0 30.8281 7.3291 52.4951 21.9961s45.667 35.167 72 61.5s54.166 58.166 83.499 95.499s58.333 78.666 87 123.999c-16.667 62.667 -32.167 118.5 -46.5 167.5s-27.833 92 -40.5 129s-24.334 68.5 -35.001 94.5s-20.667 47 -30 63
c-50.667 0 -93.667 4.16699 -129 12.5s-64 21 -86 38s-38 38.333 -48 64s-15 55.834 -15 90.501c0 40.667 7 82.167 21 124.5s33 83.5 57 123.5s52.167 77.833 84.5 113.5s66.666 66.667 102.999 93s73.833 47.333 112.5 63s76.334 23.5 113.001 23.5
c19.333 0 39.5 -2.33301 60.5 -7s42 -13.167 63 -25.5s41.167 -29.666 60.5 -51.999s37.333 -51.5 54 -87.5c26.667 -58 54 -128.167 82 -210.5s55.333 -171.833 82 -268.5l123 204.5c36 57.667 68.667 106.667 98 147s56.166 73.333 80.499 99s47.5 45.667 69.5 60
s43.333 24.166 64 29.499s42.334 8 65.001 8c38.667 0 72 -8.66699 100 -26s51 -39.666 69 -66.999s31.167 -57.666 39.5 -90.999s12.5 -66 12.5 -98c0 -9.33301 -1 -20.666 -3 -33.999s-4.66699 -27 -8 -41s-7.16602 -27.167 -11.499 -39.5
s-9.16602 -22.166 -14.499 -29.499c-30 -10 -57.667 -20.333 -83 -31s-50.666 -23.834 -75.999 -39.501s-51.5 -34.834 -78.5 -57.501s-57.167 -51.334 -90.5 -86.001s-71 -76.167 -113 -124.5l-145 -173.5l35 -146.5l35 -143.5c8 -34 16.333 -61.667 25 -83
s18.834 -38 30.501 -50s25.167 -20.167 40.5 -24.5s33.666 -6.5 54.999 -6.5c28.667 0 63.5 11 104.5 33s86.667 55.5 137 100.5s104.833 101.333 163.5 169s120.334 146.834 185 237.501c19.333 0 38.166 -3.83301 56.499 -11.5s34.5 -18.167 48.5 -31.5
s25.333 -28.833 34 -46.5s13 -36.834 13 -57.501c0 -27.333 -9.33301 -61.666 -28 -102.999s-44.5 -86.5 -77.5 -135.5s-71.667 -100.333 -116 -154s-92 -106.334 -143 -158.001s-104.333 -101 -160 -148s-111.167 -88.167 -166.5 -123.5s-109.333 -63.5 -162 -84.5
s-101.667 -31.5 -147 -31.5c-55.333 0 -104.166 5.5 -146.499 16.5s-79.5 29.333 -111.5 55s-59.333 59.5 -82 101.5s-41.667 93.667 -57 155c-6 24.667 -12.167 48.334 -18.5 71.001l-18.5 68c-48 -76.667 -98 -145.167 -150 -205.5s-103.667 -111.333 -155 -153
s-101 -73.5 -149 -95.5s-92 -33 -132 -33c-63.333 0 -119 8.83301 -167 26.5s-88.167 46.334 -120.5 86.001s-56.666 91.834 -72.999 156.501s-24.5 144 -24.5 238c0 54 5.33301 107.5 16 160.5s25.834 103.5 45.501 151.5s42.834 92.5 69.501 133.5
s55.834 76.5 87.501 106.5s65.5 53.5 101.5 70.5s72.667 25.5 110 25.5c24 0 47 -3.16699 69 -9.5s42.167 -14.5 60.5 -24.5s34.5 -20.833 48.5 -32.5s24.333 -22.5 31 -32.5c-4 -10.667 -9 -25.667 -15 -45s-12.333 -41 -19 -65s-13.334 -49.667 -20.001 -77
s-12.667 -54.666 -18 -81.999s-9.66602 -53.833 -12.999 -79.5s-5 -48.5 -5 -68.5c0 -25.333 3.16699 -45.333 9.5 -60s15.5 -22 27.5 -22z" />
    <glyph glyph-name="y" unicode="y" horiz-adv-x="1778" 
d="M483 -213c-5.33301 26 -11 52.1689 -17 78.502l-20.5 86l-26.5 102.5l-34 127l-43 160.5l-55 203.5l-53.5 200c-15 58.667 -27.333 113.667 -37 165s-16.834 101.5 -21.501 150.5s-7 101.167 -7 156.5c0 67.333 9.16699 131.5 27.5 192.5s43.166 117.667 74.499 170
s68 99.5 110 141.5s86.667 77.833 134 107.5s96 52.5 146 68.5s99 24 147 24c45.333 0 83.833 -4.66699 115.5 -14s57.5 -23 77.5 -41s34.5 -40 43.5 -66s13.5 -55.333 13.5 -88c-50 -36 -91 -71.833 -123 -107.5s-57.167 -73.167 -75.5 -112.5s-30.833 -81.5 -37.5 -126.5
s-10 -94.5 -10 -148.5c0 -52 9.5 -132 28.5 -240s49.167 -238.333 90.5 -391c19.333 19.333 38.5 39.833 57.5 61.5s36.667 42.834 53 63.501s30.833 40.167 43.5 58.5s22.667 33.5 30 45.5c-2 20.667 -3.83301 43 -5.5 67s-2.5 49.333 -2.5 76
c0 49.333 2 101.166 6 155.499s10 108.666 18 162.999s17.833 107.333 29.5 159s25.167 98.834 40.5 141.501c14 42 28.5 77.833 43.5 107.5s31.167 53.667 48.5 72s36.5 31.833 57.5 40.5s44.833 13 71.5 13c30 0 59.5 -6.33301 88.5 -19s56.333 -29.834 82 -51.501
s49.334 -46.834 71.001 -75.501s40.5 -58.5 56.5 -89.5s28.333 -62.5 37 -94.5s13 -62.333 13 -91c0 -36.667 -4 -75.5 -12 -116.5s-20.5 -84.5 -37.5 -130.5s-39 -94.667 -66 -146s-59.5 -106.333 -97.5 -165c6 -16 14 -31.167 24 -45.5s20.833 -26.833 32.5 -37.5
s24 -19.167 37 -25.5s25.833 -9.5 38.5 -9.5c32.667 0 65.5 9.5 98.5 28.5s65.333 44 97 75s62.334 66.833 92.001 107.5s57.834 82.334 84.501 125.001c18.667 0 37.167 -3.66699 55.5 -11s35 -17.5 50 -30.5s27.167 -28.667 36.5 -47s14 -38.166 14 -59.499
c0 -40.667 -9.16699 -83 -27.5 -127s-43.5 -87 -75.5 -129s-69.333 -81.667 -112 -119s-88 -70 -136 -98s-97.667 -50.333 -149 -67s-101.666 -25 -150.999 -25c-28.667 0 -56.667 2 -84 6s-53.5 10.5 -78.5 19.5s-48.333 20.833 -70 35.5s-41.167 32.667 -58.5 54
c-13.333 -19.333 -30 -40.333 -50 -63s-41.167 -45.167 -63.5 -67.5l-68.5 -65.5l-64 -58c5.33301 -34 10 -69.167 14 -105.5s7.5 -71.5 10.5 -105.5s5.16699 -65.667 6.5 -95s2 -54.333 2 -75c0 -71.333 -7.83301 -140.833 -23.5 -208.5s-37.834 -131.667 -66.501 -192
s-63.334 -115.833 -104.001 -166.5s-86 -94.334 -136 -131.001s-104.167 -65.334 -162.5 -86.001s-119.5 -31 -183.5 -31c-46 0 -85.5 6 -118.5 18s-60.167 28.833 -81.5 50.5s-37 47.167 -47 76.5s-15 61.333 -15 96c0 34 5.33301 70.5 16 109.5s29.5 81 56.5 126
s63.833 93.333 110.5 145s105.667 106.5 177 164.5z" />
    <glyph glyph-name="z" unicode="z" horiz-adv-x="1679" 
d="M901 668l54.5049 -75.9951l49.5 -70l42.5 -60.5l33.5 -47.5c14.667 -20.667 28.167 -37.334 40.5 -50.001s24.5 -22.667 36.5 -30s24.333 -12.333 37 -15s26.667 -4 42 -4s32.5 2.66699 51.5 8s41.167 13.333 66.5 24s54.5 24.167 87.5 40.5l113.5 58.5
c14.667 -6.66699 28 -16.5 40 -29.5s22.333 -27.833 31 -44.5s15.5 -34.667 20.5 -54s7.5 -39.333 7.5 -60c0 -45.333 -9.66699 -90 -29 -134s-45.5 -85.5 -78.5 -124.5s-71.167 -75 -114.5 -108s-89 -61.5 -137 -85.5s-96.667 -42.667 -146 -56s-96.666 -20 -141.999 -20
c-52 0 -98.5 3.33301 -139.5 10s-79.5 19.667 -115.5 39s-71.333 46.333 -106 81s-71.834 80 -111.501 136s-83.5 124.167 -131.5 204.5l-166 286.5c-22.667 8 -44.334 19.667 -65.001 35s-39 33.166 -55 53.499s-28.667 42.5 -38 66.5s-14 49 -14 75
c0 49.333 8.66699 95.333 26 138s42.833 81.167 76.5 115.5s75.5 63.833 125.5 88.5s107.667 43 173 55l86 -72l76 -66.5c26.667 -23.667 50.334 -45.834 71.001 -66.501c41.333 18.667 82.166 43 122.499 73s76.833 60 109.5 90c38 34.667 74 70.667 108 108l-118 65
c-34 18.667 -64.167 34.334 -90.5 47.001s-50 22.334 -71 29.001s-41.167 10 -60.5 10c-28.667 0 -61.5 -5.5 -98.5 -16.5s-70.833 -25.833 -101.5 -44.5c-21.333 6 -40.333 14.333 -57 25s-30.834 24.667 -42.501 42s-20.5 38.166 -26.5 62.499s-9 53.5 -9 87.5
c0 47.333 11.5 96.666 34.5 147.999s54 98.5 93 141.5s83.833 78.5 134.5 106.5s103.667 42 159 42c27.333 0 52.833 -1.16699 76.5 -3.5s48.167 -6.66602 73.5 -12.999s52.666 -15.333 81.999 -27s63.166 -26.834 101.499 -45.501l132 -67.5l173.5 -93.5
c16.667 24.667 32.334 46.834 47.001 66.501s29 36.5 43 50.5s28.167 24.667 42.5 32s29.166 11 44.499 11c23.333 0 47.333 -7.5 72 -22.5s47 -35 67 -60s36.5 -53.833 49.5 -86.5s19.5 -66.334 19.5 -101.001c0 -40.667 -9.5 -83.334 -28.5 -128.001
s-46.333 -88.834 -82 -132.501s-79.334 -85.667 -131.001 -126s-110.167 -76.833 -175.5 -109.5c-82 -94 -163 -173.5 -243 -238.5s-163 -119.167 -249 -162.5z" />
    <glyph glyph-name="braceleft" unicode="{" horiz-adv-x="2265" 
d="M1499 999c28.667 -43.333 50.1582 -88.834 64.4912 -136.501s21.5 -100.167 21.5 -157.5c0 -64.667 -7.66699 -132.667 -23 -204s-32.166 -143.833 -50.499 -217.5s-35.166 -147.667 -50.499 -222s-23 -146.833 -23 -217.5c0 -38 4.66699 -72.5 14 -103.5
s25.833 -59.5 49.5 -85.5s55.834 -50 96.501 -72s92.334 -42.667 155.001 -62c2 -6.66699 3.16699 -13.667 3.5 -21s0.5 -14 0.5 -20c0 -36 -8.33301 -71 -25 -105s-41.5 -64.167 -74.5 -90.5s-74 -47.5 -123 -63.5s-105.833 -24 -170.5 -24c-64 0 -122.5 7.33301 -175.5 22
s-100.333 34.834 -142 60.501s-78 55.667 -109 90s-56.833 71 -77.5 110s-36 79.667 -46 122s-15 83.833 -15 124.5c0 61.333 7 122.5 21 183.5s31.667 121.167 53 180.5s44.333 117.333 69 174l69 164c21.333 52.667 39 103 53 151s21 92.667 21 134
c0 23.333 -3.83301 44.666 -11.5 63.999s-20.5 35.666 -38.5 48.999s-41.5 23.666 -70.5 30.999s-65.167 11 -108.5 11c-12 0 -29.167 -0.5 -51.5 -1.5s-45.666 -2.33301 -69.999 -4s-47.833 -3.66699 -70.5 -6s-40.667 -5.16602 -54 -8.49902
c-24.667 24.667 -43.834 52.5 -57.501 83.5s-20.5 70.167 -20.5 117.5c0 29.333 6.5 61 19.5 95s34 65.5 63 94.5s66.667 53 113 72s102.833 28.5 169.5 28.5c22.667 0 48.334 -1.66699 77.001 -5s58 -8.5 88 -15.5s59.5 -16.167 88.5 -27.5s55.167 -25.333 78.5 -42
c42 24.667 77 49.667 105 75s50.167 52.333 66.5 81s28 59.834 35 93.501s10.5 70.834 10.5 111.501c0 34.667 -1.66699 74.667 -5 120s-7.16602 92.5 -11.499 141.5s-8.16602 97.833 -11.499 146.5s-5 94 -5 136c0 89.333 15.333 173.166 46 251.5
c30.667 78.333 75.834 146.5 135.501 204.5s133.334 103.833 221.001 137.5s188.5 50.5 302.5 50.5c49.333 0 94.166 -5.33301 134.5 -16c40.333 -10.667 75.166 -25.667 104.5 -45c29.333 -19.333 52 -42.333 68 -69s24 -56 24 -88c0 -20 -2.66699 -40.333 -8 -61
s-12 -37 -20 -49c-84.667 -10 -153.334 -21.333 -206 -34c-52.667 -12.667 -93.5 -31 -122.5 -55s-48.5 -56.167 -58.5 -96.5s-15 -93.166 -15 -158.5v-455c0 -70.667 -8.5 -141.334 -25.5 -212.001s-45.5 -136.5 -85.5 -197.5s-93.333 -114.667 -160 -161
s-149.667 -80.166 -249 -101.499z" />
    <glyph glyph-name="bar" unicode="|" horiz-adv-x="1835" 
d="M1200 2761c14.667 8 32.9971 14.001 54.9971 18.001s43.333 6 64 6c44 0 83.833 -9.5 119.5 -28.5s66.334 -46.833 92.001 -83.5s45.334 -81.667 59.001 -135s20.5 -114.333 20.5 -183c0 -34.667 -2.5 -74.5 -7.5 -119.5s-13.333 -99.333 -25 -163
s-27.667 -138.667 -48 -225s-45.666 -188.166 -75.999 -305.499l-108 -405l-145.5 -523c-64 -222.667 -112.667 -428.5 -146 -617.5s-54.333 -359.833 -63 -512.5c-12 -14.667 -27.5 -25.834 -46.5 -33.501s-43.167 -11.5 -72.5 -11.5s-56.166 7.66699 -80.499 23
s-45 36.166 -62 62.499s-30.167 57.166 -39.5 92.499s-14 73 -14 113c0 50.667 2.16699 102.334 6.5 155.001s11.5 111.167 21.5 175.5s23.167 137 39.5 218l59.5 282.5l74.5 348l76.5 374l75 386c24.667 130 47.667 258.167 69 384.5s40.666 249.166 57.999 368.5
c17.333 119.333 32 232.333 44 339z" />
    <glyph glyph-name="braceright" unicode="}" horiz-adv-x="2286" 
d="M1217 991c-29.333 43.333 -51.167 88.833 -65.5 136.5s-21.5 100.5 -21.5 158.5c0 64.667 7.66699 132.5 23 203.5s32.333 143.5 51 217.5s35.667 148 51 222s23 146.333 23 217c0 38 -4.66699 72.667 -14 104s-26 60 -50 86s-56.333 50 -97 72s-92 42.667 -154 62
c-2.66699 6 -4.16699 12.833 -4.5 20.5s-0.5 14.5 -0.5 20.5c0 36 8.5 70.833 25.5 104.5s42 63.667 75 90s74 47.5 123 63.5s105.833 24 170.5 24c64 0 122.5 -7.33301 175.5 -22s100.333 -34.667 142 -60s78 -55.166 109 -89.5c31 -34.333 56.833 -71 77.5 -110
s36 -79.5 46 -121.5s15 -83.667 15 -125c0 -61.333 -7.16699 -122.5 -21.5 -183.5s-32 -121.167 -53 -180.5s-44 -117.333 -69 -174s-48 -111.334 -69 -164.001s-38.667 -103 -53 -151s-21.5 -92.667 -21.5 -134c0 -23.333 4 -44.666 12 -63.999s21 -35.833 39 -49.5
s41.667 -24.167 71 -31.5s65.333 -11 108 -11c12 0 29.167 0.5 51.5 1.5s45.5 2.33301 69.5 4s47.333 3.83398 70 6.50098s40.667 5.66699 54 9c24.667 -24.667 43.834 -52.5 57.501 -83.5s20.5 -70.167 20.5 -117.5c0 -30 -6.5 -62 -19.5 -96s-34 -65.5 -63 -94.5
s-66.5 -53 -112.5 -72s-102.333 -28.5 -169 -28.5c-22.667 0 -48.167 1.66699 -76.5 5s-57.5 8.5 -87.5 15.5s-59.667 16.333 -89 28s-55.666 25.5 -78.999 41.5c-42 -24.667 -77 -49.5 -105 -74.5s-50.167 -51.833 -66.5 -80.5s-28 -59.667 -35 -93
s-10.5 -70.666 -10.5 -111.999c0 -34.667 1.66699 -74.667 5 -120s7.16602 -92.5 11.499 -141.5s8.16602 -98 11.499 -147s5 -94.5 5 -136.5c0 -89.333 -15.333 -173 -46 -251s-75.834 -146 -135.501 -204s-133.334 -103.833 -221.001 -137.5s-188.5 -50.5 -302.5 -50.5
c-49.333 0 -94.333 5.33301 -135 16s-75.667 25.667 -105 45s-52 42.166 -68 68.499s-24 55.5 -24 87.5c0 20.667 2.83301 41.167 8.5 61.5s12.5 36.833 20.5 49.5c56.667 6.66699 106 13.834 148 21.501s77.833 17 107.5 28s53.834 24.333 72.501 40s33.5 35 44.5 58
s18.5 50.667 22.5 83s6 70.166 6 113.499v454c0 47.333 3.66699 94.666 11 141.999s19.166 93.5 35.499 138.5s37.833 88 64.5 129s59.334 78.667 98.001 113s83.834 64.333 135.501 90s110.5 45.5 176.5 59.5z" />
    <glyph glyph-name="asciitilde" unicode="~" horiz-adv-x="2048" 
d="M967 2662c88 10.667 164.828 21.334 230.495 32c65.667 10.667 122.834 22.167 171.501 34.5s90.334 25.5 125.001 39.5s65.167 29.333 91.5 46s50 34.834 71 54.5c21 19.667 42.167 41.167 63.5 64.5c45.333 -9.33301 84.5 -24.666 117.5 -46
c33 -21.333 60.167 -46.333 81.5 -75s37.166 -59.834 47.499 -93.5c10.333 -33.667 15.5 -67.5 15.5 -101.5c0 -67.333 -15.667 -127 -47 -179s-80.666 -96.167 -147.999 -132.5s-154.166 -65.333 -260.499 -87s-234.166 -36.167 -383.499 -43.5
c-72.667 -2.66699 -135.667 -7.5 -189 -14.5s-99.666 -16.333 -138.999 -28s-73.333 -26.167 -102 -43.5s-54.667 -37.666 -78 -61c-24.667 3.33301 -48.5 10.833 -71.5 22.5s-43.5 27.5 -61.5 47.5s-32.5 43.667 -43.5 71s-16.5 58 -16.5 92c0 50 8.5 96.667 25.5 140
s45.833 82 86.5 116s94.5 63.333 161.5 88s150.833 43.667 251.5 57z" />
    <glyph glyph-name="uni00A0" unicode="&#xa0;" horiz-adv-x="901" 
 />
    <glyph glyph-name="exclamdown" unicode="&#xa1;" horiz-adv-x="1454" 
d="M574 909c10 6 24.9961 11.6602 44.9961 16.9932s40.333 8 61 8c42.667 0 80.834 -10.833 114.501 -32.5s62.167 -50.167 85.5 -85.5s41 -75.666 53 -120.999s18 -91.333 18 -138c0 -30 -1.33301 -66.167 -4 -108.5s-6.83398 -89 -12.501 -140s-12.5 -105.667 -20.5 -164
s-17.5 -118.333 -28.5 -180s-23.333 -124.167 -37 -187.5s-28.834 -125.666 -45.501 -186.999c16.667 -39.333 29 -81.166 37 -125.499s12 -87.166 12 -128.499c0 -35.333 -7.66699 -71.333 -23 -108s-36.833 -72.167 -64.5 -106.5s-60.167 -66.666 -97.5 -96.999
s-78.166 -56.666 -122.499 -78.999s-91.166 -40 -140.499 -53s-99.333 -19.5 -150 -19.5c-43.333 0 -79.5 4.16699 -108.5 12.5s-52.5 20.5 -70.5 36.5s-30.833 36 -38.5 60s-11.5 52 -11.5 84c0 26.667 4.16699 59.667 12.5 99s21.333 84 39 134s39.834 104.667 66.501 164
s58.334 122.333 95.001 189c32.667 94.667 63.667 190.167 93 286.5s57.833 195.833 85.5 298.5s54.334 209.334 80.001 320.001s51.5 228 77.5 352zM974.996 1895.99c44 0 86 -9.33301 126 -28s75.333 -43.5 106 -74.5s55 -66.167 73 -105.5s27 -79.333 27 -120
c0 -33.333 -7.83301 -66.333 -23.5 -99s-36.834 -63.834 -63.501 -93.501s-57.5 -57.334 -92.5 -83.001s-72.167 -47.667 -111.5 -66s-79.333 -32.833 -120 -43.5s-79.667 -16 -117 -16s-68.333 3.83301 -93 11.5s-44.334 19 -59.001 34s-25.167 33.333 -31.5 55
s-9.5 46.834 -9.5 75.501c0 39.333 4.5 80.5 13.5 123.5s21.833 85 38.5 126s36.667 79.833 60 116.5s49.333 68.834 78 96.501s59.834 49.667 93.501 66s68.834 24.5 105.501 24.5z" />
    <glyph glyph-name="cent" unicode="&#xa2;" horiz-adv-x="1782" 
d="M1720 1667c0 -40 -3.83301 -80.832 -11.5 -122.499s-18.667 -81.667 -33 -120s-31.666 -74.333 -51.999 -108s-43.333 -63.167 -69 -88.5s-53.5 -45.166 -83.5 -59.499s-61.667 -21.5 -95 -21.5c-26.667 0 -51.334 3 -74.001 9s-40.334 15.333 -53.001 28
c3.33301 17.333 6.5 36 9.5 56s5.66699 40 8 60s4.16602 39.333 5.49902 58s2 35.667 2 51c0 41.333 -8.33301 73.5 -25 96.5s-42.667 34.5 -78 34.5c-22.667 0 -47.667 -7.33301 -75 -22s-55.166 -37.334 -83.499 -68.001s-55.833 -69.667 -82.5 -117
s-50.167 -103.666 -70.5 -168.999s-36.833 -139.833 -49.5 -223.5s-19 -177.5 -19 -281.5c0 -50.667 4.5 -94 13.5 -130s22 -65.167 39 -87.5s37.833 -38.666 62.5 -48.999s53 -15.5 85 -15.5c41.333 0 82 7.83301 122 23.5s80.5 38.334 121.5 68.001s83.333 66 127 109
s89.5 92.167 137.5 147.5c19.333 -4.66699 36.833 -12.667 52.5 -24s29 -25 40 -41s19.5 -33.833 25.5 -53.5s9 -40.167 9 -61.5c0 -33.333 -6 -69.333 -18 -108s-29.5 -78 -52.5 -118s-51.5 -79.5 -85.5 -118.5s-73.167 -75.667 -117.5 -110s-93.666 -65.333 -147.999 -93
s-113.166 -50.167 -176.499 -67.5c-8 -45.333 -14 -90 -18 -134s-6 -86.667 -6 -128c0 -62 4.16699 -124.833 12.5 -188.5s21.833 -126.5 40.5 -188.5c-12.667 -28.667 -34 -50.834 -64 -66.501s-64.667 -23.5 -104 -23.5c-50 0 -92.5 7.83301 -127.5 23.5
s-63.5 37.5 -85.5 65.5s-37.833 61.333 -47.5 100s-14.5 81 -14.5 127c0 58.667 4.83301 122.167 14.5 190.5s22.834 145.5 39.501 231.5c-68 16 -129.5 40.667 -184.5 74s-102 76.5 -141 129.5s-69 116.667 -90 191s-31.5 161.166 -31.5 260.499
c0 102 8.16699 203 24.5 303s40.833 196.667 73.5 290s73.5 181.666 122.5 264.999s106.5 158.833 172.5 226.5s140.333 126.167 223 175.5s173.667 86.666 273 111.999c41.333 147.333 70.5 268.166 87.5 362.5c17 94.333 27.5 161.833 31.5 202.5
c18.667 10.667 41.5 18.834 68.5 24.5c27 5.66699 51.833 8.5 74.5 8.5c30.667 0 58.834 -4.66699 84.501 -14s47.667 -22.666 66 -40c18.333 -17.333 32.666 -38 42.999 -62s15.5 -51 15.5 -81c0 -20 -2.16699 -42.333 -6.5 -67s-11.333 -52.5 -21 -83.5
s-22.334 -65.833 -38.001 -104.5s-34.834 -82 -57.501 -130c88 -16 153.667 -51.5 197 -106.5s65 -124.5 65 -208.5z" />
    <glyph glyph-name="sterling" unicode="&#xa3;" horiz-adv-x="2056" 
d="M918 274c58 -28.667 110.66 -53.6738 157.993 -75.0068s90.666 -39.166 129.999 -53.499s75.5 -25.166 108.5 -32.499s64.5 -11 94.5 -11c25.333 0 51.833 6.16699 79.5 18.5s55.334 32.166 83.001 59.499s54.834 63.166 81.501 107.499s52 98.833 76 163.5
c80 0 140.167 -22.667 180.5 -68s60.5 -110.333 60.5 -195c0 -56 -9 -111.167 -27 -165.5s-43 -105.833 -75 -154.5s-70.167 -93.667 -114.5 -135s-93 -77.166 -146 -107.499s-109.167 -54 -168.5 -71s-120 -25.5 -182 -25.5c-56.667 0 -114.667 8.83301 -174 26.5
s-119.666 41.167 -180.999 70.5s-123.166 63 -185.499 101l-187.5 117l-186.5 119c-61.667 39.333 -122.5 75 -182.5 107c3.33301 45.333 13.166 86.333 29.499 123s38.333 68.834 66 96.501s60.834 50 99.501 67s81.334 27.833 128.001 32.5
c10.667 28.667 20.334 60 29.001 94s18.334 69.667 29.001 107c-58 4 -113 8 -165 12s-95.333 8 -130 12c-12.667 14.667 -21.334 29.334 -26.001 44.001s-7 30.334 -7 47.001c0 31.333 7.83301 61.833 23.5 91.5s40.167 56.5 73.5 80.5s75.833 44 127.5 60
s113.5 26 185.5 30c4 16 7.33301 30.667 10 44s6 27.333 10 42c43.333 200.667 94.666 373 153.999 517s126.333 262.333 201 355s156.334 160.834 245.001 204.501s183.667 65.5 285 65.5c72 0 136.667 -9.66699 194 -29s106.333 -46.666 147 -82
c40.667 -35.333 71.834 -77.666 93.501 -126.999s32.5 -103.666 32.5 -162.999c0 -70 -14.167 -133.333 -42.5 -190s-70.166 -102.667 -125.499 -138c-62 56 -121.5 96.667 -178.5 122s-112.167 38 -165.5 38c-46 0 -84.167 -8.16699 -114.5 -24.5
s-56.833 -44.833 -79.5 -85.5s-43.5 -95.5 -62.5 -164.5s-40.167 -156.167 -63.5 -261.5c-4 -16.667 -7.33301 -33 -10 -49s-6 -31.333 -10 -46c48 4 89.833 8.83301 125.5 14.5s67.834 12.334 96.501 20.001s55.167 16 79.5 25s49.5 19.167 75.5 30.5
c14 -6.66699 26.833 -14.5 38.5 -23.5s21.667 -19.833 30 -32.5s14.666 -27.334 18.999 -44.001s6.5 -36.334 6.5 -59.001c0 -58.667 -13.833 -109.334 -41.5 -152.001s-67 -78.334 -118 -107.001s-112.5 -50.667 -184.5 -66s-152.667 -24.666 -242 -27.999
c-18.667 -59.333 -37.167 -114.166 -55.5 -164.499s-36.5 -95.166 -54.5 -134.499z" />
    <glyph glyph-name="currency" unicode="&#xa4;" horiz-adv-x="2142" 
d="M1159 -106c-109.333 0 -208.505 15.166 -297.505 45.499s-164.833 76.333 -227.5 138s-111 139.167 -145 232.5s-51 203 -51 329c0 22.667 0.166992 45.167 0.5 67.5s1.5 44.833 3.5 67.5c-51.333 2 -100 4.83301 -146 8.5s-84.667 7.83398 -116 12.501
c-12 12 -21.167 28.5 -27.5 49.5s-9.5 39.833 -9.5 56.5c0 30 7.33301 58.167 22 84.5s37.334 50.166 68.001 71.499s69.334 39.5 116.001 54.5s102.334 25.5 167.001 31.5c28.667 91.333 64.167 177.833 106.5 259.5s89.833 157.167 142.5 226.5
s109.667 131.666 171 186.999s125 102.333 191 141s134 68.334 204 89.001s139.667 31 209 31c70 0 130 -8.66699 180 -26s91 -40.5 123 -69.5s55.667 -62.833 71 -101.5s23 -79.667 23 -123c0 -47.333 -10.667 -90.833 -32 -130.5s-51.333 -73.834 -90 -102.501
c-24 10 -50.667 20 -80 30s-60.666 18.833 -93.999 26.5s-68.166 13.834 -104.499 18.501s-73.5 7 -111.5 7c-34 0 -67.833 -7.66699 -101.5 -23s-65.834 -40.166 -96.501 -74.499s-59 -79.166 -85 -134.499s-47.667 -123 -65 -203c68.667 5.33301 130.334 11 185.001 17
s103.667 12.667 147 20s82 15.833 116 25.5s65 20.5 93 32.5c14 -7.33301 26.833 -15.5 38.5 -24.5s21.667 -19.833 30 -32.5s14.666 -27.334 18.999 -44.001s6.5 -36.334 6.5 -59.001c0 -44.667 -13.167 -86.834 -39.5 -126.501s-66.833 -75 -121.5 -106
s-124.334 -56.5 -209.001 -76.5s-185.334 -33 -302.001 -39v-8c0 -58.667 5 -111.5 15 -158.5s26.5 -87 49.5 -120s53.333 -58.333 91 -76s84.167 -26.5 139.5 -26.5c47.333 0 95.833 8.83301 145.5 26.5s98.834 41.334 147.501 71.001s95.834 64.334 141.501 104.001
s87.834 81.5 126.501 125.5c21.333 -4 39.833 -11.667 55.5 -23s28.5 -25.166 38.5 -41.499s17.333 -34.666 22 -54.999s7 -41.833 7 -64.5c0 -38.667 -10 -80.834 -30 -126.501s-48.167 -91.167 -84.5 -136.5s-80.5 -89.333 -132.5 -132s-109.833 -80.334 -173.5 -113.001
s-132.5 -59 -206.5 -79s-151.667 -30.333 -233 -31z" />
    <glyph glyph-name="yen" unicode="&#xa5;" horiz-adv-x="2044" 
d="M594 504l-102.003 363.997c-29.333 99.333 -50.333 195.666 -63 288.999s-19 181.333 -19 264c0 68 8.33301 132.5 25 193.5s39.834 117.667 69.501 170s64.667 99.5 105 141.5s84.166 77.833 131.499 107.5s97.166 52.5 149.499 68.5s105.166 24 158.499 24
c45.333 0 83.666 -4.66699 114.999 -14s57 -23 77 -41s34.5 -40 43.5 -66s13.5 -55.333 13.5 -88c-50 -36 -90.833 -71.833 -122.5 -107.5s-56.667 -73.167 -75 -112.5s-30.833 -81.666 -37.5 -126.999s-10 -95 -10 -149c0 -25.333 1.5 -55 4.5 -89s8.33301 -74 16 -120
s18 -98.5 31 -157.5s29.833 -126.5 50.5 -202.5l134 171c38 50 70.667 94.833 98 134.5s49.833 74.834 67.5 105.501s31.667 58.834 42 84.501s17.5 49.667 21.5 72s6 44.833 6 67.5c0 23.333 -2.33301 44.5 -7 63.5s-11.667 37.333 -21 55s-21.333 36 -36 55l-51 63.5
c3.33301 44 12 81.667 26 113s32.333 56.833 55 76.5s48.667 34 78 43s61 13.5 95 13.5c47.333 0 92 -8.16699 134 -24.5s78.833 -40.333 110.5 -72s56.834 -71 75.501 -118s28 -101.167 28 -162.5c0 -76.667 -17.167 -155.167 -51.5 -235.5s-83.5 -163.333 -147.5 -249
s-142 -174.667 -234 -267s-196 -188.5 -312 -288.5c51.333 8 96.333 16.833 135 26.5s74.5 20 107.5 31s64.667 22.833 95 35.5l96.5 42c41.333 -10 72.833 -30.5 94.5 -61.5s32.5 -69.167 32.5 -114.5c0 -51.333 -12.333 -96.833 -37 -136.5s-60.167 -73.667 -106.5 -102
s-103.333 -51.666 -171 -69.999s-144.5 -31.5 -230.5 -39.5l11.5 -91c3.66699 -29.333 6.83398 -56.333 9.50098 -81c23.333 6 45.5 12.333 66.5 19s41.5 13.834 61.5 21.501s40.167 16 60.5 25l64.5 28.5c41.333 -10 72.833 -30.5 94.5 -61.5s32.5 -69.167 32.5 -114.5
c0 -88 -36 -159 -108 -213s-173.667 -92.333 -305 -115c-20.667 -57.333 -46.5 -108.666 -77.5 -153.999s-64.667 -83.833 -101 -115.5s-74 -56 -113 -73s-77.167 -25.5 -114.5 -25.5c-55.333 0 -100.666 6.83301 -135.999 20.5s-62.333 38.167 -81 73.5l25 61
c8.66699 22 16.834 44.167 24.501 66.5s14.667 43.833 21 64.5s11.5 38.667 15.5 54c-36.667 1.33301 -76.834 3 -120.501 5l-133.5 6c-45.333 2 -90.666 4.33301 -135.999 7s-88.166 5 -128.499 7s-77.333 4 -111 6l-83.5 5c-14 12.667 -24.167 29.5 -30.5 50.5
s-9.5 39.833 -9.5 56.5c0 28.667 6.5 55.167 19.5 79.5s34.5 45.5 64.5 63.5s69.833 32.333 119.5 43s111.5 17 185.5 19c72 2 138 4.16699 198 6.5s116.667 5.5 170 9.5c-6 35.333 -13.167 73.166 -21.5 113.499s-18.833 83.166 -31.5 128.499
c-50 3.33301 -100.667 6.33301 -152 9s-100.166 5.5 -146.499 8.5l-127 8.5c-38.333 2.66699 -69.833 5 -94.5 7c-14.667 12 -25.167 28.5 -31.5 49.5s-9.5 39.833 -9.5 56.5c0 28.667 6.5 55.167 19.5 79.5s34.5 45.5 64.5 63.5s69.833 32.333 119.5 43s111.5 17 185.5 19
h82z" />
    <glyph glyph-name="brokenbar" unicode="&#xa6;" horiz-adv-x="1835" 
d="M1200 2761c14.667 8 33 13.998 55 17.998s43.333 6 64 6c44 0 83.833 -9.5 119.5 -28.5s66.334 -46.833 92.001 -83.5s45.334 -81.667 59.001 -135s20.5 -114.333 20.5 -183c0 -27.333 -1.33301 -57.166 -4 -89.5c-2.66699 -32.333 -7.33398 -69.166 -14.001 -110.499
s-15.334 -88.333 -26.001 -141s-24 -113.167 -40 -181.5s-35 -145.333 -57 -231l-76 -290.5c-10.667 -2 -21 -3.16699 -31 -3.5s-20.333 -0.5 -31 -0.5c-48 0 -90.5 7.66699 -127.5 23s-68.333 37 -94 65s-45 62 -58 102s-19.5 84.333 -19.5 133
c0 16.667 0.833008 33.334 2.5 50.001l5.5 53l88 535.5c29.333 171.667 53.333 335.834 72 492.5zM795 507.998c14 74 29.8311 150.503 47.498 229.503l54.5 245.5c14.667 6 28.834 10.167 42.501 12.5s26.834 3.5 39.501 3.5c32 0 62.5 -5.83301 91.5 -17.5
s54.667 -29 77 -52s40.166 -51.5 53.499 -85.5s20 -73.667 20 -119c0 -20.667 -2.83301 -46.5 -8.5 -77.5s-12.5 -59.833 -20.5 -86.5c-32 -110.667 -59.667 -214.834 -83 -312.501s-43 -190.5 -59 -278.5s-28.833 -172 -38.5 -252s-16.5 -158 -20.5 -234
c-12 -14.667 -27.5 -25.834 -46.5 -33.501s-43.167 -11.5 -72.5 -11.5s-56.166 7.66699 -80.499 23s-45 36.166 -62 62.499s-30.167 57.166 -39.5 92.499s-14 73 -14 113c0 34 0.666992 66.833 2 98.5s3.83301 64.334 7.5 98.001s8.5 69.5 14.5 107.5
s13.333 80.167 22 126.5s19 98 31 155z" />
    <glyph glyph-name="section" unicode="&#xa7;" horiz-adv-x="2048" 
d="M467 659c34 0 64.4932 -8.5 91.4932 -25.5s50.167 -38.333 69.5 -64s34.166 -53.167 44.499 -82.5s15.5 -56.333 15.5 -81c0 -19.333 -1.16699 -37.5 -3.5 -54.5s-6.5 -33.833 -12.5 -50.5s-14 -33.334 -24 -50.001s-22.667 -34.667 -38 -54
c15.333 -60.667 38.166 -115.667 68.499 -165s64.166 -91.5 101.499 -126.5s76.333 -62.167 117 -81.5s79 -29 115 -29c22.667 0 41.834 2.83301 57.501 8.5s28.334 13.5 38.001 23.5s16.667 21.833 21 35.5s6.5 28.167 6.5 43.5c0 24.667 -9.16699 57.667 -27.5 99
s-42.666 89 -72.999 143l-103 178.5l-118 204.5c-40.333 71.333 -79.666 144.833 -117.999 220.5s-72.666 151.334 -102.999 227.001s-54.666 150.667 -72.999 225s-27.5 145.5 -27.5 213.5c0 72.667 10.333 140.5 31 203.5s53.667 121.5 99 175.5s103.833 104 175.5 150
s158.167 88.333 259.5 127c0 80.667 12.833 154.334 38.5 221c25.667 66.667 62.834 124 111.501 172s107.667 85.167 177 111.5s147.333 39.5 234 39.5c63.333 0 121.333 -7.33301 174 -22s98 -35.5 136 -62.5s67.5 -59.333 88.5 -97s31.5 -79.5 31.5 -125.5
c0 -41.333 -7.5 -80.333 -22.5 -117s-34.833 -67.334 -59.5 -92c-17.333 9.33301 -37.333 18.333 -60 27s-46.5 16.5 -71.5 23.5s-50 12.667 -75 17s-48.833 6.5 -71.5 6.5c-41.333 0 -72.166 -6.33301 -92.499 -19s-30.5 -36.334 -30.5 -71
c0 -21.333 4.5 -50.166 13.5 -86.499s20.833 -77.5 35.5 -123.5s31.5 -96 50.5 -150l58 -166l58 -171c19 -57.333 35.833 -112.5 50.5 -165.5s26.5 -102.833 35.5 -149.5s13.5 -87.667 13.5 -123c0 -72.667 -9.66699 -137.167 -29 -193.5s-44.666 -105.833 -75.999 -148.5
s-67.166 -79.167 -107.499 -109.5s-81.5 -55.833 -123.5 -76.5c41.333 -90 71.5 -172.5 90.5 -247.5s28.5 -148.167 28.5 -219.5c0 -44.667 -7 -91.667 -21 -141s-35 -98 -63 -146s-62.833 -94 -104.5 -138s-90.667 -82.833 -147 -116.5s-119.666 -60.334 -189.999 -80.001
s-147.833 -29.5 -232.5 -29.5c-68.667 0 -133.334 11.333 -194.001 34s-116.5 53.667 -167.5 93s-96.667 85.5 -137 138.5s-74.5 109.833 -102.5 170.5s-49.5 123.667 -64.5 189s-22.5 130 -22.5 194c0 84 7.33301 159.167 22 225.5s33.667 122.5 57 168.5
s50 81.167 80 105.5s60.333 36.5 91 36.5zM1359.99 737c4 16.667 6.99902 33.8301 8.99902 51.4971s3 34.834 3 51.501c0 27.333 -4 63.5 -12 108.5s-21.333 101.667 -40 170s-43.5 150 -74.5 245s-69.5 205.833 -115.5 332.5c-18 -16.667 -34.5 -33.167 -49.5 -49.5
s-27.833 -33.166 -38.5 -50.499s-19 -36 -25 -56s-9 -41.667 -9 -65c0 -17.333 1.83301 -35.833 5.5 -55.5s10.334 -42.667 20.001 -69s23 -57.166 40 -92.499s38.5 -77.5 64.5 -126.5l93.5 -170.5z" />
    <glyph glyph-name="dieresis" unicode="&#xa8;" horiz-adv-x="1794" 
d="M360 2470c0 78 4.00195 144.833 12.002 200.5s19.833 101.334 35.5 137c15.667 35.667 35 62 58 79s49.5 25.5 79.5 25.5c40 0 77.833 -9.33301 113.5 -28s67 -42.334 94 -71c27 -28.667 48.333 -60.167 64 -94.5s23.5 -66.833 23.5 -97.5
c0 -24.667 -4.16699 -51 -12.5 -79s-22.5 -60 -42.5 -96s-46.5 -76.667 -79.5 -122s-74.167 -97.666 -123.5 -157c-28.667 0 -56.334 6 -83.001 18s-50.334 30.333 -71.001 55s-37.167 56.167 -49.5 94.5s-18.5 83.5 -18.5 135.5zM1069 2531
c0 83.333 4.33301 153.666 13 211c8.66699 57.333 21.5 103.666 38.5 139c17 35.333 38 61 63 77s53.833 24 86.5 24c27.333 0 54.833 -4.66699 82.5 -14s54.5 -21.833 80.5 -37.5s50.167 -33.834 72.5 -54.5c22.333 -20.667 41.833 -42.334 58.5 -65
c16.667 -22.667 29.834 -45.667 39.501 -69s14.5 -45.666 14.5 -67c0 -24.667 -5.16699 -53.334 -15.5 -86c-10.333 -32.667 -26.5 -69.5 -48.5 -110.5s-50.333 -86.667 -85 -137s-76.667 -105.833 -126 -166.5c-42 0 -79.833 7.16699 -113.5 21.5
s-62.334 36.333 -86.001 66s-42 66.834 -55 111.5c-13 44.667 -19.5 97 -19.5 157z" />
    <glyph glyph-name="copyright" unicode="&#xa9;" horiz-adv-x="3088" 
d="M1339 -315c-107.333 0 -209.332 11.1719 -305.999 33.5049s-186.167 54.833 -268.5 97.5s-156.833 95 -223.5 157s-123.334 132.333 -170.001 211s-82.667 165.5 -108 260.5s-38 196.833 -38 305.5c0 153.333 16.333 300.166 49 440.499s79.667 271.166 141 392.499
s135.833 231.166 223.5 329.499s186.5 182.5 296.5 252.5s230.333 124 361 162s269.334 57 416.001 57c127.333 0 243.666 -11.667 348.999 -35s200 -56.833 284 -100.5s157.333 -96.5 220 -158.5s115 -131.333 157 -208s73.333 -159.834 94 -249.501s31 -184.5 31 -284.5
c0 -164 -16.333 -318.833 -49 -464.5s-79.834 -280.167 -141.5 -403.5c-61.667 -123.333 -136.834 -234 -225.5 -332c-88.667 -98 -188.834 -181.333 -300.5 -250c-111.667 -68.667 -234 -121.334 -367 -158.001s-274.5 -55 -424.5 -55zM1421 -11.9951
c102 0 199.334 12.833 292.001 38.5s179 63.334 259 113.001s152.333 111.167 217 184.5s120 157.833 166 253.5s81.5 202 106.5 319s37.5 244.167 37.5 381.5c0 120 -17 230.333 -51 331s-86.5 187.5 -157.5 260.5s-161.167 129.833 -270.5 170.5s-239.333 61 -390 61
c-110 0 -212.667 -15.333 -308 -46s-182.333 -73.5 -261 -128.5s-148.834 -121 -210.501 -198s-113.667 -161.667 -156 -254s-74.5 -191.166 -96.5 -296.499s-33 -214 -33 -326c0 -126 19.167 -241.833 57.5 -347.5s94 -196.834 167 -273.501s162.5 -136.334 268.5 -179.001
s227 -64 363 -64zM1421 385.005c-74.667 0 -139.498 12.167 -194.498 36.5s-100.5 58.5 -136.5 102.5s-62.833 96.667 -80.5 158s-26.5 129 -26.5 203c0 74.667 8.66699 147.334 26 218.001s41.333 137.334 72 200.001s67 120.334 109 173.001s88 98 138 136
s102.667 67.667 158 89s111.666 32 168.999 32c48 0 90.5 -6.66699 127.5 -20s68.333 -31.833 94 -55.5s45 -52.167 58 -85.5s19.5 -70 19.5 -110c0 -34 -5.33301 -65.667 -16 -95s-25.834 -54.833 -45.501 -76.5s-43.334 -38.667 -71.001 -51s-58.5 -18.5 -92.5 -18.5
c-11.333 34 -22.666 62 -33.999 84s-22.5 39.5 -33.5 52.5s-22 22.167 -33 27.5s-21.5 8 -31.5 8c-20 0 -40.333 -9.33301 -61 -28s-39.167 -46.334 -55.5 -83.001s-29.666 -82.167 -39.999 -136.5s-15.5 -116.833 -15.5 -187.5c0 -30.667 2 -59.334 6 -86.001
s11 -50 21 -70s23.5 -35.833 40.5 -47.5s38.167 -17.5 63.5 -17.5c33.333 0 65.5 6.83301 96.5 20.5s60.5 31.167 88.5 52.5s53.833 45.5 77.5 72.5s44.167 53.833 61.5 80.5c17.333 0 33.833 -3.16699 49.5 -9.5s29.167 -14.666 40.5 -24.999s20.333 -22.166 27 -35.499
s10 -27 10 -41c0 -34.667 -6 -70.334 -18 -107.001s-29.333 -72.334 -52 -107.001s-50.834 -67.334 -84.501 -98.001s-72.167 -57.5 -115.5 -80.5s-91.5 -41.167 -144.5 -54.5s-110.167 -20 -171.5 -20z" />
    </font>
</defs>
</svg>
